<svg viewBox="0 0 330 200" xmlns="http://www.w3.org/2000/svg"><g><g><g><g><g><line x1="51.41600036621094" y1="177.95999908447266" x2="46.41600036621094" y2="177.95999908447266" style="visibility: inherit;" fill="rgb(0, 0, 0)" stroke="rgb(204, 204, 204)" stroke-width="1px"></line><line x1="51.41600036621094" y1="163.1299991607666" x2="46.41600036621094" y2="163.1299991607666" style="visibility: inherit;" fill="rgb(0, 0, 0)" stroke="rgb(204, 204, 204)" stroke-width="1px"></line><line x1="51.41600036621094" y1="148.29999923706055" x2="46.41600036621094" y2="148.29999923706055" style="visibility: inherit;" fill="rgb(0, 0, 0)" stroke="rgb(204, 204, 204)" stroke-width="1px"></line><line x1="51.41600036621094" y1="133.4699993133545" x2="46.41600036621094" y2="133.4699993133545" style="visibility: inherit;" fill="rgb(0, 0, 0)" stroke="rgb(204, 204, 204)" stroke-width="1px"></line><line x1="51.41600036621094" y1="118.63999938964844" x2="46.41600036621094" y2="118.63999938964844" style="visibility: inherit;" fill="rgb(0, 0, 0)" stroke="rgb(204, 204, 204)" stroke-width="1px"></line><line x1="51.41600036621094" y1="103.80999946594238" x2="46.41600036621094" y2="103.80999946594238" style="visibility: inherit;" fill="rgb(0, 0, 0)" stroke="rgb(204, 204, 204)" stroke-width="1px"></line><line x1="51.41600036621094" y1="88.97999954223633" x2="46.41600036621094" y2="88.97999954223633" style="visibility: inherit;" fill="rgb(0, 0, 0)" stroke="rgb(204, 204, 204)" stroke-width="1px"></line><line x1="51.41600036621094" y1="74.14999961853027" x2="46.41600036621094" y2="74.14999961853027" style="visibility: inherit;" fill="rgb(0, 0, 0)" stroke="rgb(204, 204, 204)" stroke-width="1px"></line><line x1="51.41600036621094" y1="59.31999969482422" x2="46.41600036621094" y2="59.31999969482422" style="visibility: inherit;" fill="rgb(0, 0, 0)" stroke="rgb(204, 204, 204)" stroke-width="1px"></line><line x1="51.41600036621094" y1="44.489999771118164" x2="46.41600036621094" y2="44.489999771118164" style="visibility: inherit;" fill="rgb(0, 0, 0)" stroke="rgb(204, 204, 204)" stroke-width="1px"></line><line x1="51.41600036621094" y1="29.65999984741211" x2="46.41600036621094" y2="29.65999984741211" style="visibility: inherit;" fill="rgb(0, 0, 0)" stroke="rgb(204, 204, 204)" stroke-width="1px"></line><line x1="51.41600036621094" y1="14.829999923706055" x2="46.41600036621094" y2="14.829999923706055" style="visibility: inherit;" fill="rgb(0, 0, 0)" stroke="rgb(204, 204, 204)" stroke-width="1px"></line><line x1="51.41600036621094" y1="0" x2="46.41600036621094" y2="0" style="visibility: inherit;" fill="rgb(0, 0, 0)" stroke="rgb(204, 204, 204)" stroke-width="1px"></line></g><g transform="translate(41.41600036621094, 0)"><text style="text-anchor: end; visibility: hidden; font-family: &quot;Helvetica Neue&quot;, sans-serif; font-size: 12px; font-weight: 200;" x="0" y="177.95999908447266" dx="0em" dy="0.3em" fill="rgb(50, 49, 63)" stroke="none" stroke-width="1px">-0.5</text><text style="text-anchor: end; visibility: inherit; font-family: &quot;Helvetica Neue&quot;, sans-serif; font-size: 12px; font-weight: 200;" x="0" y="163.1299991607666" dx="0em" dy="0.3em" fill="rgb(50, 49, 63)" stroke="none" stroke-width="1px">0</text><text style="text-anchor: end; visibility: hidden; font-family: &quot;Helvetica Neue&quot;, sans-serif; font-size: 12px; font-weight: 200;" x="0" y="148.29999923706055" dx="0em" dy="0.3em" fill="rgb(50, 49, 63)" stroke="none" stroke-width="1px">0.5</text><text style="text-anchor: end; visibility: inherit; font-family: &quot;Helvetica Neue&quot;, sans-serif; font-size: 12px; font-weight: 200;" x="0" y="133.4699993133545" dx="0em" dy="0.3em" fill="rgb(50, 49, 63)" stroke="none" stroke-width="1px">1</text><text style="text-anchor: end; visibility: hidden; font-family: &quot;Helvetica Neue&quot;, sans-serif; font-size: 12px; font-weight: 200;" x="0" y="118.63999938964844" dx="0em" dy="0.3em" fill="rgb(50, 49, 63)" stroke="none" stroke-width="1px">1.5</text><text style="text-anchor: end; visibility: inherit; font-family: &quot;Helvetica Neue&quot;, sans-serif; font-size: 12px; font-weight: 200;" x="0" y="103.80999946594238" dx="0em" dy="0.3em" fill="rgb(50, 49, 63)" stroke="none" stroke-width="1px">2</text><text style="text-anchor: end; visibility: hidden; font-family: &quot;Helvetica Neue&quot;, sans-serif; font-size: 12px; font-weight: 200;" x="0" y="88.97999954223633" dx="0em" dy="0.3em" fill="rgb(50, 49, 63)" stroke="none" stroke-width="1px">2.5</text><text style="text-anchor: end; visibility: inherit; font-family: &quot;Helvetica Neue&quot;, sans-serif; font-size: 12px; font-weight: 200;" x="0" y="74.14999961853027" dx="0em" dy="0.3em" fill="rgb(50, 49, 63)" stroke="none" stroke-width="1px">3</text><text style="text-anchor: end; visibility: hidden; font-family: &quot;Helvetica Neue&quot;, sans-serif; font-size: 12px; font-weight: 200;" x="0" y="59.31999969482422" dx="0em" dy="0.3em" fill="rgb(50, 49, 63)" stroke="none" stroke-width="1px">3.5</text><text style="text-anchor: end; visibility: inherit; font-family: &quot;Helvetica Neue&quot;, sans-serif; font-size: 12px; font-weight: 200;" x="0" y="44.489999771118164" dx="0em" dy="0.3em" fill="rgb(50, 49, 63)" stroke="none" stroke-width="1px">4</text><text style="text-anchor: end; visibility: hidden; font-family: &quot;Helvetica Neue&quot;, sans-serif; font-size: 12px; font-weight: 200;" x="0" y="29.65999984741211" dx="0em" dy="0.3em" fill="rgb(50, 49, 63)" stroke="none" stroke-width="1px">4.5</text><text style="text-anchor: end; visibility: inherit; font-family: &quot;Helvetica Neue&quot;, sans-serif; font-size: 12px; font-weight: 200;" x="0" y="14.829999923706055" dx="0em" dy="0.3em" fill="rgb(50, 49, 63)" stroke="none" stroke-width="1px">5</text><text style="text-anchor: end; visibility: hidden; font-family: &quot;Helvetica Neue&quot;, sans-serif; font-size: 12px; font-weight: 200;" x="0" y="0" dx="0em" dy="0.3em" fill="rgb(50, 49, 63)" stroke="none" stroke-width="1px">5.5</text></g><line x1="51.41600036621094" y1="0" x2="51.41600036621094" y2="177.95999908447266" fill="rgb(0, 0, 0)" stroke="rgb(204, 204, 204)" stroke-width="1px"></line></g></g><g transform="translate(51, 0)" clip-path="url(#clip_0)"><clipPath id="clip_0"><rect width="278" height="177"></rect></clipPath><g><g><g><line x1="0" y1="0" x2="0" y2="177.95999908447266" fill="rgb(0, 0, 0)" stroke="rgb(60, 60, 60)" stroke-width="1px" opacity="0.25"></line><line x1="23.215333302815754" y1="0" x2="23.215333302815754" y2="177.95999908447266" fill="rgb(0, 0, 0)" stroke="rgb(60, 60, 60)" stroke-width="1px" opacity="0.25"></line><line x1="46.43066660563151" y1="0" x2="46.43066660563151" y2="177.95999908447266" fill="rgb(0, 0, 0)" stroke="rgb(60, 60, 60)" stroke-width="1px" opacity="0.25"></line><line x1="69.64599990844727" y1="0" x2="69.64599990844727" y2="177.95999908447266" fill="rgb(0, 0, 0)" stroke="rgb(60, 60, 60)" stroke-width="1px" opacity="0.25"></line><line x1="92.86133321126302" y1="0" x2="92.86133321126302" y2="177.95999908447266" fill="rgb(0, 0, 0)" stroke="rgb(60, 60, 60)" stroke-width="1px" opacity="0.25"></line><line x1="116.07666651407878" y1="0" x2="116.07666651407878" y2="177.95999908447266" fill="rgb(0, 0, 0)" stroke="rgb(60, 60, 60)" stroke-width="1px" opacity="0.25"></line><line x1="139.29199981689453" y1="0" x2="139.29199981689453" y2="177.95999908447266" fill="rgb(0, 0, 0)" stroke="rgb(60, 60, 60)" stroke-width="1px" opacity="0.25"></line><line x1="162.5073331197103" y1="0" x2="162.5073331197103" y2="177.95999908447266" fill="rgb(0, 0, 0)" stroke="rgb(60, 60, 60)" stroke-width="1px" opacity="0.25"></line><line x1="185.72266642252603" y1="0" x2="185.72266642252603" y2="177.95999908447266" fill="rgb(0, 0, 0)" stroke="rgb(60, 60, 60)" stroke-width="1px" opacity="0.25"></line><line x1="208.9379997253418" y1="0" x2="208.9379997253418" y2="177.95999908447266" fill="rgb(0, 0, 0)" stroke="rgb(60, 60, 60)" stroke-width="1px" opacity="0.25"></line><line x1="232.15333302815756" y1="0" x2="232.15333302815756" y2="177.95999908447266" fill="rgb(0, 0, 0)" stroke="rgb(60, 60, 60)" stroke-width="1px" opacity="0.25"></line><line x1="255.3686663309733" y1="0" x2="255.3686663309733" y2="177.95999908447266" fill="rgb(0, 0, 0)" stroke="rgb(60, 60, 60)" stroke-width="1px" opacity="0.25"></line><line x1="278.58399963378906" y1="0" x2="278.58399963378906" y2="177.95999908447266" fill="rgb(0, 0, 0)" stroke="rgb(60, 60, 60)" stroke-width="1px" opacity="0.25"></line></g><g><line x1="0" y1="177.95999908447266" x2="278.58399963378906" y2="177.95999908447266" fill="rgb(0, 0, 0)" stroke="rgb(60, 60, 60)" stroke-width="1px" opacity="0.25"></line><line x1="0" y1="163.1299991607666" x2="278.58399963378906" y2="163.1299991607666" fill="rgb(0, 0, 0)" stroke="rgb(60, 60, 60)" stroke-width="1px" opacity="0.25"></line><line x1="0" y1="148.29999923706055" x2="278.58399963378906" y2="148.29999923706055" fill="rgb(0, 0, 0)" stroke="rgb(60, 60, 60)" stroke-width="1px" opacity="0.25"></line><line x1="0" y1="133.4699993133545" x2="278.58399963378906" y2="133.4699993133545" fill="rgb(0, 0, 0)" stroke="rgb(60, 60, 60)" stroke-width="1px" opacity="0.25"></line><line x1="0" y1="118.63999938964844" x2="278.58399963378906" y2="118.63999938964844" fill="rgb(0, 0, 0)" stroke="rgb(60, 60, 60)" stroke-width="1px" opacity="0.25"></line><line x1="0" y1="103.80999946594238" x2="278.58399963378906" y2="103.80999946594238" fill="rgb(0, 0, 0)" stroke="rgb(60, 60, 60)" stroke-width="1px" opacity="0.25"></line><line x1="0" y1="88.97999954223633" x2="278.58399963378906" y2="88.97999954223633" fill="rgb(0, 0, 0)" stroke="rgb(60, 60, 60)" stroke-width="1px" opacity="0.25"></line><line x1="0" y1="74.14999961853027" x2="278.58399963378906" y2="74.14999961853027" fill="rgb(0, 0, 0)" stroke="rgb(60, 60, 60)" stroke-width="1px" opacity="0.25"></line><line x1="0" y1="59.31999969482422" x2="278.58399963378906" y2="59.31999969482422" fill="rgb(0, 0, 0)" stroke="rgb(60, 60, 60)" stroke-width="1px" opacity="0.25"></line><line x1="0" y1="44.489999771118164" x2="278.58399963378906" y2="44.489999771118164" fill="rgb(0, 0, 0)" stroke="rgb(60, 60, 60)" stroke-width="1px" opacity="0.25"></line><line x1="0" y1="29.65999984741211" x2="278.58399963378906" y2="29.65999984741211" fill="rgb(0, 0, 0)" stroke="rgb(60, 60, 60)" stroke-width="1px" opacity="0.25"></line><line x1="0" y1="14.829999923706055" x2="278.58399963378906" y2="14.829999923706055" fill="rgb(0, 0, 0)" stroke="rgb(60, 60, 60)" stroke-width="1px" opacity="0.25"></line><line x1="0" y1="0" x2="278.58399963378906" y2="0" fill="rgb(0, 0, 0)" stroke="rgb(60, 60, 60)" stroke-width="1px" opacity="0.25"></line></g></g></g><g><g><line x1="0" y1="163.1299991607666" x2="278.58399963378906" y2="163.1299991607666" fill="rgb(0, 0, 0)" stroke="rgb(153, 153, 153)" stroke-width="1.5px"></line></g></g><g><g><line x1="23.215333302815754" y1="0" x2="23.215333302815754" y2="177.95999908447266" fill="rgb(0, 0, 0)" stroke="rgb(153, 153, 153)" stroke-width="1.5px"></line></g></g><g><g><g><g><g><path style="fill: none;" stroke="rgb(204, 51, 17)" stroke-width="2px" d="M23.215333302815754,8.144749961913476L24.37609996795654,20.12563039916313L25.53686663309733,26.200160074127666L26.69763329823812,33.298477617261284L27.858399963378908,36.07842727579518L29.019166628519695,39.51804346044429L30.179933293660483,44.842839278455955L31.34069995880127,49.874225656421544L32.50146662394206,54.36251285497096L33.66223328908285,54.58378037264929L34.82299995422363,58.986379705753464L35.983766619364424,63.28429763449671L37.14453328450521,65.00382626235523L38.305299949646,66.97783687894389L39.46606661478678,67.60010338475938L40.626833279927574,69.03588402523049L41.78759994506836,70.61542121448521L42.94836661020915,71.83048593769576L44.10913327534993,75.41803706873229L45.269899940490724,75.28685394015787L46.43066660563151,78.07216544352514L47.5914332707723,80.03585635391283L48.75219993591308,81.74268390035016L49.912966601053874,82.56289680534303L51.07373326619466,82.78418586032912L52.23449993133545,84.60919599293707L53.39526659647624,84.8091741823812L54.556033261617024,87.3003195592399L55.716799926757815,86.73985888042536L56.8775665918986,87.15089836420171L58.03833325703939,85.13352316486562L59.199099922180174,88.06350413768962L60.359866587320965,89.75330355671133L61.52063325246175,90.49870676886911L62.68139991760254,90.80453857985519L63.842166582743324,92.03660744122332L65.00293324788412,93.05005587109274L66.1636999130249,92.52692049127103L67.3244665781657,93.67299467227404L68.48523324330647,93.9804162059123L69.64599990844727,93.71883033420535L70.80676657358805,92.05829793911573L71.96753323872885,93.05487854401312L73.12829990386963,93.51444623500052L74.28906656901042,93.9564320402781L75.4498332341512,95.31062527073414L76.610599899292,96.35647508723284L77.77136656443278,96.97137225858947L78.93213322957357,96.7812466509179L80.09289989471435,97.34831182961662L81.25366655985515,96.57632357133365L82.41443322499593,97.61677371700296L83.57519989013672,98.90317899768314L84.7359665552775,96.31399998374657L85.8967332204183,97.44692807601758L87.05749988555908,97.25347975474985L88.21826655069987,96.60185532956365L89.37903321584066,98.43738613899585L90.53979988098145,99.8959367528679L91.70056654612223,100.57307940362745L92.86133321126302,102.41511184243268L94.02209987640381,103.27824291661088L95.1828665415446,104.09755535072762L96.34363320668538,104.50665523609104L97.50439987182617,104.50321268560312L98.66516653696696,104.58918868260552L99.82593320210775,104.6995398187203L100.98669986724853,104.74511870651946L102.14746653238932,104.72554949834078L103.30823319753011,104.86752106067837L104.4689998626709,104.9137839037911L105.62976652781168,104.5596441068169L106.79053319295248,104.88511006927156L107.95129985809326,105.00949932347015L109.11206652323405,105.00063266279581L110.27283318837483,104.86488318364852L111.43359985351563,104.83086342755678L112.59436651865641,104.78708028286135L113.7551331837972,104.53136301143657L114.91589984893798,104.57334068476207L116.07666651407878,104.7349364276888L117.23743317921956,104.77319480758467L118.39819984436035,104.84256995743L119.55896650950113,104.80972089038697L120.71973317464193,104.82140888804895L121.88049983978271,104.86052203113887L123.0412665049235,104.70589007202285L124.2020331700643,104.66357732791137L125.36279983520508,104.86300523681406L126.52356650034586,104.88845693980127L127.68433316548665,104.68976149388334L128.84509983062745,104.8015586542365L130.00586649576823,104.86754511161736L131.16663316090902,104.89293035255113L132.3273998260498,104.83402960052013L133.4881664911906,104.88322321506689L134.6489331563314,105.02368831205717L135.80969982147215,105.01726413223074L136.97046648661293,104.9482613550167L138.13123315175375,104.94161325811247L139.29199981689453,105.03386320429202L140.45276648203532,104.94329145796773L141.6135331471761,105.02589781132409L142.77429981231688,105.04368939621405L143.9350664774577,105.06202984774949L145.09583314259848,105.1619369540593L146.25659980773926,105.23660689907437L147.41736647288005,105.30864967919858L148.57813313802083,105.12739356646844L149.73889980316162,105.17078311418075L150.8996664683024,105.131672816387L152.06043313344318,105.004935938741L153.221199798584,104.90167138492528L154.38196646372478,104.90212142478335L155.54273312886556,104.88335074120795L156.70349979400635,104.99763423934475L157.86426645914713,105.13472146777241L159.02503312428792,105.05508041214533L160.1857997894287,105.21539149131395L161.3465664545695,105.0955920521272L162.5073331197103,104.97356700313092L163.66809978485108,104.93172253993988L164.82886644999186,104.86972528680613L165.98963311513265,104.9239627798305L167.15039978027343,104.96061381425163L168.31116644541422,105.17971811568346L169.471933110555,105.17687462023002L170.6326997756958,105.27077796422329L171.7934664408366,105.31696388947185L172.95423310597738,105.2659583906589L174.11499977111816,105.27430064304302L175.27576643625895,105.15490991128166L176.43653310139973,105.1522112342756L177.59729976654052,105.02138167107069L178.75806643168133,105.27362765531552L179.9188330968221,105.23530784933908L181.0795997619629,105.22264176278111L182.24036642710368,105.21168173641293L183.40113309224446,105.21988090228632L184.56189975738525,105.16187399622743L185.72266642252603,105.04823965470965L186.88343308766682,105.07681124465952L188.04419975280763,104.85459964949919L189.2049664179484,104.96040236799162L190.3657330830892,105.06075194552216L191.52649974822998,104.87560768653546L192.68726641337076,104.88863152593646L193.84803307851155,104.94284897989681L195.00879974365233,104.89355518339922L196.16956640879314,105.07400655048494L197.33033307393393,105.23377199747034L198.4910997390747,105.27939112214412L199.6518664042155,105.0689001332673L200.81263306935628,104.95995898871972L201.97339973449706,104.95220152902026L203.13416639963785,105.01789287135827L204.29493306477863,105.02793268644893L205.45569972991944,104.81601592759195L206.61646639506023,104.94588784456543L207.777233060201,104.8624380640993L208.9379997253418,104.76885870126196L210.09876639048258,104.92808195018075L211.25953305562336,105.02752926487598L212.42029972076415,104.9585148302203L213.58106638590496,104.90750590778805L214.74183305104575,104.98566014773282L215.90259971618653,105.03008191133975L217.0633663813273,104.87008568705502L218.2241330464681,104.77658843312318L219.38489971160888,104.7863709569663L220.54566637674967,104.74330996863233L221.70643304189045,104.77378793337142L222.86719970703126,104.92253248093765L224.02796637217205,105.07794011688237L225.18873303731283,104.92348578519562L226.3494997024536,105.04019732512104L227.5102663675944,105.104762226323L228.67103303273518,105.21969511158322L229.83179969787597,105.0373551242217L230.99256636301678,104.8894722988042L232.15333302815756,105.03481050300718L233.31409969329835,104.7891680550413L234.47486635843913,104.99866962551765L235.6356330235799,105.06576201707959L236.7963996887207,105.00285848266832L237.95716635386148,105.07290433200993L239.11793301900227,105.05100411233715L240.27869968414308,104.93033199866481L241.43946634928386,104.97786835749179L242.60023301442465,104.91937118367265L243.76099967956543,104.89023980687884L244.9217663447062,105.03864835387341L246.082533009847,105.00903379563837L247.24329967498778,104.861681328759L248.4040663401286,104.99230233537382L249.56483300526938,104.897683542375L250.72559967041016,104.92617469632813L251.88636633555095,104.91106580037997L253.04713300069173,104.8508014245689L254.2078996658325,104.73252011311864" fill="none"></path></g><g><path style="fill: none;" stroke="rgb(0, 119, 187)" stroke-width="2px" d="M23.215333302815754,-11.811291843685467L24.37609996795654,4.914544073094021L25.53686663309733,15.502919060300883L26.69763329823812,23.49400290141159L27.858399963378908,30.2480994695419L29.019166628519695,36.15720556308776L30.179933293660483,41.49692283501196L31.34069995880127,46.12607406351921L32.50146662394206,50.233181076022234L33.66223328908285,53.99668082067305L34.82299995422363,57.28570105257536L35.983766619364424,60.399620441813724L37.14453328450521,63.115073453862664L38.305299949646,65.70652997694033L39.46606661478678,67.96793098527718L40.626833279927574,69.9873692786248L41.78759994506836,72.01704596549615L42.94836661020915,73.82091007286407L44.10913327534993,75.5815748853584L45.269899940490724,77.12542048274194L46.43066660563151,78.52487845612852L47.5914332707723,79.8736737918276L48.75219993591308,81.24111977000187L49.912966601053874,82.64666457272547L51.07373326619466,83.79655717282337L52.23449993133545,84.91701530619694L53.39526659647624,86.08389811688052L54.556033261617024,87.11561247264234L55.716799926757815,88.11638275122132L56.8775665918986,89.03731925032349L58.03833325703939,89.94224234866593L59.199099922180174,90.67072388895457L60.359866587320965,91.60713672040808L61.52063325246175,92.33428766298059L62.68139991760254,93.18525351887652L63.842166582743324,93.91651741330702L65.00293324788412,94.7070090810003L66.1636999130249,95.27967423177164L67.3244665781657,95.9534781958565L68.48523324330647,96.62476042546413L69.64599990844727,97.3119198351957L70.80676657358805,97.91648377316604L71.96753323872885,98.44811489426503L73.12829990386963,98.96796928299065L74.28906656901042,99.5941448120758L75.4498332341512,100.17914092470146L76.610599899292,100.62270163346776L77.77136656443278,101.09693235696744L78.93213322957357,101.56424913713799L80.09289989471435,102.06728381163661L81.25366655985515,102.61824470027301L82.41443322499593,103.1504154134774L83.57519989013672,103.64179984410751L84.7359665552775,104.00314074174408L85.8967332204183,104.42553344073671L87.05749988555908,104.8661939622757L88.21826655069987,105.14495672448118L89.37903321584066,105.55169338924706L90.53979988098145,105.86861280148132L91.70056654612223,106.43868334735717L92.86133321126302,107.91657466234064L94.02209987640381,109.07593538452899L95.1828665415446,109.92498063098698L96.34363320668538,110.58965820912387L97.50439987182617,110.97689437585464L98.66516653696696,111.33949442845632L99.82593320210775,111.56179094738157L100.98669986724853,111.72399934393235L102.14746653238932,111.86264737016035L103.30823319753011,111.9845582783264L104.4689998626709,112.13058506519882L105.62976652781168,112.22336191438771L106.79053319295248,112.2346331781669L107.95129985809326,112.40015241392733L109.11206652323405,112.45181339334235L110.27283318837483,112.41327314186391L111.43359985351563,112.58593464499131L112.59436651865641,112.60495929502926L113.7551331837972,112.69122585983635L114.91589984893798,112.63832767242795L116.07666651407878,112.73339480867746L117.23743317921956,112.9018111369886L118.39819984436035,112.91069813938257L119.55896650950113,112.99853771611167L120.71973317464193,113.07231734590606L121.88049983978271,113.02932570383669L123.0412665049235,113.06618416447026L124.2020331700643,113.22880418969727L125.36279983520508,113.25884625599267L126.52356650034586,113.29159859129807L127.68433316548665,113.2882110617069L128.84509983062745,113.31737515138143L130.00586649576823,113.41640794276411L131.16663316090902,113.49076261507548L132.3273998260498,113.56131507649383L133.4881664911906,113.54795570146614L134.6489331563314,113.63393014535532L135.80969982147215,113.83333168638613L136.97046648661293,113.84257243075594L138.13123315175375,113.84022226033774L139.29199981689453,114.02217036675353L140.45276648203532,114.06148983139568L141.6135331471761,114.23339480382867L142.77429981231688,114.24290553603066L143.9350664774577,114.12152872405252L145.09583314259848,114.19345472562138L146.25659980773926,114.18991441634913L147.41736647288005,114.39379278080477L148.57813313802083,114.34033233337965L149.73889980316162,114.442168966114L150.8996664683024,114.45707145449144L152.06043313344318,114.46994611304788L153.221199798584,114.4793624097905L154.38196646372478,114.61136283225134L155.54273312886556,114.51585190117135L156.70349979400635,114.59459949240477L157.86426645914713,114.5966329079884L159.02503312428792,114.48253101655612L160.1857997894287,114.46618114279647L161.3465664545695,114.61891377446716L162.5073331197103,114.69294815946833L163.66809978485108,114.58647722973714L164.82886644999186,114.61042688294103L165.98963311513265,114.63457655247568L167.15039978027343,114.73098396680454L168.31116644541422,114.79809207387775L169.471933110555,114.8255617750329L170.6326997756958,114.84862291469238L171.7934664408366,114.86571248619717L172.95423310597738,114.9919712763014L174.11499977111816,114.78710982779333L175.27576643625895,114.88365963522511L176.43653310139973,114.95939271554597L177.59729976654052,115.05038430605785L178.75806643168133,114.97256975901675L179.9188330968221,114.85351276505875L181.0795997619629,114.89292001022186L182.24036642710368,114.96437897804542L183.40113309224446,114.95772277902307L184.56189975738525,115.0267761888649L185.72266642252603,115.13293221438698L186.88343308766682,115.23621630171792L188.04419975280763,115.26842990307327L189.2049664179484,115.22150664134526L190.3657330830892,115.34851118513527L191.52649974822998,115.3498338506449L192.68726641337076,115.29736494946177L193.84803307851155,115.36069255678098L195.00879974365233,115.4123470066537L196.16956640879314,115.46341282234044L197.33033307393393,115.4821722001193L198.4910997390747,115.4315932600347L199.6518664042155,115.44437352981052L200.81263306935628,115.53105433412995L201.97339973449706,115.5778044530249L203.13416639963785,115.43754021420025L204.29493306477863,115.41206376517755L205.45569972991944,115.47020547145124L206.61646639506023,115.47976322865262L207.777233060201,115.4880874644497L208.9379997253418,115.60979985982729L210.09876639048258,115.6077393343359L211.25953305562336,115.57173954952387L212.42029972076415,115.5805612502117L213.58106638590496,115.67028226396448L214.74183305104575,115.6604714170382L215.90259971618653,115.60670523040254L217.0633663813273,115.69094132737688L218.2241330464681,115.65705357792241L219.38489971160888,115.80528698363406L220.54566637674967,115.85540593370149L221.70643304189045,115.8959982740324L222.86719970703126,115.81325730045545L224.02796637217205,115.78932608650021L225.18873303731283,115.78326646468224L226.3494997024536,115.8225942667336L227.5102663675944,115.89089552518041L228.67103303273518,115.91177767710332L229.83179969787597,115.89292791625633L230.99256636301678,115.95343899176693L232.15333302815756,116.01869350908623L233.31409969329835,116.04581477785119L234.47486635843913,116.2027961470136L235.6356330235799,116.06946527344587L236.7963996887207,115.9870624409985L237.95716635386148,116.04861209876242L239.11793301900227,116.0144097250169L240.27869968414308,116.02822606628658L241.43946634928386,116.16846996811736L242.60023301442465,116.1837668194043L243.76099967956543,116.29856902268881L244.9217663447062,116.3735205159845L246.082533009847,116.33691040251678L247.24329967498778,116.40866710083023L248.4040663401286,116.3667500356607L249.56483300526938,116.42619609148052L250.72559967041016,116.31090993508434L251.88636633555095,116.3784189255868L253.04713300069173,116.47218540607821L254.2078996658325,116.37413537294859" fill="none"></path></g></g></g></g><g opacity="0.2"><g><g><g><path style="fill: none;" stroke="rgb(204, 51, 17)" stroke-width="2px" d="M23.215333302815754,8.144749961913476L24.37609996795654,27.31415866151292L25.53686663309733,32.03170856209363L26.69763329823812,41.646099047986354L27.858399963378908,39.70792954997705L29.019166628519695,44.27627090564056L30.179933293660483,52.457382494945705L31.34069995880127,57.21003529680456L32.50146662394206,60.98186466792595L33.66223328908285,54.912336848999985L34.82299995422363,65.55034745348985L35.983766619364424,69.70778544803943L37.14453328450521,67.57750464482797L38.305299949646,69.9349855115297L39.46606661478678,68.53277169256398L40.626833279927574,71.18854236218976L41.78759994506836,72.9840585911652L42.94836661020915,73.65277451770999L44.10913327534993,80.79881723798098L45.269899940490724,75.09009123795386L46.43066660563151,82.24997994547357L47.5914332707723,82.98132810340849L48.75219993591308,84.3028915216737L49.912966601053874,83.79320644662857L51.07373326619466,83.11611786998037L52.23449993133545,87.34670340901448L53.39526659647624,85.10914095485805L54.556033261617024,91.03703380003299L55.716799926757815,85.89916837846704L56.8775665918986,87.76745736269095L58.03833325703939,82.10746103484507L59.199099922180174,92.45847501395747L60.359866587320965,92.28800248351581L61.52063325246175,91.6168115337141L62.68139991760254,91.26328628319061L63.842166582743324,93.88471070150536L65.00293324788412,94.57022850021713L66.1636999130249,91.74221742639475L67.3244665781657,95.39210593739517L68.48523324330647,94.44154850534233L69.64599990844727,93.32645152716941L70.80676657358805,89.56749934847903L71.96753323872885,94.54974945063987L73.12829990386963,94.20379777128255L74.28906656901042,94.61941074807964L75.4498332341512,97.34191511620702L76.610599899292,97.92524981188308L77.77136656443278,97.89371801558991L78.93213322957357,96.49605823941693L80.09289989471435,98.19890959765326L81.25366655985515,95.41834118391853L82.41443322499593,99.17744893549934L83.57519989013672,100.83278691869782L84.7359665552775,92.4302314628485L85.8967332204183,99.1463202144223L87.05749988555908,96.9633072728484L88.21826655069987,95.62441869178474L89.37903321584066,101.19068235314353L90.53979988098145,102.08376267367566L91.70056654612223,101.58879337976668L92.86133321126302,105.17816050064039L94.02209987640381,104.57293952787813L95.1828665415446,105.32652400190273L96.34363320668538,105.12030506413612L97.50439987182617,104.49804885987123L98.66516653696696,104.71815267810916L99.82593320210775,104.86506652289245L100.98669986724853,104.81348703821823L102.14746653238932,104.69619568607277L103.30823319753011,105.08047840418476L104.4689998626709,104.9831781684602L105.62976652781168,104.02843441135565L106.79053319295248,105.37330901295354L107.95129985809326,105.196083204768L109.11206652323405,104.98733267178432L110.27283318837483,104.66125896492758L111.43359985351563,104.77983379341913L112.59436651865641,104.72140556581826L113.7551331837972,104.14778710429937L114.91589984893798,104.63630719475032L116.07666651407878,104.97733004207885L117.23743317921956,104.83058237742853L118.39819984436035,104.94663268219801L119.55896650950113,104.76044728982242L120.71973317464193,104.8389408845419L121.88049983978271,104.91919174577379L123.0412665049235,104.47394213334883L124.2020331700643,104.6001082117441L125.36279983520508,105.16214710016811L126.52356650034586,104.9266344942821L127.68433316548665,104.39171832500642L128.84509983062745,104.96925439476627L130.00586649576823,104.96652479768863L131.16663316090902,104.93100821395183L132.3273998260498,104.74567847247363L133.4881664911906,104.95701363688704L134.6489331563314,105.2343859575426L135.80969982147215,105.00762786249106L136.97046648661293,104.84475718919566L138.13123315175375,104.9316411127561L139.29199981689453,105.17223812356133L140.45276648203532,104.8074338384813L141.6135331471761,105.14980734135861L142.77429981231688,105.07037677354901L143.9350664774577,105.0895405250526L145.09583314259848,105.31179761352405L146.25659980773926,105.34861181659699L147.41736647288005,105.4167138493849L148.57813313802083,104.85550939737323L149.73889980316162,105.23586743574924L150.8996664683024,105.07300736969637L152.06043313344318,104.81483062227198L153.221199798584,104.74677455420169L154.38196646372478,104.90279648457044L155.54273312886556,104.85519471584485L156.70349979400635,105.16905948654994L157.86426645914713,105.34035231041389L159.02503312428792,104.93561882870472L160.1857997894287,105.45585811006686L161.3465664545695,104.91589289334706L162.5073331197103,104.79052942963654L163.66809978485108,104.86895584515332L164.82886644999186,104.77672940710545L165.98963311513265,105.0053190193671L167.15039978027343,105.01559036588333L168.31116644541422,105.5083745678312L169.471933110555,105.17260937704987L170.6326997756958,105.4116329802132L171.7934664408366,105.3862427773447L172.95423310597738,105.18945014243945L174.11499977111816,105.2868140216192L175.27576643625895,104.97582381363964L176.43653310139973,105.14816321876651L177.59729976654052,104.8251373262633L178.75806643168133,105.65199663168278L179.9188330968221,105.17782814037446L181.0795997619629,105.20364263294414L182.24036642710368,105.19524169686065L183.40113309224446,105.23217965109643L184.56189975738525,105.07486363713906L185.72266642252603,104.87778814243302L186.88343308766682,105.11966862958434L188.04419975280763,104.5212822567587L189.2049664179484,105.11910644573027L190.3657330830892,105.21127631181798L191.52649974822998,104.5978912980554L192.68726641337076,104.90816728503796L193.84803307851155,105.02417516083733L195.00879974365233,104.81961448865286L196.16956640879314,105.3446836011135L197.33033307393393,105.47342016794846L198.4910997390747,105.34781980915477L199.6518664042155,104.75316364995206L200.81263306935628,104.79654727189836L201.97339973449706,104.94056533947105L203.13416639963785,105.11642988486528L204.29493306477863,105.04299240908495L205.45569972991944,104.49814078930649L206.61646639506023,105.14069572002563L207.777233060201,104.7372633934001L208.9379997253418,104.62848965700596L210.09876639048258,105.16691682355895L211.25953305562336,105.1767002369188L212.42029972076415,104.85499317823678L213.58106638590496,104.83099252413967L214.74183305104575,105.10289150764993L215.90259971618653,105.09671455675016L217.0633663813273,104.63009135062794L218.2241330464681,104.63634255222541L219.38489971160888,104.80104474273094L220.54566637674967,104.6787184861314L221.70643304189045,104.81950488048005L222.86719970703126,105.14564930228698L224.02796637217205,105.31105157079946L225.18873303731283,104.69180428766549L226.3494997024536,105.21526463500913L227.5102663675944,105.20160957812595L228.67103303273518,105.39209443947357L229.83179969787597,104.76384514317942L230.99256636301678,104.66764806067795L232.15333302815756,105.25281780931164L233.31409969329835,104.42070438309247L234.47486635843913,105.3129219812322L235.6356330235799,105.1664006044225L236.7963996887207,104.9085031810514L237.95716635386148,105.17797310602236L239.11793301900227,105.018153782828L240.27869968414308,104.74932382815632L241.43946634928386,105.04917289573223L242.60023301442465,104.83162542294394L243.76099967956543,104.84654274168815L244.9217663447062,105.26126117436525L246.082533009847,104.96461195828579L247.24329967498778,104.64065262843997L248.4040663401286,105.18823384529605L249.56483300526938,104.7557553528768L250.72559967041016,104.96891142725781L251.88636633555095,104.8884024564577L253.04713300069173,104.7604048608523L254.2078996658325,104.55509814594325" fill="none"></path></g><g><path style="fill: none;" stroke="rgb(0, 119, 187)" stroke-width="2px" d="M23.215333302815754,-11.811291843685467L24.37609996795654,14.950045623161714L25.53686663309733,25.667759048019434L26.69763329823812,32.89151749855773L27.858399963378908,39.06624794889285L29.019166628519695,44.33162656865534L30.179933293660483,49.132803969339875L31.34069995880127,52.87542099453458L32.50146662394206,56.29036615499808L33.66223328908285,59.585039328165294L34.82299995422363,62.18940022899733L35.983766619364424,65.05355371386577L37.14453328450521,67.1793865467098L38.305299949646,69.58863782845128L39.46606661478678,71.35737430578683L40.626833279927574,73.015102454302L41.78759994506836,75.06070210465168L42.94836661020915,76.52624823301448L44.10913327534993,78.22230388453681L45.269899940490724,79.44104776521453L46.43066660563151,80.62398866660715L47.5914332707723,81.89682241269111L48.75219993591308,83.29226173942789L49.912966601053874,84.75496512679274L51.07373326619466,85.52138790002573L52.23449993133545,86.59769772801519L53.39526659647624,87.83421934717262L54.556033261617024,88.66318242236048L55.716799926757815,89.61753724723894L56.8775665918986,90.41872348998913L58.03833325703939,91.29962669609722L59.199099922180174,91.7634460544441L60.359866587320965,93.01175585579949L61.52063325246175,93.425014024755L62.68139991760254,94.46170226614868L63.842166582743324,95.01341323609631L65.00293324788412,95.89274657031001L66.1636999130249,96.13867195261264L67.3244665781657,96.96418413823085L68.48523324330647,97.63168376763224L69.64599990844727,98.34265894841519L70.80676657358805,98.82332967939419L71.96753323872885,99.24556157552979L73.12829990386963,99.74775086585396L74.28906656901042,100.53340810554073L75.4498332341512,101.05663509354872L76.610599899292,101.28804269657576L77.77136656443278,101.80827844219039L78.93213322957357,102.26522430737805L80.09289989471435,102.82183582337439L81.25366655985515,103.44468603322093L82.41443322499593,103.94867148328012L83.57519989013672,104.37887649005052L84.7359665552775,104.54515208819794L85.8967332204183,105.05912248922505L87.05749988555908,105.52718474458379L88.21826655069987,105.56310086778922L89.37903321584066,106.16179838639573L90.53979988098145,106.34399191983266L91.70056654612223,107.29378916617088L92.86133321126302,110.13341163481573L94.02209987640381,110.81497646781145L95.1828665415446,111.19854850067395L96.34363320668538,111.58667457632919L97.50439987182617,111.55774862595081L98.66516653696696,111.88339450735884L99.82593320210775,111.89523572576945L100.98669986724853,111.96731193875848L102.14746653238932,112.07061940950234L103.30823319753011,112.16742464057552L104.4689998626709,112.34962524550747L105.62976652781168,112.36252718817104L106.79053319295248,112.25154007383571L107.95129985809326,112.64843126756796L109.11206652323405,112.52930486246487L110.27283318837483,112.35546276464629L111.43359985351563,112.84492689968238L112.59436651865641,112.6334962700862L113.7551331837972,112.82062570704693L114.91589984893798,112.55898039131534L116.07666651407878,112.87599551305175L117.23743317921956,113.15443562945529L118.39819984436035,112.92402864297355L119.55896650950113,113.1302970812053L120.71973317464193,113.18298679059762L121.88049983978271,112.96483824073266L123.0412665049235,113.12147185542062L124.2020331700643,113.47273422753779L125.36279983520508,113.30390935543574L126.52356650034586,113.34072709425618L127.68433316548665,113.28312976732013L128.84509983062745,113.3611212858932L130.00586649576823,113.56495712983815L131.16663316090902,113.60229462354255L132.3273998260498,113.66714376862137L133.4881664911906,113.52791663892458L134.6489331563314,113.76289181118909L135.80969982147215,114.13243399793237L136.97046648661293,113.85643354731064L138.13123315175375,113.83669700471046L139.29199981689453,114.29509252637718L140.45276648203532,114.12046902835891L141.6135331471761,114.49125226247816L142.77429981231688,114.25717163433364L143.9350664774577,113.9394635060853L145.09583314259848,114.30134372797465L146.25659980773926,114.18460395244074L147.41736647288005,114.69961032748824L148.57813313802083,114.26014166224195L149.73889980316162,114.59492391521553L150.8996664683024,114.47942518705759L152.06043313344318,114.48925810088258L153.221199798584,114.4934868549044L154.38196646372478,114.80936346594262L155.54273312886556,114.37258550455135L156.70349979400635,114.7127208792549L157.86426645914713,114.59968303136384L159.02503312428792,114.31137817940771L160.1857997894287,114.44165633215698L161.3465664545695,114.84801272197319L162.5073331197103,114.80399973697013L163.66809978485108,114.42677083514036L164.82886644999186,114.64635136274683L165.98963311513265,114.67080105677769L167.15039978027343,114.87559508829781L168.31116644541422,114.89875423448757L169.471933110555,114.86676632676563L170.6326997756958,114.88321462418162L171.7934664408366,114.89134684345436L172.95423310597738,115.18135946145776L174.11499977111816,114.47981765503118L175.27576643625895,115.0284843463728L176.43653310139973,115.07299233602726L177.59729976654052,115.18687169182567L178.75806643168133,114.8558479384551L179.9188330968221,114.67492727412173L181.0795997619629,114.95203087796654L182.24036642710368,115.07156742978077L183.40113309224446,114.94773848048953L184.56189975738525,115.13035630362765L185.72266642252603,115.29216625267009L186.88343308766682,115.39114243271433L188.04419975280763,115.31675030510632L189.2049664179484,115.15112174875321L190.3657330830892,115.5390180008203L191.52649974822998,115.35181784890938L192.68726641337076,115.21866159768706L193.84803307851155,115.4556839677598L195.00879974365233,115.48982868146277L196.16956640879314,115.54001154587058L197.33033307393393,115.51031126678754L198.4910997390747,115.3557248499078L199.6518664042155,115.46354393447427L200.81263306935628,115.66107554060909L201.97339973449706,115.64792963136733L203.13416639963785,115.22714385596328L204.29493306477863,115.37384909164348L205.45569972991944,115.55741803086175L206.61646639506023,115.49409986445471L207.777233060201,115.50057381814531L208.9379997253418,115.7923684528937L210.09876639048258,115.60464854609882L211.25953305562336,115.51773987230581L212.42029972076415,115.59379380124346L213.58106638590496,115.80486378459364L214.74183305104575,115.64575514664875L215.90259971618653,115.52605595044906L217.0633663813273,115.8172954728384L218.2241330464681,115.60622195374071L219.38489971160888,116.02763709220153L220.54566637674967,115.93058435880266L221.70643304189045,115.9568867845287L222.86719970703126,115.68914584009008L224.02796637217205,115.75342926556732L225.18873303731283,115.77417703195533L226.3494997024536,115.88158596981066L227.5102663675944,115.99334741285065L228.67103303273518,115.94310090498766L229.83179969787597,115.86465327498581L230.99256636301678,116.04420560503286L232.15333302815756,116.11657528506521L233.31409969329835,116.08649668099861L234.47486635843913,116.4382682007572L235.6356330235799,115.86946896309428L236.7963996887207,115.86345819232747L237.95716635386148,116.14093658540833L239.11793301900227,115.9631061643986L240.27869968414308,116.04895057819112L241.43946634928386,116.37883582086351L242.60023301442465,116.20671209633474L243.76099967956543,116.47077232761558L244.9217663447062,116.48594775592801L246.082533009847,116.28199523231524L247.24329967498778,116.51630214830038L248.4040663401286,116.30387443790642L249.56483300526938,116.51536517521026L250.72559967041016,116.13798070049006L251.88636633555095,116.47968241134049L253.04713300069173,116.6128351268153L254.2078996658325,116.22706032325414" fill="none"></path></g></g></g></g></g></g><g transform="translate(51, 177)" clip-path="url(#clip_1)"><clipPath id="clip_1"><rect width="278" height="22"></rect></clipPath><g><g><line x1="0" y1="0" x2="0" y2="5" style="visibility: inherit;" fill="rgb(0, 0, 0)" stroke="rgb(204, 204, 204)" stroke-width="1px"></line><line x1="23.215333302815754" y1="0" x2="23.215333302815754" y2="5" style="visibility: inherit;" fill="rgb(0, 0, 0)" stroke="rgb(204, 204, 204)" stroke-width="1px"></line><line x1="46.43066660563151" y1="0" x2="46.43066660563151" y2="5" style="visibility: inherit;" fill="rgb(0, 0, 0)" stroke="rgb(204, 204, 204)" stroke-width="1px"></line><line x1="69.64599990844727" y1="0" x2="69.64599990844727" y2="5" style="visibility: inherit;" fill="rgb(0, 0, 0)" stroke="rgb(204, 204, 204)" stroke-width="1px"></line><line x1="92.86133321126302" y1="0" x2="92.86133321126302" y2="5" style="visibility: inherit;" fill="rgb(0, 0, 0)" stroke="rgb(204, 204, 204)" stroke-width="1px"></line><line x1="116.07666651407878" y1="0" x2="116.07666651407878" y2="5" style="visibility: inherit;" fill="rgb(0, 0, 0)" stroke="rgb(204, 204, 204)" stroke-width="1px"></line><line x1="139.29199981689453" y1="0" x2="139.29199981689453" y2="5" style="visibility: inherit;" fill="rgb(0, 0, 0)" stroke="rgb(204, 204, 204)" stroke-width="1px"></line><line x1="162.5073331197103" y1="0" x2="162.5073331197103" y2="5" style="visibility: inherit;" fill="rgb(0, 0, 0)" stroke="rgb(204, 204, 204)" stroke-width="1px"></line><line x1="185.72266642252603" y1="0" x2="185.72266642252603" y2="5" style="visibility: inherit;" fill="rgb(0, 0, 0)" stroke="rgb(204, 204, 204)" stroke-width="1px"></line><line x1="208.9379997253418" y1="0" x2="208.9379997253418" y2="5" style="visibility: inherit;" fill="rgb(0, 0, 0)" stroke="rgb(204, 204, 204)" stroke-width="1px"></line><line x1="232.15333302815756" y1="0" x2="232.15333302815756" y2="5" style="visibility: inherit;" fill="rgb(0, 0, 0)" stroke="rgb(204, 204, 204)" stroke-width="1px"></line><line x1="255.3686663309733" y1="0" x2="255.3686663309733" y2="5" style="visibility: inherit;" fill="rgb(0, 0, 0)" stroke="rgb(204, 204, 204)" stroke-width="1px"></line><line x1="278.58399963378906" y1="0" x2="278.58399963378906" y2="5" style="visibility: inherit;" fill="rgb(0, 0, 0)" stroke="rgb(204, 204, 204)" stroke-width="1px"></line></g><g transform="translate(0, 8)"><text style="text-anchor: middle; visibility: hidden; font-family: &quot;Helvetica Neue&quot;, sans-serif; font-size: 12px; font-weight: 200;" x="0" y="0" dx="0em" dy="0.95em" fill="rgb(50, 49, 63)" stroke="none" stroke-width="1px">-20</text><text style="text-anchor: middle; visibility: inherit; font-family: &quot;Helvetica Neue&quot;, sans-serif; font-size: 12px; font-weight: 200;" x="23.215333302815754" y="0" dx="0em" dy="0.95em" fill="rgb(50, 49, 63)" stroke="none" stroke-width="1px">0</text><text style="text-anchor: middle; visibility: hidden; font-family: &quot;Helvetica Neue&quot;, sans-serif; font-size: 12px; font-weight: 200;" x="46.43066660563151" y="0" dx="0em" dy="0.95em" fill="rgb(50, 49, 63)" stroke="none" stroke-width="1px">20</text><text style="text-anchor: middle; visibility: inherit; font-family: &quot;Helvetica Neue&quot;, sans-serif; font-size: 12px; font-weight: 200;" x="69.64599990844727" y="0" dx="0em" dy="0.95em" fill="rgb(50, 49, 63)" stroke="none" stroke-width="1px">40</text><text style="text-anchor: middle; visibility: hidden; font-family: &quot;Helvetica Neue&quot;, sans-serif; font-size: 12px; font-weight: 200;" x="92.86133321126302" y="0" dx="0em" dy="0.95em" fill="rgb(50, 49, 63)" stroke="none" stroke-width="1px">60</text><text style="text-anchor: middle; visibility: inherit; font-family: &quot;Helvetica Neue&quot;, sans-serif; font-size: 12px; font-weight: 200;" x="116.07666651407878" y="0" dx="0em" dy="0.95em" fill="rgb(50, 49, 63)" stroke="none" stroke-width="1px">80</text><text style="text-anchor: middle; visibility: hidden; font-family: &quot;Helvetica Neue&quot;, sans-serif; font-size: 12px; font-weight: 200;" x="139.29199981689453" y="0" dx="0em" dy="0.95em" fill="rgb(50, 49, 63)" stroke="none" stroke-width="1px">100</text><text style="text-anchor: middle; visibility: inherit; font-family: &quot;Helvetica Neue&quot;, sans-serif; font-size: 12px; font-weight: 200;" x="162.5073331197103" y="0" dx="0em" dy="0.95em" fill="rgb(50, 49, 63)" stroke="none" stroke-width="1px">120</text><text style="text-anchor: middle; visibility: hidden; font-family: &quot;Helvetica Neue&quot;, sans-serif; font-size: 12px; font-weight: 200;" x="185.72266642252603" y="0" dx="0em" dy="0.95em" fill="rgb(50, 49, 63)" stroke="none" stroke-width="1px">140</text><text style="text-anchor: middle; visibility: inherit; font-family: &quot;Helvetica Neue&quot;, sans-serif; font-size: 12px; font-weight: 200;" x="208.9379997253418" y="0" dx="0em" dy="0.95em" fill="rgb(50, 49, 63)" stroke="none" stroke-width="1px">160</text><text style="text-anchor: middle; visibility: hidden; font-family: &quot;Helvetica Neue&quot;, sans-serif; font-size: 12px; font-weight: 200;" x="232.15333302815756" y="0" dx="0em" dy="0.95em" fill="rgb(50, 49, 63)" stroke="none" stroke-width="1px">180</text><text style="text-anchor: middle; visibility: inherit; font-family: &quot;Helvetica Neue&quot;, sans-serif; font-size: 12px; font-weight: 200;" x="255.3686663309733" y="0" dx="0em" dy="0.95em" fill="rgb(50, 49, 63)" stroke="none" stroke-width="1px">200</text><text style="text-anchor: middle; visibility: hidden; font-family: &quot;Helvetica Neue&quot;, sans-serif; font-size: 12px; font-weight: 200;" x="278.58399963378906" y="0" dx="0em" dy="0.95em" fill="rgb(50, 49, 63)" stroke="none" stroke-width="1px">220</text></g><line x1="0" y1="0" x2="278.58399963378906" y2="0" fill="rgb(0, 0, 0)" stroke="rgb(204, 204, 204)" stroke-width="1px"></line></g></g></g></g></svg>