<svg viewBox="0 0 330 200" xmlns="http://www.w3.org/2000/svg"><g><g><g><g><g><line x1="51.41600036621094" y1="177.95999908447266" x2="46.41600036621094" y2="177.95999908447266" style="visibility: inherit;" fill="rgb(0, 0, 0)" stroke="rgb(204, 204, 204)" stroke-width="1px"></line><line x1="51.41600036621094" y1="152.53714207240512" x2="46.41600036621094" y2="152.53714207240512" style="visibility: inherit;" fill="rgb(0, 0, 0)" stroke="rgb(204, 204, 204)" stroke-width="1px"></line><line x1="51.41600036621094" y1="127.11428506033762" x2="46.41600036621094" y2="127.11428506033762" style="visibility: inherit;" fill="rgb(0, 0, 0)" stroke="rgb(204, 204, 204)" stroke-width="1px"></line><line x1="51.41600036621094" y1="101.69142804827007" x2="46.41600036621094" y2="101.69142804827007" style="visibility: inherit;" fill="rgb(0, 0, 0)" stroke="rgb(204, 204, 204)" stroke-width="1px"></line><line x1="51.41600036621094" y1="76.26857103620259" x2="46.41600036621094" y2="76.26857103620259" style="visibility: inherit;" fill="rgb(0, 0, 0)" stroke="rgb(204, 204, 204)" stroke-width="1px"></line><line x1="51.41600036621094" y1="50.84571402413505" x2="46.41600036621094" y2="50.84571402413505" style="visibility: inherit;" fill="rgb(0, 0, 0)" stroke="rgb(204, 204, 204)" stroke-width="1px"></line><line x1="51.41600036621094" y1="25.42285701206748" x2="46.41600036621094" y2="25.42285701206748" style="visibility: inherit;" fill="rgb(0, 0, 0)" stroke="rgb(204, 204, 204)" stroke-width="1px"></line><line x1="51.41600036621094" y1="0" x2="46.41600036621094" y2="0" style="visibility: inherit;" fill="rgb(0, 0, 0)" stroke="rgb(204, 204, 204)" stroke-width="1px"></line></g><g transform="translate(41.41600036621094, 0)"><text style="text-anchor: end; visibility: hidden; font-family: &quot;Helvetica Neue&quot;, sans-serif; font-size: 12px; font-weight: 200;" x="0" y="177.95999908447266" dx="0em" dy="0.3em" fill="rgb(50, 49, 63)" stroke="none" stroke-width="1px">0.5</text><text style="text-anchor: end; visibility: inherit; font-family: &quot;Helvetica Neue&quot;, sans-serif; font-size: 12px; font-weight: 200;" x="0" y="152.53714207240512" dx="0em" dy="0.3em" fill="rgb(50, 49, 63)" stroke="none" stroke-width="1px">0.55</text><text style="text-anchor: end; visibility: inherit; font-family: &quot;Helvetica Neue&quot;, sans-serif; font-size: 12px; font-weight: 200;" x="0" y="127.11428506033762" dx="0em" dy="0.3em" fill="rgb(50, 49, 63)" stroke="none" stroke-width="1px">0.6</text><text style="text-anchor: end; visibility: inherit; font-family: &quot;Helvetica Neue&quot;, sans-serif; font-size: 12px; font-weight: 200;" x="0" y="101.69142804827007" dx="0em" dy="0.3em" fill="rgb(50, 49, 63)" stroke="none" stroke-width="1px">0.65</text><text style="text-anchor: end; visibility: inherit; font-family: &quot;Helvetica Neue&quot;, sans-serif; font-size: 12px; font-weight: 200;" x="0" y="76.26857103620259" dx="0em" dy="0.3em" fill="rgb(50, 49, 63)" stroke="none" stroke-width="1px">0.7</text><text style="text-anchor: end; visibility: inherit; font-family: &quot;Helvetica Neue&quot;, sans-serif; font-size: 12px; font-weight: 200;" x="0" y="50.84571402413505" dx="0em" dy="0.3em" fill="rgb(50, 49, 63)" stroke="none" stroke-width="1px">0.75</text><text style="text-anchor: end; visibility: inherit; font-family: &quot;Helvetica Neue&quot;, sans-serif; font-size: 12px; font-weight: 200;" x="0" y="25.42285701206748" dx="0em" dy="0.3em" fill="rgb(50, 49, 63)" stroke="none" stroke-width="1px">0.8</text><text style="text-anchor: end; visibility: hidden; font-family: &quot;Helvetica Neue&quot;, sans-serif; font-size: 12px; font-weight: 200;" x="0" y="0" dx="0em" dy="0.3em" fill="rgb(50, 49, 63)" stroke="none" stroke-width="1px">0.85</text></g><line x1="51.41600036621094" y1="0" x2="51.41600036621094" y2="177.95999908447266" fill="rgb(0, 0, 0)" stroke="rgb(204, 204, 204)" stroke-width="1px"></line></g></g><g transform="translate(51, 0)" clip-path="url(#clip_0)"><clipPath id="clip_0"><rect width="278" height="177"></rect></clipPath><g><g><g><line x1="0" y1="0" x2="0" y2="177.95999908447266" fill="rgb(0, 0, 0)" stroke="rgb(60, 60, 60)" stroke-width="1px" opacity="0.25"></line><line x1="23.215333302815754" y1="0" x2="23.215333302815754" y2="177.95999908447266" fill="rgb(0, 0, 0)" stroke="rgb(60, 60, 60)" stroke-width="1px" opacity="0.25"></line><line x1="46.43066660563151" y1="0" x2="46.43066660563151" y2="177.95999908447266" fill="rgb(0, 0, 0)" stroke="rgb(60, 60, 60)" stroke-width="1px" opacity="0.25"></line><line x1="69.64599990844727" y1="0" x2="69.64599990844727" y2="177.95999908447266" fill="rgb(0, 0, 0)" stroke="rgb(60, 60, 60)" stroke-width="1px" opacity="0.25"></line><line x1="92.86133321126302" y1="0" x2="92.86133321126302" y2="177.95999908447266" fill="rgb(0, 0, 0)" stroke="rgb(60, 60, 60)" stroke-width="1px" opacity="0.25"></line><line x1="116.07666651407878" y1="0" x2="116.07666651407878" y2="177.95999908447266" fill="rgb(0, 0, 0)" stroke="rgb(60, 60, 60)" stroke-width="1px" opacity="0.25"></line><line x1="139.29199981689453" y1="0" x2="139.29199981689453" y2="177.95999908447266" fill="rgb(0, 0, 0)" stroke="rgb(60, 60, 60)" stroke-width="1px" opacity="0.25"></line><line x1="162.5073331197103" y1="0" x2="162.5073331197103" y2="177.95999908447266" fill="rgb(0, 0, 0)" stroke="rgb(60, 60, 60)" stroke-width="1px" opacity="0.25"></line><line x1="185.72266642252603" y1="0" x2="185.72266642252603" y2="177.95999908447266" fill="rgb(0, 0, 0)" stroke="rgb(60, 60, 60)" stroke-width="1px" opacity="0.25"></line><line x1="208.9379997253418" y1="0" x2="208.9379997253418" y2="177.95999908447266" fill="rgb(0, 0, 0)" stroke="rgb(60, 60, 60)" stroke-width="1px" opacity="0.25"></line><line x1="232.15333302815756" y1="0" x2="232.15333302815756" y2="177.95999908447266" fill="rgb(0, 0, 0)" stroke="rgb(60, 60, 60)" stroke-width="1px" opacity="0.25"></line><line x1="255.3686663309733" y1="0" x2="255.3686663309733" y2="177.95999908447266" fill="rgb(0, 0, 0)" stroke="rgb(60, 60, 60)" stroke-width="1px" opacity="0.25"></line><line x1="278.58399963378906" y1="0" x2="278.58399963378906" y2="177.95999908447266" fill="rgb(0, 0, 0)" stroke="rgb(60, 60, 60)" stroke-width="1px" opacity="0.25"></line></g><g><line x1="0" y1="177.95999908447266" x2="278.58399963378906" y2="177.95999908447266" fill="rgb(0, 0, 0)" stroke="rgb(60, 60, 60)" stroke-width="1px" opacity="0.25"></line><line x1="0" y1="152.53714207240512" x2="278.58399963378906" y2="152.53714207240512" fill="rgb(0, 0, 0)" stroke="rgb(60, 60, 60)" stroke-width="1px" opacity="0.25"></line><line x1="0" y1="127.11428506033762" x2="278.58399963378906" y2="127.11428506033762" fill="rgb(0, 0, 0)" stroke="rgb(60, 60, 60)" stroke-width="1px" opacity="0.25"></line><line x1="0" y1="101.69142804827007" x2="278.58399963378906" y2="101.69142804827007" fill="rgb(0, 0, 0)" stroke="rgb(60, 60, 60)" stroke-width="1px" opacity="0.25"></line><line x1="0" y1="76.26857103620259" x2="278.58399963378906" y2="76.26857103620259" fill="rgb(0, 0, 0)" stroke="rgb(60, 60, 60)" stroke-width="1px" opacity="0.25"></line><line x1="0" y1="50.84571402413505" x2="278.58399963378906" y2="50.84571402413505" fill="rgb(0, 0, 0)" stroke="rgb(60, 60, 60)" stroke-width="1px" opacity="0.25"></line><line x1="0" y1="25.42285701206748" x2="278.58399963378906" y2="25.42285701206748" fill="rgb(0, 0, 0)" stroke="rgb(60, 60, 60)" stroke-width="1px" opacity="0.25"></line><line x1="0" y1="0" x2="278.58399963378906" y2="0" fill="rgb(0, 0, 0)" stroke="rgb(60, 60, 60)" stroke-width="1px" opacity="0.25"></line></g></g></g><g><g><line x1="0" y1="432.18856920514787" x2="278.58399963378906" y2="432.18856920514787" fill="rgb(0, 0, 0)" stroke="rgb(153, 153, 153)" stroke-width="1.5px"></line></g></g><g><g><line x1="23.215333302815754" y1="0" x2="23.215333302815754" y2="177.95999908447266" fill="rgb(0, 0, 0)" stroke="rgb(153, 153, 153)" stroke-width="1.5px"></line></g></g><g><g><g><g><g><path style="fill: none;" stroke="rgb(204, 51, 17)" stroke-width="2px" d="M29.019166628519695,190.09676552411108L30.179933293660483,176.00029241775974L31.34069995880127,165.17218231597514L32.50146662394206,155.58783311699224L33.66223328908285,159.57794368088764L34.82299995422363,148.83137733736777L35.983766619364424,140.08482503848597L37.14453328450521,133.42354699979364L38.305299949646,124.40485915429988L39.46606661478678,120.93122317869384L40.626833279927574,115.34891628633859L41.78759994506836,116.71981630527281L42.94836661020915,116.62689770166179L44.10913327534993,108.63873083921494L45.269899940490724,108.19870152276438L46.43066660563151,103.88728173691766L47.5914332707723,96.70397833836866L48.75219993591308,94.42789949357532L49.912966601053874,89.78778634476917L51.07373326619466,86.29189361022553L52.23449993133545,83.9706420506379L53.39526659647624,84.20494933787415L54.556033261617024,80.74566356020597L55.716799926757815,80.846288254956L56.8775665918986,80.64226989297347L58.03833325703939,83.81465070984088L59.199099922180174,79.90133336083399L60.359866587320965,75.88560572650977L61.52063325246175,73.86260021699029L62.68139991760254,72.79116432941369L63.842166582743324,68.83315762321247L65.00293324788412,68.59387644028371L66.1636999130249,66.35545612074677L67.3244665781657,64.0565156031303L68.48523324330647,65.30078909560143L69.64599990844727,63.30167755093743L70.80676657358805,67.7969300167258L71.96753323872885,66.12135183312522L73.12829990386963,64.01773709284474L74.28906656901042,63.853836079263374L75.4498332341512,63.3894061943561L76.610599899292,60.85319974383637L77.77136656443278,60.12466728612661L78.93213322957357,55.762261947340036L80.09289989471435,55.34135440460227L81.25366655985515,55.31253177711703L82.41443322499593,53.56647587441856L83.57519989013672,52.173094716586846L84.7359665552775,53.24886692518554L85.8967332204183,51.697794589863776L87.05749988555908,52.129812115564775L88.21826655069987,50.94500718453027L89.37903321584066,49.99007278978726L90.53979988098145,47.159551510868965L91.70056654612223,47.352710108844235L92.86133321126302,44.39752367506509L94.02209987640381,42.36000659558124L95.1828665415446,41.21885086745266L96.34363320668538,40.2494226733908L97.50439987182617,40.23723527132316L98.66516653696696,40.270606151144875L99.82593320210775,40.22960369744442L100.98669986724853,39.63553271085473L102.14746653238932,39.31977343996323L103.30823319753011,39.13031787742827L104.4689998626709,39.42340501515318L105.62976652781168,38.86707874429533L106.79053319295248,38.675650360372856L107.95129985809326,38.845528087204144L109.11206652323405,38.25595949087224L110.27283318837483,38.349662129381386L111.43359985351563,38.71094800763984L112.59436651865641,38.41926287925611L113.7551331837972,38.38661918081823L114.91589984893798,38.73312223850195L116.07666651407878,38.22918718015043L117.23743317921956,38.51663732004005L118.39819984436035,38.3637014482897L119.55896650950113,38.638029201986L120.71973317464193,38.273827538333734L121.88049983978271,37.97395202058067L123.0412665049235,38.26181216676818L124.2020331700643,38.27181921535714L125.36279983520508,37.891392507232894L126.52356650034586,37.50042744323483L127.68433316548665,37.75397552220656L128.84509983062745,37.560344630811414L130.00586649576823,37.9933060723755L131.16663316090902,38.3140957963445L132.3273998260498,38.46589843222651L133.4881664911906,37.601079562108595L134.6489331563314,37.30591013819196L135.80969982147215,37.10846682331086L136.97046648661293,37.274735591566895L138.13123315175375,37.598218750674704L139.29199981689453,37.080471753177505L140.45276648203532,36.85117807424095L141.6135331471761,36.77461472590963L142.77429981231688,36.76934791541032L143.9350664774577,36.74584616857953L145.09583314259848,36.731745120481065L146.25659980773926,36.39787853593779L147.41736647288005,36.23822978371129L148.57813313802083,36.345832892561276L149.73889980316162,36.207002397685386L150.8996664683024,36.28641313988342L152.06043313344318,36.70014886194866L153.221199798584,37.05008647528072L154.38196646372478,36.975314286095255L155.54273312886556,37.215185729768706L156.70349979400635,36.97267765869515L157.86426645914713,36.705147097989794L159.02503312428792,36.666654479627766L160.1857997894287,36.50119153001822L161.3465664545695,36.25954638166007L162.5073331197103,36.39929404982993L163.66809978485108,36.584838830824765L164.82886644999186,36.35040596064351L165.98963311513265,36.636848374311796L167.15039978027343,36.97142286163631L168.31116644541422,36.54168518063099L169.471933110555,36.1618168539666L170.6326997756958,36.035579915497976L171.7934664408366,35.77679917532501L172.95423310597738,35.784227647781876L174.11499977111816,35.87003925081777L175.27576643625895,36.287615489385786L176.43653310139973,36.3754643159659L177.59729976654052,36.34681909235229L178.75806643168133,36.004213879937026L179.9188330968221,35.534257655834324L181.0795997619629,35.84209509627331L182.24036642710368,35.68103782175848L183.40113309224446,35.767454156704275L184.56189975738525,35.615923720048784L185.72266642252603,36.01312045286318L186.88343308766682,35.98704539589829L188.04419975280763,35.9510587011882L189.2049664179484,35.84811216480037L190.3657330830892,35.68464806287474L191.52649974822998,35.810291499873415L192.68726641337076,35.76365184401149L193.84803307851155,35.756009711025484L195.00879974365233,35.832778950795614L196.16956640879314,35.268687659225975L197.33033307393393,35.113271461375916L198.4910997390747,34.57259006892059L199.6518664042155,35.22441122306276L200.81263306935628,35.432465338456296L201.97339973449706,35.57762734566063L203.13416639963785,35.68506621051441L204.29493306477863,35.607162150834284L205.45569972991944,35.98752185080329L206.61646639506023,35.46322957932347L207.777233060201,35.96217516692744L208.9379997253418,36.22087132099037L210.09876639048258,35.745606640028114L211.25953305562336,35.25705547126486L212.42029972076415,35.269001187722836L213.58106638590496,35.31685193865994L214.74183305104575,35.203195010629855L215.90259971618653,34.850253974064174L217.0633663813273,35.004578628871286L218.2241330464681,34.995489364225506L219.38489971160888,35.091719862968006L220.54566637674967,35.41386338142999L221.70643304189045,35.322414735322525L222.86719970703126,35.165849367565016L224.02796637217205,34.909201107787055L225.18873303731283,34.9789340500744L226.3494997024536,34.71569739773091L227.5102663675944,34.63910992588657L228.67103303273518,34.81687934093404L229.83179969787597,34.964224311024964L230.99256636301678,35.23566987017125L232.15333302815756,35.032447928912546L233.31409969329835,35.23593284240434L234.47486635843913,35.276669270937674L235.6356330235799,34.89433853024889L236.7963996887207,34.82764912495915L237.95716635386148,35.07237023896997L239.11793301900227,35.09717718931532L240.27869968414308,34.88833946136839L241.43946634928386,34.76303682460022L242.60023301442465,34.62684238350877L243.76099967956543,34.707834757977395L244.9217663447062,34.675075663096834L246.082533009847,34.757104263698494L247.24329967498778,35.09106830380708L248.4040663401286,34.80331961050166L249.56483300526938,34.93574681223433L250.72559967041016,34.73046837608922L251.88636633555095,34.42425061474745L253.04713300069173,34.545596375658306L254.2078996658325,34.57773263370535" fill="none"></path></g><g><path style="fill: none;" stroke="rgb(0, 119, 187)" stroke-width="2px" d="M30.179933293660483,183.73934640147638L31.34069995880127,174.71476472754924L32.50146662394206,166.3265761829509L33.66223328908285,158.38739082034064L34.82299995422363,151.30579889940384L35.983766619364424,144.8542694988727L37.14453328450521,139.12980859543987L38.305299949646,134.02573151799558L39.46606661478678,128.52253448847804L40.626833279927574,124.7418412745267L41.78759994506836,120.57705440435349L42.94836661020915,117.07317087903817L44.10913327534993,113.57896192086673L45.269899940490724,110.4201853027188L46.43066660563151,107.21434573096184L47.5914332707723,104.96933178431121L48.75219993591308,101.56684857645996L49.912966601053874,98.62584105236843L51.07373326619466,96.43386328694925L52.23449993133545,94.08890350957572L53.39526659647624,91.63994636600412L54.556033261617024,89.48269055289776L55.716799926757815,87.96854364411753L56.8775665918986,86.06691467149784L58.03833325703939,83.73335602926151L59.199099922180174,82.74430930493622L60.359866587320965,81.14553288703152L61.52063325246175,80.12114467543293L62.68139991760254,78.37904066363174L63.842166582743324,76.66218828462712L65.00293324788412,75.17213470706223L66.1636999130249,73.85073373267753L67.3244665781657,72.6142315935123L68.48523324330647,71.12747155650356L69.64599990844727,69.42543437279303L70.80676657358805,68.16813727358664L71.96753323872885,67.43003961641745L73.12829990386963,66.35221330047254L74.28906656901042,64.65946155904865L75.4498332341512,63.916519689120776L76.610599899292,63.15327676762841L77.77136656443278,62.170266448239886L78.93213322957357,61.792108082138455L80.09289989471435,60.87734247634904L81.25366655985515,59.63246616448782L82.41443322499593,58.25871901796614L83.57519989013672,57.01930931872553L84.7359665552775,56.352993327864695L85.8967332204183,55.22462558103382L87.05749988555908,54.311530143195526L88.21826655069987,53.661916087585425L89.37903321584066,52.99537742085408L90.53979988098145,52.705345253422536L91.70056654612223,51.32246398146924L92.86133321126302,48.48202632437517L94.02209987640381,47.00163109902752L95.1828665415446,45.543548649999934L96.34363320668538,44.35936774329278L97.50439987182617,43.63256647474287L98.66516653696696,43.01332591089226L99.82593320210775,43.321517919008215L100.98669986724853,43.07499111058573L102.14746653238932,42.93113608410073L103.30823319753011,42.494784064730936L104.4689998626709,42.114935458239046L105.62976652781168,42.25741908091669L106.79053319295248,42.44873922856206L107.95129985809326,42.42921332031662L109.11206652323405,42.12036163634707L110.27283318837483,42.03680741887271L111.43359985351563,41.709904655022854L112.59436651865641,41.74983778645296L113.7551331837972,41.265013700774205L114.91589984893798,41.65791665436171L116.07666651407878,41.64944939707425L117.23743317921956,41.45713605884967L118.39819984436035,41.30104048972683L119.55896650950113,41.052723490889264L120.71973317464193,41.001416903362696L121.88049983978271,41.38172118104478L123.0412665049235,41.36569471821409L124.2020331700643,41.1851264586262L125.36279983520508,41.25994530559419L126.52356650034586,40.92630958750232L127.68433316548665,40.85229979121709L128.84509983062745,40.502623534723824L130.00586649576823,40.41492835682931L131.16663316090902,40.0407602694078L132.3273998260498,40.25177461137835L133.4881664911906,40.23593098002806L134.6489331563314,40.21420525782378L135.80969982147215,40.08720561076254L136.97046648661293,39.90517584848692L138.13123315175375,39.531395178587644L139.29199981689453,39.84847194511019L140.45276648203532,39.98987619913581L141.6135331471761,39.87120516573637L142.77429981231688,39.270864798065816L143.9350664774577,39.740995522685125L145.09583314259848,39.880621720924125L146.25659980773926,39.72017628786466L147.41736647288005,39.39190741942028L148.57813313802083,39.9153778884052L149.73889980316162,39.325868577023925L150.8996664683024,39.224518381897894L152.06043313344318,39.07008571161481L153.221199798584,38.99370671140758L154.38196646372478,38.7036702818433L155.54273312886556,38.643612637843376L156.70349979400635,38.37963750140321L157.86426645914713,38.59979156837471L159.02503312428792,38.959812436034895L160.1857997894287,39.220605703950554L161.3465664545695,38.615942308460234L162.5073331197103,38.387462267998785L163.66809978485108,39.0115135999616L164.82886644999186,38.62887822403101L165.98963311513265,38.35045519258463L167.15039978027343,38.34620739334352L168.31116644541422,38.3884273385554L169.471933110555,38.49110125692738L170.6326997756958,38.41838761111782L171.7934664408366,38.1997338606113L172.95423310597738,37.84060106026715L174.11499977111816,38.264162282861776L175.27576643625895,38.261870443584456L176.43653310139973,38.17094596794195L177.59729976654052,37.87218225311642L178.75806643168133,37.36729986240496L179.9188330968221,38.15926818573382L181.0795997619629,38.01983524115548L182.24036642710368,37.74488143198789L183.40113309224446,38.023570703173505L184.56189975738525,37.999478100901484L185.72266642252603,37.56578794707744L186.88343308766682,37.305573854783006L188.04419975280763,37.10873783321824L189.2049664179484,37.5726889549297L190.3657330830892,37.36669050508223L191.52649974822998,37.72338737691666L192.68726641337076,37.98624730590535L193.84803307851155,37.28514029528293L195.00879974365233,37.19010025072566L196.16956640879314,36.99874610459574L197.33033307393393,37.31131457164133L198.4910997390747,37.38081825699862L199.6518664042155,37.292275652511734L200.81263306935628,37.145527536612036L201.97339973449706,37.06155184820366L203.13416639963785,37.44262057101355L204.29493306477863,37.32935704092063L205.45569972991944,37.00904353116215L206.61646639506023,36.95117342213976L207.777233060201,36.704791408648845L208.9379997253418,36.61395036870499L210.09876639048258,36.6489951168148L211.25953305562336,36.828754804175986L212.42029972076415,37.08314815681953L213.58106638590496,36.930513789683516L214.74183305104575,36.757530159588555L215.90259971618653,36.99970580387895L217.0633663813273,36.97405880856377L218.2241330464681,36.69410779884066L219.38489971160888,36.39181919617408L220.54566637674967,36.83726739398105L221.70643304189045,36.99870633862645L222.86719970703126,36.794372507823L224.02796637217205,36.89970063681821L225.18873303731283,36.99953189927203L226.3494997024536,37.16118744965172L227.5102663675944,36.75346999647405L228.67103303273518,36.96063532095357L229.83179969787597,36.34822212362707L230.99256636301678,36.530253613393256L232.15333302815756,36.049285532902815L233.31409969329835,36.19215882046345L234.47486635843913,35.760952466200195L235.6356330235799,36.44652781260254L236.7963996887207,36.81310439568736L237.95716635386148,36.70742618372208L239.11793301900227,36.72136120778774L240.27869968414308,36.64017285015106L241.43946634928386,36.29839687767813L242.60023301442465,36.22358823245864L243.76099967956543,35.6129309126392L244.9217663447062,35.30759787002975L246.082533009847,35.478510229074146L247.24329967498778,35.19437213340248L248.4040663401286,35.47569719494851L249.56483300526938,35.424698044098704L250.72559967041016,35.5650509354783L251.88636633555095,35.52307891317318L253.04713300069173,35.188552139936576L254.2078996658325,35.83039056461047" fill="none"></path></g></g></g></g><g opacity="0.2"><g><g><g><path style="fill: none;" stroke="rgb(204, 51, 17)" stroke-width="2px" d="M29.019166628519695,184.0106429810551L30.179933293660483,155.84211033210755L31.34069995880127,149.3846938377163L32.50146662394206,141.4527797124808L33.66223328908285,165.50279284482687L34.82299995422363,132.80899838787627L35.983766619364424,127.01259494152613L37.14453328450521,123.45338017030996L38.305299949646,110.89449593441557L39.46606661478678,115.72485234397884L40.626833279927574,106.97939302312572L41.78759994506836,118.77558621473041L42.94836661020915,116.48754338826853L44.10913327534993,96.6576974623653L45.269899940490724,107.53869776851103L46.43066660563151,97.420388506655L47.5914332707723,85.92925961020332L48.75219993591308,91.01382616359166L49.912966601053874,82.82767158812385L51.07373326619466,81.04807935571937L52.23449993133545,80.48877461033408L53.39526659647624,84.5564096692004L54.556033261617024,75.55674020452221L55.716799926757815,80.99722520439147L56.8775665918986,80.33624246275758L58.03833325703939,88.57322088314608L59.199099922180174,74.03135811594282L60.359866587320965,69.86201475442067L61.52063325246175,70.82809209761476L62.68139991760254,71.18401054409566L63.842166582743324,62.89614766597202L65.00293324788412,68.23495466959268L66.1636999130249,62.997825662220606L67.3244665781657,60.60810483951015L68.48523324330647,67.16719933015L69.64599990844727,60.30301023794995L70.80676657358805,74.53980871000022L71.96753323872885,63.60798455893382L73.12829990386963,60.86231498333524L74.28906656901042,63.60798455893382L75.4498332341512,62.69276136706762L76.610599899292,57.048890068293986L77.77136656443278,59.031868599602845L78.93213322957357,49.218653939307046L80.09289989471435,54.70999309050421L81.25366655985515,55.2692978358895L82.41443322499593,50.94739202038363L83.57519989013672,50.08302297984534L84.7359665552775,54.86252523808071L85.8967332204183,49.37118608688354L87.05749988555908,52.777838404116L88.21826655069987,49.16779978797916L89.37903321584066,48.55767119767319L90.53979988098145,42.913769592492315L91.70056654612223,47.64244800580698L92.86133321126302,39.964744024396566L94.02209987640381,39.30373097635544L95.1828665415446,39.507117275259844L96.34363320668538,38.795280382298046L97.50439987182617,40.21895416822164L98.66516653696696,40.32066247087744L99.82593320210775,40.16810001689373L100.98669986724853,38.744426230970134L102.14746653238932,38.84613453362596L103.30823319753011,38.84613453362596L104.4689998626709,39.863035721740744L105.62976652781168,38.032589338008364L106.79053319295248,38.38850778448926L107.95129985809326,39.100344677451034L109.11206652323405,37.37160659637448L110.27283318837483,38.49021608714506L111.43359985351563,39.25287682502753L112.59436651865641,37.98173518668045L113.7551331837972,38.33765363316135L114.91589984893798,39.25287682502753L116.07666651407878,37.47328459262306L117.23743317921956,38.94781252987454L118.39819984436035,38.13429764066416L119.55896650950113,39.04952083253036L120.71973317464193,37.727525042855376L121.88049983978271,37.52413874395097L123.0412665049235,38.69360238604946L124.2020331700643,38.28682978824065L125.36279983520508,37.320752445046566L126.52356650034586,36.913979847237755L127.68433316548665,38.13429764066416L128.84509983062745,37.269898293718654L130.00586649576823,38.64274823472155L131.16663316090902,38.795280382298046L132.3273998260498,38.69360238604946L133.4881664911906,36.30385125693178L134.6489331563314,36.86315600231708L135.80969982147215,36.81230185098917L136.97046648661293,37.52413874395097L138.13123315175375,38.083443489336275L139.29199981689453,36.30385125693178L140.45276648203532,36.507237555836184L141.6135331471761,36.65976970341268L142.77429981231688,36.76144769966126L143.9350664774577,36.71059354833335L145.09583314259848,36.71059354833335L146.25659980773926,35.897078659123L147.41736647288005,35.99875665537158L148.57813313802083,36.507237555836184L149.73889980316162,35.99875665537158L150.8996664683024,36.40552925318036L152.06043313344318,37.320752445046566L153.221199798584,37.57499289527888L154.38196646372478,36.86315600231708L155.54273312886556,37.57499289527888L156.70349979400635,36.60891555208477L157.86426645914713,36.30385125693178L159.02503312428792,36.60891555208477L160.1857997894287,36.25299710560387L161.3465664545695,35.897078659123L162.5073331197103,36.60891555208477L163.66809978485108,36.86315600231708L164.82886644999186,35.99875665537158L165.98963311513265,37.06651199481425L167.15039978027343,37.47328459262306L168.31116644541422,35.897078659123L169.471933110555,35.59201436397001L170.6326997756958,35.846224507795085L171.7934664408366,35.3886280650656L172.95423310597738,35.795370356467174L174.11499977111816,35.99875665537158L175.27576643625895,36.913979847237755L176.43653310139973,36.507237555836184L177.59729976654052,36.30385125693178L178.75806643168133,35.490306061314186L179.9188330968221,34.8293233196803L181.0795997619629,36.30385125693178L182.24036642710368,35.439451909986275L183.40113309224446,35.897078659123L184.56189975738525,35.3886280650656L185.72266642252603,36.60891555208477L186.88343308766682,35.94793281045088L188.04419975280763,35.897078659123L189.2049664179484,35.69369236021859L190.3657330830892,35.439451909986275L191.52649974822998,35.99875665537158L192.68726641337076,35.69369236021859L193.84803307851155,35.7445465115465L195.00879974365233,35.94793281045088L196.16956640879314,34.42255072187149L197.33033307393393,34.88014716460097L198.4910997390747,33.7615679802376L199.6518664042155,36.202142954275985L200.81263306935628,35.7445465115465L201.97339973449706,35.795370356467174L203.13416639963785,35.846224507795085L204.29493306477863,35.490306061314186L205.45569972991944,36.558061400756856L206.61646639506023,34.676791172103805L207.777233060201,36.71059354833335L208.9379997253418,36.60891555208477L210.09876639048258,35.032709618584704L211.25953305562336,34.52422871812007L212.42029972076415,35.28691976240978L213.58106638590496,35.3886280650656L214.74183305104575,35.032709618584704L215.90259971618653,34.320842419215694L217.0633663813273,35.23606561108187L218.2241330464681,34.98185546725679L219.38489971160888,35.23606561108187L220.54566637674967,35.897078659123L221.70643304189045,35.1852417661612L222.86719970703126,34.93100131592888L224.02796637217205,34.52422871812007L225.18873303731283,35.083533463505375L226.3494997024536,34.320842419215694L227.5102663675944,34.52422871812007L228.67103303273518,35.083533463505375L229.83179969787597,35.1852417661612L230.99256636301678,35.64283820889068L232.15333302815756,34.727615017024476L233.31409969329835,35.5411602126421L234.47486635843913,35.33777391373769L235.6356330235799,34.320842419215694L236.7963996887207,34.727615017024476L237.95716635386148,35.439451909986275L239.11793301900227,35.13438761483329L240.27869968414308,34.57508286944798L241.43946634928386,34.57508286944798L242.60023301442465,34.42255072187149L243.76099967956543,34.8293233196803L244.9217663447062,34.62593702077589L246.082533009847,34.88014716460097L247.24329967498778,35.59201436397001L248.4040663401286,34.37169657054358L249.56483300526938,35.13438761483329L250.72559967041016,34.42255072187149L251.88636633555095,33.964923972734795L253.04713300069173,34.727615017024476L254.2078996658325,34.62593702077589" fill="none"></path></g><g><path style="fill: none;" stroke="rgb(0, 119, 187)" stroke-width="2px" d="M27.858399963378908,187.29106911218463L29.019166628519695,177.00349856596247L30.179933293660483,168.36435412166378L31.34069995880127,161.55683801097933L32.50146662394206,153.95562740141133L33.66223328908285,146.59862582128335L34.82299995422363,140.74764053551633L35.983766619364424,135.2120843361741L37.14453328450521,130.5618085983572L38.305299949646,126.37961532017054L39.46606661478678,120.27420774572784L40.626833279927574,119.07346789137046L41.78759994506836,114.33163649731898L42.94836661020915,111.81823522671272L44.10913327534993,108.33818079117502L45.269899940490724,105.68230910019182L46.43066660563151,102.40576218918743L47.5914332707723,101.60188473747543L48.75219993591308,96.46319094077859L49.912966601053874,94.21436460526924L51.07373326619466,93.14591221846032L52.23449993133545,90.57147384369766L53.39526659647624,87.96651691685682L54.556033261617024,86.24681014513408L55.716799926757815,85.69732467569051L56.8775665918986,83.21447226356966L58.03833325703939,80.23301883974038L59.199099922180174,81.2607394152354L60.359866587320965,78.74736845103637L61.52063325246175,78.58456243140972L62.68139991760254,75.76588472079986L63.842166582743324,74.08690976039101L65.00293324788412,72.93705436376877L66.1636999130249,71.86863228336708L67.3244665781657,70.75947839165148L68.48523324330647,68.89733150595904L69.64599990844727,66.87237860063993L70.80676657358805,66.28219162628972L71.96753323872885,66.32289313119638L73.12829990386963,64.7354738270221L74.28906656901042,62.120333947352776L75.4498332341512,62.80210688434478L76.610599899292,62.00841238546127L77.77136656443278,60.69575096921237L78.93213322957357,61.22487053299898L80.09289989471435,59.50519406768346L81.25366655985515,57.76515169671099L82.41443322499593,56.198098298193656L83.57519989013672,55.16019476987016L84.7359665552775,55.353519341574994L85.8967332204183,53.532073960789205L87.05749988555908,52.94188698643899L88.21826655069987,52.68749500417054L89.37903321584066,51.99556942075728L90.53979988098145,52.27029700227544L91.70056654612223,49.2481420735395L92.86133321126302,44.22136983873418L94.02209987640381,44.781038261006216L95.1828665415446,43.356424976458584L96.34363320668538,42.583096383232004L97.50439987182617,42.542364571918114L98.66516653696696,42.08446506511635L99.82593320210775,43.783805931182144L100.98669986724853,42.70520089795198L102.14746653238932,42.715353544373215L103.30823319753011,41.84025603567636L104.4689998626709,41.54516254850125L105.62976652781168,42.47114451493326L106.79053319295248,42.73571945003016L107.95129985809326,42.3999244579484L109.11206652323405,41.65708411039279L110.27283318837483,41.91147609266122L111.43359985351563,41.219550509247966L112.59436651865641,41.809737483598184L113.7551331837972,40.53777757225595L114.91589984893798,42.247271084743005L116.07666651407878,41.636748511143054L117.23743317921956,41.168666051512844L118.39819984436035,41.06689713604257L119.55896650950113,40.68024799263287L120.71973317464193,40.92445702207286L121.88049983978271,41.952177597567896L123.0412665049235,41.341655023967945L124.2020331700643,40.914274069244385L125.36279983520508,41.37217357604615L126.52356650034586,40.42585601036444L127.68433316548665,40.741285096789255L128.84509983062745,39.978109149983936L130.00586649576823,40.28338558998752L131.16663316090902,39.47950813827549L132.3273998260498,40.568296124334154L133.4881664911906,40.21216553300266L134.6489331563314,40.181616674517244L135.80969982147215,39.89670614017061L136.97046648661293,39.63213120507368L138.13123315175375,38.9707241737386L139.29199981689453,40.32408709489417L140.45276648203532,40.20198258017419L141.6135331471761,39.6931986156373L142.77429981231688,38.37035424655991L143.9350664774577,40.44619160961415L145.09583314259848,40.090061018282654L146.25659980773926,39.47950813827549L147.41736647288005,38.89950411675375L148.57813313802083,40.700583591882605L149.73889980316162,38.44160460995201L150.8996664683024,39.072493089208876L152.06043313344318,38.83843670619015L153.221199798584,38.8791382110968L154.38196646372478,38.26861563749688L155.54273312886556,38.553526171843515L156.70349979400635,37.983674796743L157.86426645914713,38.93002266883195L159.02503312428792,39.499843737525225L160.1857997894287,39.61179560582397L161.3465664545695,37.70894721522484L162.5073331197103,38.044742207306626L163.66809978485108,39.94759059790573L164.82886644999186,38.0549251601351L165.98963311513265,37.93282064541512L167.15039978027343,38.339835694481735L168.31116644541422,38.45175725637324L169.471933110555,38.645112134485316L170.6326997756958,38.30931714240353L171.7934664408366,37.8717532348515L172.95423310597738,37.30190185975101L174.11499977111816,38.89950411675375L175.27576643625895,38.258432684668406L176.43653310139973,38.034559254478154L177.59729976654052,37.4240366808782L178.75806643168133,36.60997627633773L179.9188330968221,39.34722067072704L181.0795997619629,37.8106858242879L182.24036642710368,37.33245071823643L183.40113309224446,38.44160460995201L184.56189975738525,37.9633391974933L185.72266642252603,36.915252716341314L186.88343308766682,36.915252716341314L188.04419975280763,36.81348380087104L189.2049664179484,38.26861563749688L190.3657330830892,37.05769283031103L191.52649974822998,38.258432684668406L192.68726641337076,38.380537199388385L193.84803307851155,36.233479779349295L195.00879974365233,37.047540183889794L196.16956640879314,36.711714885400795L197.33033307393393,37.780167272209695L198.4910997390747,37.48507378503459L199.6518664042155,37.1594617457813L200.81263306935628,36.925405362762575L201.97339973449706,36.93558831559105L203.13416639963785,38.01422365522842L204.29493306477863,37.1594617457813L205.45569972991944,36.528573266524404L206.61646639506023,36.86436825860619L207.777233060201,36.33521838841236L208.9379997253418,36.47768880878928L210.09876639048258,36.701562238979534L211.25953305562336,37.09839433521768L212.42029972076415,37.46473818578488L213.58106638590496,36.701562238979534L214.74183305104575,36.498054714446226L215.90259971618653,37.36296927031461L217.0633663813273,36.93558831559105L218.2241330464681,36.274181284255974L219.38489971160888,35.93838629217419L220.54566637674967,37.50543969069153L221.70643304189045,37.24086475559463L222.86719970703126,36.487871761617754L224.02796637217205,37.05769283031103L225.18873303731283,37.14927879295283L226.3494997024536,37.40367077522126L227.5102663675944,36.14189381670752L228.67103303273518,37.27138330767281L229.83179969787597,35.4296023276373L230.99256636301678,36.80330084804257L232.15333302815756,35.327833412167024L233.31409969329835,36.406468751804425L234.47486635843913,35.114142934805244L235.6356330235799,37.474890832206114L236.7963996887207,37.36296927031461L237.95716635386148,36.54890886577414L239.11793301900227,36.74226374388621L240.27869968414308,36.51839031369593L241.43946634928386,35.78573291896879L242.60023301442465,36.11137526462932L243.76099967956543,34.69694493291016L244.9217663447062,34.84959830611555L246.082533009847,35.73487876764088L247.24329967498778,34.76816498989501L248.4040663401286,35.897684787267536L249.56483300526938,35.34819931782397L250.72559967041016,35.77558027254756L251.88636633555095,35.460120879715504L253.04713300069173,34.686761980081684L254.2078996658325,36.793148201621335" fill="none"></path></g></g></g></g></g></g><g transform="translate(51, 177)" clip-path="url(#clip_1)"><clipPath id="clip_1"><rect width="278" height="22"></rect></clipPath><g><g><line x1="0" y1="0" x2="0" y2="5" style="visibility: inherit;" fill="rgb(0, 0, 0)" stroke="rgb(204, 204, 204)" stroke-width="1px"></line><line x1="23.215333302815754" y1="0" x2="23.215333302815754" y2="5" style="visibility: inherit;" fill="rgb(0, 0, 0)" stroke="rgb(204, 204, 204)" stroke-width="1px"></line><line x1="46.43066660563151" y1="0" x2="46.43066660563151" y2="5" style="visibility: inherit;" fill="rgb(0, 0, 0)" stroke="rgb(204, 204, 204)" stroke-width="1px"></line><line x1="69.64599990844727" y1="0" x2="69.64599990844727" y2="5" style="visibility: inherit;" fill="rgb(0, 0, 0)" stroke="rgb(204, 204, 204)" stroke-width="1px"></line><line x1="92.86133321126302" y1="0" x2="92.86133321126302" y2="5" style="visibility: inherit;" fill="rgb(0, 0, 0)" stroke="rgb(204, 204, 204)" stroke-width="1px"></line><line x1="116.07666651407878" y1="0" x2="116.07666651407878" y2="5" style="visibility: inherit;" fill="rgb(0, 0, 0)" stroke="rgb(204, 204, 204)" stroke-width="1px"></line><line x1="139.29199981689453" y1="0" x2="139.29199981689453" y2="5" style="visibility: inherit;" fill="rgb(0, 0, 0)" stroke="rgb(204, 204, 204)" stroke-width="1px"></line><line x1="162.5073331197103" y1="0" x2="162.5073331197103" y2="5" style="visibility: inherit;" fill="rgb(0, 0, 0)" stroke="rgb(204, 204, 204)" stroke-width="1px"></line><line x1="185.72266642252603" y1="0" x2="185.72266642252603" y2="5" style="visibility: inherit;" fill="rgb(0, 0, 0)" stroke="rgb(204, 204, 204)" stroke-width="1px"></line><line x1="208.9379997253418" y1="0" x2="208.9379997253418" y2="5" style="visibility: inherit;" fill="rgb(0, 0, 0)" stroke="rgb(204, 204, 204)" stroke-width="1px"></line><line x1="232.15333302815756" y1="0" x2="232.15333302815756" y2="5" style="visibility: inherit;" fill="rgb(0, 0, 0)" stroke="rgb(204, 204, 204)" stroke-width="1px"></line><line x1="255.3686663309733" y1="0" x2="255.3686663309733" y2="5" style="visibility: inherit;" fill="rgb(0, 0, 0)" stroke="rgb(204, 204, 204)" stroke-width="1px"></line><line x1="278.58399963378906" y1="0" x2="278.58399963378906" y2="5" style="visibility: inherit;" fill="rgb(0, 0, 0)" stroke="rgb(204, 204, 204)" stroke-width="1px"></line></g><g transform="translate(0, 8)"><text style="text-anchor: middle; visibility: hidden; font-family: &quot;Helvetica Neue&quot;, sans-serif; font-size: 12px; font-weight: 200;" x="0" y="0" dx="0em" dy="0.95em" fill="rgb(50, 49, 63)" stroke="none" stroke-width="1px">-20</text><text style="text-anchor: middle; visibility: inherit; font-family: &quot;Helvetica Neue&quot;, sans-serif; font-size: 12px; font-weight: 200;" x="23.215333302815754" y="0" dx="0em" dy="0.95em" fill="rgb(50, 49, 63)" stroke="none" stroke-width="1px">0</text><text style="text-anchor: middle; visibility: hidden; font-family: &quot;Helvetica Neue&quot;, sans-serif; font-size: 12px; font-weight: 200;" x="46.43066660563151" y="0" dx="0em" dy="0.95em" fill="rgb(50, 49, 63)" stroke="none" stroke-width="1px">20</text><text style="text-anchor: middle; visibility: inherit; font-family: &quot;Helvetica Neue&quot;, sans-serif; font-size: 12px; font-weight: 200;" x="69.64599990844727" y="0" dx="0em" dy="0.95em" fill="rgb(50, 49, 63)" stroke="none" stroke-width="1px">40</text><text style="text-anchor: middle; visibility: hidden; font-family: &quot;Helvetica Neue&quot;, sans-serif; font-size: 12px; font-weight: 200;" x="92.86133321126302" y="0" dx="0em" dy="0.95em" fill="rgb(50, 49, 63)" stroke="none" stroke-width="1px">60</text><text style="text-anchor: middle; visibility: inherit; font-family: &quot;Helvetica Neue&quot;, sans-serif; font-size: 12px; font-weight: 200;" x="116.07666651407878" y="0" dx="0em" dy="0.95em" fill="rgb(50, 49, 63)" stroke="none" stroke-width="1px">80</text><text style="text-anchor: middle; visibility: hidden; font-family: &quot;Helvetica Neue&quot;, sans-serif; font-size: 12px; font-weight: 200;" x="139.29199981689453" y="0" dx="0em" dy="0.95em" fill="rgb(50, 49, 63)" stroke="none" stroke-width="1px">100</text><text style="text-anchor: middle; visibility: inherit; font-family: &quot;Helvetica Neue&quot;, sans-serif; font-size: 12px; font-weight: 200;" x="162.5073331197103" y="0" dx="0em" dy="0.95em" fill="rgb(50, 49, 63)" stroke="none" stroke-width="1px">120</text><text style="text-anchor: middle; visibility: hidden; font-family: &quot;Helvetica Neue&quot;, sans-serif; font-size: 12px; font-weight: 200;" x="185.72266642252603" y="0" dx="0em" dy="0.95em" fill="rgb(50, 49, 63)" stroke="none" stroke-width="1px">140</text><text style="text-anchor: middle; visibility: inherit; font-family: &quot;Helvetica Neue&quot;, sans-serif; font-size: 12px; font-weight: 200;" x="208.9379997253418" y="0" dx="0em" dy="0.95em" fill="rgb(50, 49, 63)" stroke="none" stroke-width="1px">160</text><text style="text-anchor: middle; visibility: hidden; font-family: &quot;Helvetica Neue&quot;, sans-serif; font-size: 12px; font-weight: 200;" x="232.15333302815756" y="0" dx="0em" dy="0.95em" fill="rgb(50, 49, 63)" stroke="none" stroke-width="1px">180</text><text style="text-anchor: middle; visibility: inherit; font-family: &quot;Helvetica Neue&quot;, sans-serif; font-size: 12px; font-weight: 200;" x="255.3686663309733" y="0" dx="0em" dy="0.95em" fill="rgb(50, 49, 63)" stroke="none" stroke-width="1px">200</text><text style="text-anchor: middle; visibility: hidden; font-family: &quot;Helvetica Neue&quot;, sans-serif; font-size: 12px; font-weight: 200;" x="278.58399963378906" y="0" dx="0em" dy="0.95em" fill="rgb(50, 49, 63)" stroke="none" stroke-width="1px">220</text></g><line x1="0" y1="0" x2="278.58399963378906" y2="0" fill="rgb(0, 0, 0)" stroke="rgb(204, 204, 204)" stroke-width="1px"></line></g></g></g></g></svg>