<svg viewBox="0 0 330 200" xmlns="http://www.w3.org/2000/svg"><g><g><g><g><g><line x1="51.41600036621094" y1="177.95999908447266" x2="46.41600036621094" y2="177.95999908447266" style="visibility: inherit;" fill="rgb(0, 0, 0)" stroke="rgb(204, 204, 204)" stroke-width="1px"></line><line x1="51.41600036621094" y1="164.27076838566708" x2="46.41600036621094" y2="164.27076838566708" style="visibility: inherit;" fill="rgb(0, 0, 0)" stroke="rgb(204, 204, 204)" stroke-width="1px"></line><line x1="51.41600036621094" y1="150.58153768686148" x2="46.41600036621094" y2="150.58153768686148" style="visibility: inherit;" fill="rgb(0, 0, 0)" stroke="rgb(204, 204, 204)" stroke-width="1px"></line><line x1="51.41600036621094" y1="136.89230698805588" x2="46.41600036621094" y2="136.89230698805588" style="visibility: inherit;" fill="rgb(0, 0, 0)" stroke="rgb(204, 204, 204)" stroke-width="1px"></line><line x1="51.41600036621094" y1="123.20307628925032" x2="46.41600036621094" y2="123.20307628925032" style="visibility: inherit;" fill="rgb(0, 0, 0)" stroke="rgb(204, 204, 204)" stroke-width="1px"></line><line x1="51.41600036621094" y1="109.51384559044472" x2="46.41600036621094" y2="109.51384559044472" style="visibility: inherit;" fill="rgb(0, 0, 0)" stroke="rgb(204, 204, 204)" stroke-width="1px"></line><line x1="51.41600036621094" y1="95.82461489163911" x2="46.41600036621094" y2="95.82461489163911" style="visibility: inherit;" fill="rgb(0, 0, 0)" stroke="rgb(204, 204, 204)" stroke-width="1px"></line><line x1="51.41600036621094" y1="82.13538419283354" x2="46.41600036621094" y2="82.13538419283354" style="visibility: inherit;" fill="rgb(0, 0, 0)" stroke="rgb(204, 204, 204)" stroke-width="1px"></line><line x1="51.41600036621094" y1="68.44615349402794" x2="46.41600036621094" y2="68.44615349402794" style="visibility: inherit;" fill="rgb(0, 0, 0)" stroke="rgb(204, 204, 204)" stroke-width="1px"></line><line x1="51.41600036621094" y1="54.75692279522234" x2="46.41600036621094" y2="54.75692279522234" style="visibility: inherit;" fill="rgb(0, 0, 0)" stroke="rgb(204, 204, 204)" stroke-width="1px"></line><line x1="51.41600036621094" y1="41.06769209641675" x2="46.41600036621094" y2="41.06769209641675" style="visibility: inherit;" fill="rgb(0, 0, 0)" stroke="rgb(204, 204, 204)" stroke-width="1px"></line><line x1="51.41600036621094" y1="27.378461397611147" x2="46.41600036621094" y2="27.378461397611147" style="visibility: inherit;" fill="rgb(0, 0, 0)" stroke="rgb(204, 204, 204)" stroke-width="1px"></line><line x1="51.41600036621094" y1="13.689230698805602" x2="46.41600036621094" y2="13.689230698805602" style="visibility: inherit;" fill="rgb(0, 0, 0)" stroke="rgb(204, 204, 204)" stroke-width="1px"></line><line x1="51.41600036621094" y1="0" x2="46.41600036621094" y2="0" style="visibility: inherit;" fill="rgb(0, 0, 0)" stroke="rgb(204, 204, 204)" stroke-width="1px"></line></g><g transform="translate(41.41600036621094, 0)"><text style="text-anchor: end; visibility: hidden; font-family: &quot;Helvetica Neue&quot;, sans-serif; font-size: 12px; font-weight: 200;" x="0" y="177.95999908447266" dx="0em" dy="0.3em" fill="rgb(50, 49, 63)" stroke="none" stroke-width="1px">0.34</text><text style="text-anchor: end; visibility: inherit; font-family: &quot;Helvetica Neue&quot;, sans-serif; font-size: 12px; font-weight: 200;" x="0" y="164.27076838566708" dx="0em" dy="0.3em" fill="rgb(50, 49, 63)" stroke="none" stroke-width="1px">0.36</text><text style="text-anchor: end; visibility: hidden; font-family: &quot;Helvetica Neue&quot;, sans-serif; font-size: 12px; font-weight: 200;" x="0" y="150.58153768686148" dx="0em" dy="0.3em" fill="rgb(50, 49, 63)" stroke="none" stroke-width="1px">0.38</text><text style="text-anchor: end; visibility: inherit; font-family: &quot;Helvetica Neue&quot;, sans-serif; font-size: 12px; font-weight: 200;" x="0" y="136.89230698805588" dx="0em" dy="0.3em" fill="rgb(50, 49, 63)" stroke="none" stroke-width="1px">0.4</text><text style="text-anchor: end; visibility: hidden; font-family: &quot;Helvetica Neue&quot;, sans-serif; font-size: 12px; font-weight: 200;" x="0" y="123.20307628925032" dx="0em" dy="0.3em" fill="rgb(50, 49, 63)" stroke="none" stroke-width="1px">0.42</text><text style="text-anchor: end; visibility: inherit; font-family: &quot;Helvetica Neue&quot;, sans-serif; font-size: 12px; font-weight: 200;" x="0" y="109.51384559044472" dx="0em" dy="0.3em" fill="rgb(50, 49, 63)" stroke="none" stroke-width="1px">0.44</text><text style="text-anchor: end; visibility: hidden; font-family: &quot;Helvetica Neue&quot;, sans-serif; font-size: 12px; font-weight: 200;" x="0" y="95.82461489163911" dx="0em" dy="0.3em" fill="rgb(50, 49, 63)" stroke="none" stroke-width="1px">0.46</text><text style="text-anchor: end; visibility: inherit; font-family: &quot;Helvetica Neue&quot;, sans-serif; font-size: 12px; font-weight: 200;" x="0" y="82.13538419283354" dx="0em" dy="0.3em" fill="rgb(50, 49, 63)" stroke="none" stroke-width="1px">0.48</text><text style="text-anchor: end; visibility: hidden; font-family: &quot;Helvetica Neue&quot;, sans-serif; font-size: 12px; font-weight: 200;" x="0" y="68.44615349402794" dx="0em" dy="0.3em" fill="rgb(50, 49, 63)" stroke="none" stroke-width="1px">0.5</text><text style="text-anchor: end; visibility: inherit; font-family: &quot;Helvetica Neue&quot;, sans-serif; font-size: 12px; font-weight: 200;" x="0" y="54.75692279522234" dx="0em" dy="0.3em" fill="rgb(50, 49, 63)" stroke="none" stroke-width="1px">0.52</text><text style="text-anchor: end; visibility: hidden; font-family: &quot;Helvetica Neue&quot;, sans-serif; font-size: 12px; font-weight: 200;" x="0" y="41.06769209641675" dx="0em" dy="0.3em" fill="rgb(50, 49, 63)" stroke="none" stroke-width="1px">0.54</text><text style="text-anchor: end; visibility: inherit; font-family: &quot;Helvetica Neue&quot;, sans-serif; font-size: 12px; font-weight: 200;" x="0" y="27.378461397611147" dx="0em" dy="0.3em" fill="rgb(50, 49, 63)" stroke="none" stroke-width="1px">0.56</text><text style="text-anchor: end; visibility: hidden; font-family: &quot;Helvetica Neue&quot;, sans-serif; font-size: 12px; font-weight: 200;" x="0" y="13.689230698805602" dx="0em" dy="0.3em" fill="rgb(50, 49, 63)" stroke="none" stroke-width="1px">0.58</text><text style="text-anchor: end; visibility: hidden; font-family: &quot;Helvetica Neue&quot;, sans-serif; font-size: 12px; font-weight: 200;" x="0" y="0" dx="0em" dy="0.3em" fill="rgb(50, 49, 63)" stroke="none" stroke-width="1px">0.6</text></g><line x1="51.41600036621094" y1="0" x2="51.41600036621094" y2="177.95999908447266" fill="rgb(0, 0, 0)" stroke="rgb(204, 204, 204)" stroke-width="1px"></line></g></g><g transform="translate(51, 0)" clip-path="url(#clip_0)"><clipPath id="clip_0"><rect width="278" height="177"></rect></clipPath><g><g><g><line x1="0" y1="0" x2="0" y2="177.95999908447266" fill="rgb(0, 0, 0)" stroke="rgb(60, 60, 60)" stroke-width="1px" opacity="0.25"></line><line x1="23.215333302815754" y1="0" x2="23.215333302815754" y2="177.95999908447266" fill="rgb(0, 0, 0)" stroke="rgb(60, 60, 60)" stroke-width="1px" opacity="0.25"></line><line x1="46.43066660563151" y1="0" x2="46.43066660563151" y2="177.95999908447266" fill="rgb(0, 0, 0)" stroke="rgb(60, 60, 60)" stroke-width="1px" opacity="0.25"></line><line x1="69.64599990844727" y1="0" x2="69.64599990844727" y2="177.95999908447266" fill="rgb(0, 0, 0)" stroke="rgb(60, 60, 60)" stroke-width="1px" opacity="0.25"></line><line x1="92.86133321126302" y1="0" x2="92.86133321126302" y2="177.95999908447266" fill="rgb(0, 0, 0)" stroke="rgb(60, 60, 60)" stroke-width="1px" opacity="0.25"></line><line x1="116.07666651407878" y1="0" x2="116.07666651407878" y2="177.95999908447266" fill="rgb(0, 0, 0)" stroke="rgb(60, 60, 60)" stroke-width="1px" opacity="0.25"></line><line x1="139.29199981689453" y1="0" x2="139.29199981689453" y2="177.95999908447266" fill="rgb(0, 0, 0)" stroke="rgb(60, 60, 60)" stroke-width="1px" opacity="0.25"></line><line x1="162.5073331197103" y1="0" x2="162.5073331197103" y2="177.95999908447266" fill="rgb(0, 0, 0)" stroke="rgb(60, 60, 60)" stroke-width="1px" opacity="0.25"></line><line x1="185.72266642252603" y1="0" x2="185.72266642252603" y2="177.95999908447266" fill="rgb(0, 0, 0)" stroke="rgb(60, 60, 60)" stroke-width="1px" opacity="0.25"></line><line x1="208.9379997253418" y1="0" x2="208.9379997253418" y2="177.95999908447266" fill="rgb(0, 0, 0)" stroke="rgb(60, 60, 60)" stroke-width="1px" opacity="0.25"></line><line x1="232.15333302815756" y1="0" x2="232.15333302815756" y2="177.95999908447266" fill="rgb(0, 0, 0)" stroke="rgb(60, 60, 60)" stroke-width="1px" opacity="0.25"></line><line x1="255.3686663309733" y1="0" x2="255.3686663309733" y2="177.95999908447266" fill="rgb(0, 0, 0)" stroke="rgb(60, 60, 60)" stroke-width="1px" opacity="0.25"></line><line x1="278.58399963378906" y1="0" x2="278.58399963378906" y2="177.95999908447266" fill="rgb(0, 0, 0)" stroke="rgb(60, 60, 60)" stroke-width="1px" opacity="0.25"></line></g><g><line x1="0" y1="177.95999908447266" x2="278.58399963378906" y2="177.95999908447266" fill="rgb(0, 0, 0)" stroke="rgb(60, 60, 60)" stroke-width="1px" opacity="0.25"></line><line x1="0" y1="164.27076838566708" x2="278.58399963378906" y2="164.27076838566708" fill="rgb(0, 0, 0)" stroke="rgb(60, 60, 60)" stroke-width="1px" opacity="0.25"></line><line x1="0" y1="150.58153768686148" x2="278.58399963378906" y2="150.58153768686148" fill="rgb(0, 0, 0)" stroke="rgb(60, 60, 60)" stroke-width="1px" opacity="0.25"></line><line x1="0" y1="136.89230698805588" x2="278.58399963378906" y2="136.89230698805588" fill="rgb(0, 0, 0)" stroke="rgb(60, 60, 60)" stroke-width="1px" opacity="0.25"></line><line x1="0" y1="123.20307628925032" x2="278.58399963378906" y2="123.20307628925032" fill="rgb(0, 0, 0)" stroke="rgb(60, 60, 60)" stroke-width="1px" opacity="0.25"></line><line x1="0" y1="109.51384559044472" x2="278.58399963378906" y2="109.51384559044472" fill="rgb(0, 0, 0)" stroke="rgb(60, 60, 60)" stroke-width="1px" opacity="0.25"></line><line x1="0" y1="95.82461489163911" x2="278.58399963378906" y2="95.82461489163911" fill="rgb(0, 0, 0)" stroke="rgb(60, 60, 60)" stroke-width="1px" opacity="0.25"></line><line x1="0" y1="82.13538419283354" x2="278.58399963378906" y2="82.13538419283354" fill="rgb(0, 0, 0)" stroke="rgb(60, 60, 60)" stroke-width="1px" opacity="0.25"></line><line x1="0" y1="68.44615349402794" x2="278.58399963378906" y2="68.44615349402794" fill="rgb(0, 0, 0)" stroke="rgb(60, 60, 60)" stroke-width="1px" opacity="0.25"></line><line x1="0" y1="54.75692279522234" x2="278.58399963378906" y2="54.75692279522234" fill="rgb(0, 0, 0)" stroke="rgb(60, 60, 60)" stroke-width="1px" opacity="0.25"></line><line x1="0" y1="41.06769209641675" x2="278.58399963378906" y2="41.06769209641675" fill="rgb(0, 0, 0)" stroke="rgb(60, 60, 60)" stroke-width="1px" opacity="0.25"></line><line x1="0" y1="27.378461397611147" x2="278.58399963378906" y2="27.378461397611147" fill="rgb(0, 0, 0)" stroke="rgb(60, 60, 60)" stroke-width="1px" opacity="0.25"></line><line x1="0" y1="13.689230698805602" x2="278.58399963378906" y2="13.689230698805602" fill="rgb(0, 0, 0)" stroke="rgb(60, 60, 60)" stroke-width="1px" opacity="0.25"></line><line x1="0" y1="0" x2="278.58399963378906" y2="0" fill="rgb(0, 0, 0)" stroke="rgb(60, 60, 60)" stroke-width="1px" opacity="0.25"></line></g></g></g><g><g><line x1="0" y1="410.6769209641677" x2="278.58399963378906" y2="410.6769209641677" fill="rgb(0, 0, 0)" stroke="rgb(153, 153, 153)" stroke-width="1.5px"></line></g></g><g><g><line x1="23.215333302815754" y1="0" x2="23.215333302815754" y2="177.95999908447266" fill="rgb(0, 0, 0)" stroke="rgb(153, 153, 153)" stroke-width="1.5px"></line></g></g><g><g><g><g><g><path style="fill: none;" stroke="rgb(204, 51, 17)" stroke-width="2px" d="M26.69763329823812,186.8245297393616L27.858399963378908,173.03463344551133L29.019166628519695,162.92461750688247L30.179933293660483,156.04250506934025L31.34069995880127,148.25156635169122L32.50146662394206,140.7852585660903L33.66223328908285,134.67367681903704L34.82299995422363,127.56821635167421L35.983766619364424,122.41601913917387L37.14453328450521,118.29014451940081L38.305299949646,115.46187012917443L39.46606661478678,111.7119760581762L40.626833279927574,107.3818155224625L41.78759994506836,105.82506010578626L42.94836661020915,101.5780421645685L44.10913327534993,97.49681871998132L45.269899940490724,94.91134827310482L46.43066660563151,92.45662256308849L47.5914332707723,91.69566669777545L48.75219993591308,90.30822511122199L49.912966601053874,88.10683892095442L51.07373326619466,84.51359337671965L52.23449993133545,83.61706896095366L53.39526659647624,80.36868383250624L54.556033261617024,78.28275609520135L55.716799926757815,74.56714508451095L56.8775665918986,72.39252905667468L58.03833325703939,70.15690065744681L59.199099922180174,69.39046903623266L60.359866587320965,69.23177421059292L61.52063325246175,68.15093231596376L62.68139991760254,65.31214581082104L63.842166582743324,64.18381912767494L65.00293324788412,61.86412026158783L66.1636999130249,61.78647303008913L67.3244665781657,60.6447440136687L68.48523324330647,60.425136089433266L69.64599990844727,59.41726205793138L70.80676657358805,58.12807675703135L71.96753323872885,57.87476106952765L73.12829990386963,57.12044346962995L74.28906656901042,56.14765741723173L75.4498332341512,53.12730635062694L76.610599899292,51.28771270622242L77.77136656443278,50.074440820211294L78.93213322957357,48.853665200687374L80.09289989471435,48.477129931777796L81.25366655985515,48.3333414652833L82.41443322499593,45.810372631466805L83.57519989013672,43.88592785693638L84.7359665552775,47.385588463562215L85.8967332204183,46.17259611600886L87.05749988555908,45.66383210629749L88.21826655069987,43.524206133895234L89.37903321584066,41.66548536767732L90.53979988098145,40.11220642914108L91.70056654612223,39.809933939084004L92.86133321126302,38.75246116860387L94.02209987640381,37.844196417207996L95.1828665415446,37.29923756637041L96.34363320668538,36.80799686617013L97.50439987182617,36.513252446049904L98.66516653696696,36.11737439515781L99.82593320210775,35.71558217492469L100.98669986724853,35.61138922792145L102.14746653238932,35.65838915912954L103.30823319753011,36.09726891093342L104.4689998626709,35.840401269526694L105.62976652781168,35.467249285862465L106.79053319295248,35.352873795073975L107.95129985809326,35.66754528911892L109.11206652323405,35.60995010099916L110.27283318837483,35.57539298812725L111.43359985351563,35.773690119224284L112.59436651865641,36.08431679214138L113.7551331837972,35.47671621429478L114.91589984893798,35.85136644006138L116.07666651407878,35.501211392744494L117.23743317921956,35.1268529746566L118.39819984436035,35.121269322624016L119.55896650950113,34.89888773258434L120.71973317464193,34.68332608371162L121.88049983978271,34.52660608982677L123.0412665049235,34.843253886574985L124.2020331700643,34.48566406757354L125.36279983520508,34.462758570431674L126.52356650034586,34.14785117847754L127.68433316548665,33.7672583490461L128.84509983062745,33.922199439905114L130.00586649576823,34.15206279839177L131.16663316090902,34.399496512893876L132.3273998260498,34.87650383982526L133.4881664911906,34.86154414231507L134.6489331563314,34.38712252160758L135.80969982147215,34.07510286345649L136.97046648661293,33.833125059443546L138.13123315175375,34.26288355981262L139.29199981689453,34.164824876077375L140.45276648203532,33.941724276138444L141.6135331471761,33.80786391617508L142.77429981231688,33.56326599166459L143.9350664774577,33.74505433518851L145.09583314259848,33.7172286373316L146.25659980773926,33.64578352832973L147.41736647288005,33.82194786174881L148.57813313802083,34.0097791566491L149.73889980316162,33.492766741690104L150.8996664683024,33.10042659786586L152.06043313344318,33.08405391039145L153.221199798584,33.156362992755646L154.38196646372478,32.898584348505125L155.54273312886556,33.09984726474616L156.70349979400635,33.27535470477852L157.86426645914713,33.07949507512893L159.02503312428792,32.63343219910897L160.1857997894287,32.63959188143946L161.3465664545695,32.45163929657889L162.5073331197103,32.50313313536026L163.66809978485108,32.72567783288804L164.82886644999186,32.72230594743348L165.98963311513265,32.63815012131184L167.15039978027343,32.75192201533656L168.31116644541422,32.84756815631266L169.471933110555,32.685924442078175L170.6326997756958,32.999618006616515L171.7934664408366,32.80453735682164L172.95423310597738,32.85175435664246L174.11499977111816,32.77058517595955L175.27576643625895,32.311203874470806L176.43653310139973,32.4188718820954L177.59729976654052,32.757253775778025L178.75806643168133,32.33058803892308L179.9188330968221,32.10195528253661L181.0795997619629,32.32070573149605L182.24036642710368,32.260307606612855L183.40113309224446,32.114553032272795L184.56189975738525,32.51991277559671L185.72266642252603,32.325065823950865L186.88343308766682,32.673587136330156L188.04419975280763,32.691051529498736L189.2049664179484,32.619397470551064L190.3657330830892,32.6859207345924L191.52649974822998,33.08174847697393L192.68726641337076,32.607417554489416L193.84803307851155,32.32281900099875L195.00879974365233,32.28894225404096L196.16956640879314,32.241249520139746L197.33033307393393,32.10311818038895L198.4910997390747,31.992856371977325L199.6518664042155,32.173097371476985L200.81263306935628,31.706296788399897L201.97339973449706,31.727380532222725L203.13416639963785,31.767413783077586L204.29493306477863,31.57240233477029L205.45569972991944,31.94820795371396L206.61646639506023,31.73564484627454L207.777233060201,31.525957968127358L208.9379997253418,31.53704454521025L210.09876639048258,31.32466509263989L211.25953305562336,31.388885815356616L212.42029972076415,31.153637159878798L213.58106638590496,31.039870971153363L214.74183305104575,30.998994262479215L215.90259971618653,31.330382021231458L217.0633663813273,31.063785193116104L218.2241330464681,31.69780367784378L219.38489971160888,31.421120572220048L220.54566637674967,31.28249371340698L221.70643304189045,31.664747081485842L222.86719970703126,31.264404229268706L224.02796637217205,31.544377691592842L225.18873303731283,31.16479959077165L226.3494997024536,31.156084129099128L227.5102663675944,30.84969075842659L228.67103303273518,30.693237740584266L229.83179969787597,30.873147018986657L230.99256636301678,31.06322528087702L232.15333302815756,31.095139543162304L233.31409969329835,30.758357997742138L234.47486635843913,30.6384380841736L235.6356330235799,30.34745473721233L236.7963996887207,30.282380428445578L237.95716635386148,30.243335843185605L239.11793301900227,30.71272157995753L240.27869968414308,30.665805923790515L241.43946634928386,30.63765653009031L242.60023301442465,30.83979829269032L243.76099967956543,30.769434955991358L244.9217663447062,30.453419546029494L246.082533009847,30.291193304613614L247.24329967498778,30.166474555202853L248.4040663401286,30.42019040378662L249.56483300526938,30.326021828390168L250.72559967041016,30.54330177226018L251.88636633555095,30.26298994550308L253.04713300069173,29.84840476490217L254.2078996658325,30.065083139908438" fill="none"></path></g><g><path style="fill: none;" stroke="rgb(0, 119, 187)" stroke-width="2px" d="M31.34069995880127,180.7156204877547L32.50146662394206,171.8095665892069L33.66223328908285,164.6329255969417L34.82299995422363,157.687730449082L35.983766619364424,151.90590219045924L37.14453328450521,147.2982151543568L38.305299949646,141.9053780112722L39.46606661478678,138.61208786519L40.626833279927574,135.40941917022386L41.78759994506836,131.69091510037958L42.94836661020915,129.0437492080603L44.10913327534993,126.48026715693095L45.269899940490724,123.61625883030077L46.43066660563151,120.23221269808491L47.5914332707723,117.36898168173168L48.75219993591308,115.05930893559288L49.912966601053874,113.48722026244755L51.07373326619466,110.67008287380635L52.23449993133545,108.00998372769466L53.39526659647624,106.11805005005594L54.556033261617024,104.47881012993949L55.716799926757815,103.02953526871461L56.8775665918986,100.1655393964719L58.03833325703939,99.15943502752823L59.199099922180174,97.5202036398193L60.359866587320965,95.1120713538419L61.52063325246175,94.09457418845064L62.68139991760254,92.31700994877646L63.842166582743324,90.68610900020853L65.00293324788412,89.2966275448569L66.1636999130249,88.58348590923785L67.3244665781657,87.43782514481465L68.48523324330647,86.32304656686838L69.64599990844727,84.78299027256008L70.80676657358805,83.94662127660672L71.96753323872885,82.38183994567093L73.12829990386963,81.56351021964313L74.28906656901042,79.80134043923071L75.4498332341512,78.9248512591558L76.610599899292,78.87564723044655L77.77136656443278,77.83795536725943L78.93213322957357,76.46469017378003L80.09289989471435,74.57227983651765L81.25366655985515,73.67244496900695L82.41443322499593,72.61749714834819L83.57519989013672,71.39825800192231L84.7359665552775,70.99546559773194L85.8967332204183,69.8935591048968L87.05749988555908,69.34747115297364L88.21826655069987,69.35405259392948L89.37903321584066,68.65666690127654L90.53979988098145,67.547850866516L91.70056654612223,66.61408377781672L92.86133321126302,64.70045360965527L94.02209987640381,64.35224110267596L95.1828665415446,63.79812128890396L96.34363320668538,63.399900815791554L97.50439987182617,63.9280516739998L98.66516653696696,63.50525837024486L99.82593320210775,63.35568023429458L100.98669986724853,63.17280176331391L102.14746653238932,63.30415282517275L103.30823319753011,62.16110703587918L104.4689998626709,62.54372262406373L105.62976652781168,61.88017847481177L106.79053319295248,61.657381544858566L107.95129985809326,60.964832256251L109.11206652323405,61.44788299486041L110.27283318837483,61.40897051377996L111.43359985351563,61.58286877967933L112.59436651865641,62.196779670343744L113.7551331837972,61.63913025073789L114.91589984893798,61.079895521030906L116.07666651407878,61.747049160117996L117.23743317921956,61.72545051107903L118.39819984436035,61.8220722964044L119.55896650950113,62.367684784940025L120.71973317464193,61.856737422690415L121.88049983978271,61.85152892502559L123.0412665049235,61.826487631476994L124.2020331700643,62.644294582272636L125.36279983520508,61.21178776911495L126.52356650034586,61.87550002731399L127.68433316548665,61.52307730666139L128.84509983062745,61.202042699521186L130.00586649576823,60.70806201555216L131.16663316090902,60.29660950197592L132.3273998260498,60.59765918640831L133.4881664911906,60.58104324252018L134.6489331563314,60.275196884948386L135.80969982147215,60.228669368549845L136.97046648661293,60.09663869357347L138.13123315175375,59.84757385743582L139.29199981689453,59.68716869886104L140.45276648203532,59.536143275759116L141.6135331471761,59.916734372734766L142.77429981231688,59.81086297822792L143.9350664774577,59.81308872637298L145.09583314259848,59.573329711978275L146.25659980773926,59.69795177118445L147.41736647288005,59.580962380606564L148.57813313802083,59.98745822554271L149.73889980316162,59.782065576617384L150.8996664683024,59.461567913879875L152.06043313344318,59.2473531212876L153.221199798584,59.518815202108314L154.38196646372478,58.28997327420551L155.54273312886556,58.697826020965806L156.70349979400635,58.87130595572668L157.86426645914713,58.68500025379049L159.02503312428792,58.649915355535526L160.1857997894287,59.160352542657094L161.3465664545695,58.52966896286789L162.5073331197103,59.46626314964817L163.66809978485108,58.614584290371454L164.82886644999186,59.34188278655239L165.98963311513265,58.802966730745524L167.15039978027343,58.6987790467588L168.31116644541422,59.047207330800475L169.471933110555,58.867239601741545L170.6326997756958,58.688027251010794L171.7934664408366,59.314716849640675L172.95423310597738,59.04966150799537L174.11499977111816,59.58101292217704L175.27576643625895,59.12177437171826L176.43653310139973,58.933896021241935L177.59729976654052,58.89788385269755L178.75806643168133,58.865310294678764L179.9188330968221,58.385526065922875L181.0795997619629,58.67844285425484L182.24036642710368,58.90350844559961L183.40113309224446,58.512542802777986L184.56189975738525,57.9437373643928L185.72266642252603,57.49833993622438L186.88343308766682,58.05846639663676L188.04419975280763,58.613704222381614L189.2049664179484,58.45920750048812L190.3657330830892,58.24596223571109L191.52649974822998,57.46599603796405L192.68726641337076,58.619847383266006L193.84803307851155,58.75328705981147L195.00879974365233,58.41692684285903L196.16956640879314,58.549336765379735L197.33033307393393,58.09182778320623L198.4910997390747,58.34332739153051L199.6518664042155,57.69426156260754L200.81263306935628,58.57599401000809L201.97339973449706,58.02564047863032L203.13416639963785,57.876241047847685L204.29493306477863,57.030468185360064L205.45569972991944,58.013338362119256L206.61646639506023,57.96200768618611L207.777233060201,58.17228742507342L208.9379997253418,57.5971207111794L210.09876639048258,57.82734119881707L211.25953305562336,57.39015297542558L212.42029972076415,57.511381612428494L213.58106638590496,57.43070542998208L214.74183305104575,58.51100823867786L215.90259971618653,57.52090947460691L217.0633663813273,58.000776406370946L218.2241330464681,58.55717403327233L219.38489971160888,58.33760828838892L220.54566637674967,57.06621038523767L221.70643304189045,57.65672523945406L222.86719970703126,57.3370989181534L224.02796637217205,57.11792380197711L225.18873303731283,57.48502440650404L226.3494997024536,57.04229947344713L227.5102663675944,57.49444845617765L228.67103303273518,57.26713217158337L229.83179969787597,57.382770483331456L230.99256636301678,57.474069665330134L232.15333302815756,57.243938640182705L233.31409969329835,57.17709173838952L234.47486635843913,57.120550530809965L235.6356330235799,56.22091162749551L236.7963996887207,56.541359335827494L237.95716635386148,56.43775116958783L239.11793301900227,56.02491083181347L240.27869968414308,56.65935387441928L241.43946634928386,56.40443372760561L242.60023301442465,56.77748663714587L243.76099967956543,56.72735778658097L244.9217663447062,56.489068464802116L246.082533009847,55.995435752538924L247.24329967498778,56.15402940951412L248.4040663401286,55.74509680102058L249.56483300526938,55.275092157980936L250.72559967041016,55.973867654118706L251.88636633555095,56.44791527975845L253.04713300069173,56.70496085058109L254.2078996658325,57.02355149578045" fill="none"></path></g></g></g></g><g opacity="0.2"><g><g><g><path style="fill: none;" stroke="rgb(204, 51, 17)" stroke-width="2px" d="M25.53686663309733,186.44732055112402L26.69763329823812,166.39259467262124L27.858399963378908,155.03054484426056L29.019166628519695,148.9388258580208L30.179933293660483,146.20097416985593L31.34069995880127,136.89230290834723L32.50146662394206,129.77390483795315L33.66223328908285,125.59869019284616L34.82299995422363,116.97447165410705L35.983766619364424,114.71576135013282L37.14453328450521,112.11480428623051L38.305299949646,111.22499942779541L39.46606661478678,106.09154281139372L40.626833279927574,100.88962868358907L41.78759994506836,103.4905857474914L42.94836661020915,95.20859357013705L44.10913327534993,91.37560528641485L45.269899940490724,91.03337892503008L46.43066660563151,88.77466862105585L47.5914332707723,90.55425793938272L48.75219993591308,88.22709012400556L49.912966601053874,84.80478571307108L51.07373326619466,79.12375059961906L52.23449993133545,82.27228616057172L53.39526659647624,75.49611445156239L54.556033261617024,75.15386769163429L55.716799926757815,68.99373199107826L56.8775665918986,69.13060621679752L58.03833325703939,66.80345879996366L59.199099922180174,68.24082175690573L60.359866587320965,68.99373199107826L61.52063325246175,66.52966955143852L62.68139991760254,61.0539661751087L63.842166582743324,62.491329132050765L65.00293324788412,58.38457199834674L66.1636999130249,61.67000218356198L67.3244665781657,58.93215049539705L68.48523324330647,60.09572420381397L69.64599990844727,57.9054510126994L70.80676657358805,56.19429880723216L71.96753323872885,57.49478753845497L73.12829990386963,55.98896707010995L74.28906656901042,54.68847833888712L75.4498332341512,48.596779751190724L76.610599899292,48.52832223978777L77.77136656443278,48.25453299126261L78.93213322957357,47.022501771442734L80.09289989471435,47.912327028421146L81.25366655985515,48.117658765543354L82.41443322499593,42.025919380760286L83.57519989013672,40.999260695149275L84.7359665552775,52.63507937349178L85.8967332204183,44.35310759468078L87.05749988555908,44.9006860917311L88.21826655069987,40.31476717529304L89.37903321584066,38.87740421835096L90.53979988098145,37.782288021336996L91.70056654612223,39.35652520399833L92.86133321126302,37.16625201288372L94.02209987640381,36.48179929011417L95.1828665415446,36.48179929011417L96.34363320668538,36.07113581586978L97.50439987182617,36.07113581586978L98.66516653696696,35.523557318819456L99.82593320210775,35.11289384457504L100.98669986724853,35.4550998074165L102.14746653238932,35.728889055941664L103.30823319753011,36.75558853863933L104.4689998626709,35.4550998074165L105.62976652781168,34.90752131036621L106.79053319295248,35.18131055889134L107.95129985809326,36.13955253018608L109.11206652323405,35.523557318819456L110.27283318837483,35.523557318819456L111.43359985351563,36.07113581586978L112.59436651865641,36.55025680151712L113.7551331837972,34.565315347524745L114.91589984893798,36.413341778711214L116.07666651407878,34.97597882176916L117.23743317921956,34.565315347524745L118.39819984436035,35.11289384457504L119.55896650950113,34.565315347524745L120.71973317464193,34.35998361040254L121.88049983978271,34.29152609899958L123.0412665049235,35.31822558169725L124.2020331700643,33.94927933907147L125.36279983520508,34.42840032471884L126.52356650034586,33.67549009054633L127.68433316548665,33.19636910489896L128.84509983062745,34.154611076193675L130.00586649576823,34.49685783612179L131.16663316090902,34.77064708464695L132.3273998260498,35.59201483022241L133.4881664911906,34.83910459604991L134.6489331563314,33.67549009054633L135.80969982147215,33.60707337623003L136.97046648661293,33.4701583534241L138.13123315175375,34.90752131036621L139.29199981689453,34.01773685047442L140.45276648203532,33.60707337623003L141.6135331471761,33.60707337623003L142.77429981231688,33.19636910489896L143.9350664774577,34.01773685047442L145.09583314259848,33.67549009054633L146.25659980773926,33.53861586482708L147.41736647288005,34.086194361877375L148.57813313802083,34.29152609899958L149.73889980316162,32.71724811925159L150.8996664683024,32.511916382129414L152.06043313344318,33.05949487917971L153.221199798584,33.26482661630192L154.38196646372478,32.511916382129414L155.54273312886556,33.4017416391078L156.70349979400635,33.53861586482708L157.86426645914713,32.78570563065455L159.02503312428792,31.96433788507909L160.1857997894287,32.648831404935294L161.3465664545695,32.169710419287924L162.5073331197103,32.58037389353237L163.66809978485108,33.05949487917971L164.82886644999186,32.71724811925159L165.98963311513265,32.511916382129414L167.15039978027343,32.9225798563738L168.31116644541422,32.991037367776755L169.471933110555,32.44345887072646L170.6326997756958,33.4701583534241L171.7934664408366,32.511916382129414L172.95423310597738,32.9225798563738L174.11499977111816,32.648831404935294L175.27576643625895,31.622131922237628L176.43653310139973,32.58037389353237L177.59729976654052,33.26482661630192L178.75806643168133,31.690589433640582L179.9188330968221,31.75900614795688L181.0795997619629,32.648831404935294L182.24036642710368,32.169710419287924L183.40113309224446,31.89592117076279L184.56189975738525,33.127952390582664L185.72266642252603,32.032795396482044L186.88343308766682,33.19636910489896L188.04419975280763,32.71724811925159L189.2049664179484,32.511916382129414L190.3657330830892,32.78570563065455L191.52649974822998,33.67549009054633L192.68726641337076,31.89592117076279L193.84803307851155,31.89592117076279L195.00879974365233,32.23812713360422L196.16956640879314,32.169710419287924L197.33033307393393,31.89592117076279L198.4910997390747,31.827463659359836L199.6518664042155,32.44345887072646L200.81263306935628,31.00609591378435L201.97339973449706,31.75900614795688L203.13416639963785,31.827463659359836L204.29493306477863,31.27988516230954L205.45569972991944,32.511916382129414L206.61646639506023,31.41680018511542L207.777233060201,31.211427650906586L208.9379997253418,31.553674410834674L210.09876639048258,31.00609591378435L211.25953305562336,31.48521689943172L212.42029972076415,30.80076417666217L213.58106638590496,30.869221688065124L214.74183305104575,30.93767919946805L215.90259971618653,31.827463659359836L217.0633663813273,30.663889950942917L218.2241330464681,32.648831404935294L219.38489971160888,31.00609591378435L220.54566637674967,31.074553425187332L221.70643304189045,32.23812713360422L222.86719970703126,30.663889950942917L224.02796637217205,31.96433788507909L225.18873303731283,30.595432439539962L226.3494997024536,31.143010936590287L227.5102663675944,30.390100702417755L228.67103303273518,30.45855821382071L229.83179969787597,31.143010936590287L230.99256636301678,31.348342673712494L232.15333302815756,31.143010936590287L233.31409969329835,30.253185679611846L234.47486635843913,30.45855821382071L235.6356330235799,29.910979716770413L236.7963996887207,30.184768965295547L237.95716635386148,30.184768965295547L239.11793301900227,31.41680018511542L240.27869968414308,30.595432439539962L241.43946634928386,30.595432439539962L242.60023301442465,31.143010936590287L243.76099967956543,30.663889950942917L244.9217663447062,29.979396431086712L246.082533009847,30.047853942489667L247.24329967498778,29.979396431086712L248.4040663401286,30.80076417666217L249.56483300526938,30.184768965295547L250.72559967041016,30.869221688065124L251.88636633555095,29.84252220536746L253.04713300069173,29.226526994000835L254.2078996658325,30.390100702417755" fill="none"></path></g><g><path style="fill: none;" stroke="rgb(0, 119, 187)" stroke-width="2px" d="M29.019166628519695,184.55037841304113L30.179933293660483,174.0440066801307L31.34069995880127,167.5785659816104L32.50146662394206,158.67486700075813L33.66223328908285,153.97645011787571L34.82299995422363,147.3329301361171L35.983766619364424,143.2646242565831L37.14453328450521,140.40172949782817L38.305299949646,133.82668742601587L39.46606661478678,133.67602378500806L40.626833279927574,130.607674897871L41.78759994506836,126.11473254191407L42.94836661020915,125.0736724847147L44.10913327534993,122.63543460092602L45.269899940490724,119.32050812206103L46.43066660563151,115.15632908889356L47.5914332707723,113.07422937303815L48.75219993591308,111.59484541684397L49.912966601053874,111.12910587561863L51.07373326619466,106.44439681385148L52.23449993133545,104.01984635263472L53.39526659647624,103.28015437453762L54.556033261617024,102.01995276638418L55.716799926757815,100.85562431186418L56.8775665918986,95.86954717099476L58.03833325703939,97.6502788077479L59.199099922180174,95.06135688440806L60.359866587320965,91.49987321235848L61.52063325246175,92.56832851324502L62.68139991760254,89.65066366565907L63.842166582743324,88.23975761941115L65.00293324788412,87.21240538332704L66.1636999130249,87.51377346242931L67.3244665781657,85.71933400456092L68.48523324330647,84.6508787036744L69.64599990844727,82.47290583418554L70.80676657358805,82.69206778368297L71.96753323872885,80.03466795039685L73.12829990386963,80.3360156309558L74.28906656901042,77.15808576907001L75.4498332341512,77.61011748918008L76.610599899292,78.80184118738725L77.77136656443278,76.28141757253702L78.93213322957357,74.40479238360713L80.09289989471435,71.73366433066244L81.25366655985515,72.32269266775171L82.41443322499593,71.03507541736776L83.57519989013672,69.56939928228884L84.7359665552775,70.39127699144747L85.8967332204183,68.24069936564578L87.05749988555908,68.52833922508948L88.21826655069987,69.36392475536336L89.37903321584066,67.6105883622974L90.53979988098145,65.88462681437528L91.70056654612223,65.2134331447678L92.86133321126302,61.83000835741319L94.02209987640381,63.82992234220707L95.1828665415446,62.966941568246014L96.34363320668538,62.80257010612296L97.50439987182617,64.72027796131196L98.66516653696696,62.87106841461255L99.82593320210775,63.13131303036907L100.98669986724853,62.89848405684306L102.14746653238932,63.50117941796094L103.30823319753011,60.446538351939125L104.4689998626709,63.11764600634048L105.62976652781168,60.884862250933935L106.79053319295248,61.32318614992877L107.95129985809326,59.92600832333943L109.11206652323405,62.17245910277457L110.27283318837483,61.35060179215927L111.43359985351563,61.84371617852845L112.59436651865641,63.11764600634048L113.7551331837972,60.80265612132908L114.91589984893798,60.2410434264703L116.07666651407878,62.74777961874861L117.23743317921956,61.69305253752064L118.39819984436035,61.967004974392424L119.55896650950113,63.18610351774342L120.71973317464193,61.09031637931612L121.88049983978271,61.84371617852845L123.0412665049235,61.788925691154105L124.2020331700643,63.871005008466184L125.36279983520508,59.06302754937839L126.52356650034586,62.87106841461255L127.68433316548665,60.99444322568266L128.84509983062745,60.72049078881088L130.00586649576823,59.967090989598546L131.16663316090902,59.67943073161152L132.3273998260498,61.049233713057006L133.4881664911906,60.55611932668782L134.6489331563314,59.816427348590736L135.80969982147215,60.1588780939521L136.97046648661293,59.89859268110895L138.13123315175375,59.47397660322936L139.29199981689453,59.44656096099885L140.45276648203532,59.3096051411063L141.6135331471761,60.48762101819821L142.77429981231688,59.65205588646768L143.9350664774577,59.816427348590736L145.09583314259848,59.213691190386186L146.25659980773926,59.88488485999369L147.41736647288005,59.405478294739765L148.57813313802083,60.597201992946935L149.73889980316162,59.47397660322936L150.8996664683024,58.980821419773534L152.06043313344318,58.926030932399186L153.221199798584,59.92600832333943L154.38196646372478,56.446710382351384L155.54273312886556,59.3096051411063L156.70349979400635,59.131525857867985L157.86426645914713,58.40554170088615L159.02503312428792,58.59728800815306L160.1857997894287,59.92600832333943L161.3465664545695,57.583643593184206L162.5073331197103,60.87115442981869L163.66809978485108,57.33706600145629L164.82886644999186,60.432830530823864L165.98963311513265,57.99459264703519L167.15039978027343,58.54249752077871L168.31116644541422,59.56984975686282L169.471933110555,58.59728800815306L170.6326997756958,58.41920872491474L171.7934664408366,60.25475124758556L172.95423310597738,58.652078495527405L174.11499977111816,60.37804004344953L175.27576643625895,58.43291654603L176.43653310139973,58.652078495527405L177.59729976654052,58.84386559988097L178.75806643168133,58.81644995765046L179.9188330968221,57.66584972278906L181.0795997619629,59.11781803675274L182.24036642710368,59.241106832616694L183.40113309224446,57.92609433854557L184.56189975738525,57.09052920681502L185.72266642252603,56.830243793971846L186.88343308766682,58.89865608725532L188.04419975280763,59.44656096099885L189.2049664179484,58.22746241764784L190.3657330830892,57.92609433854557L191.52649974822998,56.296046741343574L192.68726641337076,60.35062440121901L193.84803307851155,58.953446574629695L195.00879974365233,57.912386517430335L196.16956640879314,58.74795164916087L197.33033307393393,57.40556430994589L198.4910997390747,58.720576804017014L199.6518664042155,56.720662819223165L200.81263306935628,59.89859268110895L201.97339973449706,57.200110181563744L203.13416639963785,57.6521419016738L204.29493306477863,55.76180889162865L205.45569972991944,59.48764362725797L206.61646639506023,57.88501167228647L207.777233060201,58.48770703340435L208.9379997253418,56.7343706403384L210.09876639048258,58.17267193027348L211.25953305562336,56.7343706403384L212.42029972076415,57.6932245679329L213.58106638590496,57.309691156312425L214.74183305104575,60.1314624517216L215.90259971618653,56.0357613285004L217.0633663813273,58.720576804017014L218.2241330464681,59.391770473624504L219.38489971160888,58.00825967106377L220.54566637674967,55.15911353051075L221.70643304189045,58.54249752077871L222.86719970703126,56.857659436202354L224.02796637217205,56.78916112771276L225.18873303731283,58.03567531329428L226.3494997024536,56.378212073861775L227.5102663675944,58.17267193027348L228.67103303273518,56.92615774469196L229.83179969787597,57.5562279509537L230.99256636301678,57.611018438328045L232.15333302815756,56.898742102461455L233.31409969329835,57.07682138569977L234.47486635843913,57.03573871944067L235.6356330235799,54.87145327252374L236.7963996887207,57.022030898325426L237.95716635386148,56.28233892022833L239.11793301900227,55.405650325152024L240.27869968414308,57.611018438328045L241.43946634928386,56.02205350738515L242.60023301442465,57.33706600145629L243.76099967956543,56.65216451073354L244.9217663447062,56.13163448213386L246.082533009847,55.254986684144214L247.24329967498778,56.391919894977036L248.4040663401286,55.13169788828027L249.56483300526938,54.57008519342148L250.72559967041016,57.022030898325426L251.88636633555095,57.158986718217974L253.04713300069173,57.09052920681502L254.2078996658325,57.50143746357935" fill="none"></path></g></g></g></g></g></g><g transform="translate(51, 177)" clip-path="url(#clip_1)"><clipPath id="clip_1"><rect width="278" height="22"></rect></clipPath><g><g><line x1="0" y1="0" x2="0" y2="5" style="visibility: inherit;" fill="rgb(0, 0, 0)" stroke="rgb(204, 204, 204)" stroke-width="1px"></line><line x1="23.215333302815754" y1="0" x2="23.215333302815754" y2="5" style="visibility: inherit;" fill="rgb(0, 0, 0)" stroke="rgb(204, 204, 204)" stroke-width="1px"></line><line x1="46.43066660563151" y1="0" x2="46.43066660563151" y2="5" style="visibility: inherit;" fill="rgb(0, 0, 0)" stroke="rgb(204, 204, 204)" stroke-width="1px"></line><line x1="69.64599990844727" y1="0" x2="69.64599990844727" y2="5" style="visibility: inherit;" fill="rgb(0, 0, 0)" stroke="rgb(204, 204, 204)" stroke-width="1px"></line><line x1="92.86133321126302" y1="0" x2="92.86133321126302" y2="5" style="visibility: inherit;" fill="rgb(0, 0, 0)" stroke="rgb(204, 204, 204)" stroke-width="1px"></line><line x1="116.07666651407878" y1="0" x2="116.07666651407878" y2="5" style="visibility: inherit;" fill="rgb(0, 0, 0)" stroke="rgb(204, 204, 204)" stroke-width="1px"></line><line x1="139.29199981689453" y1="0" x2="139.29199981689453" y2="5" style="visibility: inherit;" fill="rgb(0, 0, 0)" stroke="rgb(204, 204, 204)" stroke-width="1px"></line><line x1="162.5073331197103" y1="0" x2="162.5073331197103" y2="5" style="visibility: inherit;" fill="rgb(0, 0, 0)" stroke="rgb(204, 204, 204)" stroke-width="1px"></line><line x1="185.72266642252603" y1="0" x2="185.72266642252603" y2="5" style="visibility: inherit;" fill="rgb(0, 0, 0)" stroke="rgb(204, 204, 204)" stroke-width="1px"></line><line x1="208.9379997253418" y1="0" x2="208.9379997253418" y2="5" style="visibility: inherit;" fill="rgb(0, 0, 0)" stroke="rgb(204, 204, 204)" stroke-width="1px"></line><line x1="232.15333302815756" y1="0" x2="232.15333302815756" y2="5" style="visibility: inherit;" fill="rgb(0, 0, 0)" stroke="rgb(204, 204, 204)" stroke-width="1px"></line><line x1="255.3686663309733" y1="0" x2="255.3686663309733" y2="5" style="visibility: inherit;" fill="rgb(0, 0, 0)" stroke="rgb(204, 204, 204)" stroke-width="1px"></line><line x1="278.58399963378906" y1="0" x2="278.58399963378906" y2="5" style="visibility: inherit;" fill="rgb(0, 0, 0)" stroke="rgb(204, 204, 204)" stroke-width="1px"></line></g><g transform="translate(0, 8)"><text style="text-anchor: middle; visibility: hidden; font-family: &quot;Helvetica Neue&quot;, sans-serif; font-size: 12px; font-weight: 200;" x="0" y="0" dx="0em" dy="0.95em" fill="rgb(50, 49, 63)" stroke="none" stroke-width="1px">-20</text><text style="text-anchor: middle; visibility: inherit; font-family: &quot;Helvetica Neue&quot;, sans-serif; font-size: 12px; font-weight: 200;" x="23.215333302815754" y="0" dx="0em" dy="0.95em" fill="rgb(50, 49, 63)" stroke="none" stroke-width="1px">0</text><text style="text-anchor: middle; visibility: hidden; font-family: &quot;Helvetica Neue&quot;, sans-serif; font-size: 12px; font-weight: 200;" x="46.43066660563151" y="0" dx="0em" dy="0.95em" fill="rgb(50, 49, 63)" stroke="none" stroke-width="1px">20</text><text style="text-anchor: middle; visibility: inherit; font-family: &quot;Helvetica Neue&quot;, sans-serif; font-size: 12px; font-weight: 200;" x="69.64599990844727" y="0" dx="0em" dy="0.95em" fill="rgb(50, 49, 63)" stroke="none" stroke-width="1px">40</text><text style="text-anchor: middle; visibility: hidden; font-family: &quot;Helvetica Neue&quot;, sans-serif; font-size: 12px; font-weight: 200;" x="92.86133321126302" y="0" dx="0em" dy="0.95em" fill="rgb(50, 49, 63)" stroke="none" stroke-width="1px">60</text><text style="text-anchor: middle; visibility: inherit; font-family: &quot;Helvetica Neue&quot;, sans-serif; font-size: 12px; font-weight: 200;" x="116.07666651407878" y="0" dx="0em" dy="0.95em" fill="rgb(50, 49, 63)" stroke="none" stroke-width="1px">80</text><text style="text-anchor: middle; visibility: hidden; font-family: &quot;Helvetica Neue&quot;, sans-serif; font-size: 12px; font-weight: 200;" x="139.29199981689453" y="0" dx="0em" dy="0.95em" fill="rgb(50, 49, 63)" stroke="none" stroke-width="1px">100</text><text style="text-anchor: middle; visibility: inherit; font-family: &quot;Helvetica Neue&quot;, sans-serif; font-size: 12px; font-weight: 200;" x="162.5073331197103" y="0" dx="0em" dy="0.95em" fill="rgb(50, 49, 63)" stroke="none" stroke-width="1px">120</text><text style="text-anchor: middle; visibility: hidden; font-family: &quot;Helvetica Neue&quot;, sans-serif; font-size: 12px; font-weight: 200;" x="185.72266642252603" y="0" dx="0em" dy="0.95em" fill="rgb(50, 49, 63)" stroke="none" stroke-width="1px">140</text><text style="text-anchor: middle; visibility: inherit; font-family: &quot;Helvetica Neue&quot;, sans-serif; font-size: 12px; font-weight: 200;" x="208.9379997253418" y="0" dx="0em" dy="0.95em" fill="rgb(50, 49, 63)" stroke="none" stroke-width="1px">160</text><text style="text-anchor: middle; visibility: hidden; font-family: &quot;Helvetica Neue&quot;, sans-serif; font-size: 12px; font-weight: 200;" x="232.15333302815756" y="0" dx="0em" dy="0.95em" fill="rgb(50, 49, 63)" stroke="none" stroke-width="1px">180</text><text style="text-anchor: middle; visibility: inherit; font-family: &quot;Helvetica Neue&quot;, sans-serif; font-size: 12px; font-weight: 200;" x="255.3686663309733" y="0" dx="0em" dy="0.95em" fill="rgb(50, 49, 63)" stroke="none" stroke-width="1px">200</text><text style="text-anchor: middle; visibility: hidden; font-family: &quot;Helvetica Neue&quot;, sans-serif; font-size: 12px; font-weight: 200;" x="278.58399963378906" y="0" dx="0em" dy="0.95em" fill="rgb(50, 49, 63)" stroke="none" stroke-width="1px">220</text></g><line x1="0" y1="0" x2="278.58399963378906" y2="0" fill="rgb(0, 0, 0)" stroke="rgb(204, 204, 204)" stroke-width="1px"></line></g></g></g></g></svg>