<svg viewBox="0 0 330 200" xmlns="http://www.w3.org/2000/svg"><g><g><g><g><g><line x1="51.41600036621094" y1="177.95999908447266" x2="46.41600036621094" y2="177.95999908447266" style="visibility: inherit;" fill="rgb(0, 0, 0)" stroke="rgb(204, 204, 204)" stroke-width="1px"></line><line x1="51.41600036621094" y1="164.27076838566705" x2="46.41600036621094" y2="164.27076838566705" style="visibility: inherit;" fill="rgb(0, 0, 0)" stroke="rgb(204, 204, 204)" stroke-width="1px"></line><line x1="51.41600036621094" y1="150.58153768686148" x2="46.41600036621094" y2="150.58153768686148" style="visibility: inherit;" fill="rgb(0, 0, 0)" stroke="rgb(204, 204, 204)" stroke-width="1px"></line><line x1="51.41600036621094" y1="136.89230698805588" x2="46.41600036621094" y2="136.89230698805588" style="visibility: inherit;" fill="rgb(0, 0, 0)" stroke="rgb(204, 204, 204)" stroke-width="1px"></line><line x1="51.41600036621094" y1="123.2030762892503" x2="46.41600036621094" y2="123.2030762892503" style="visibility: inherit;" fill="rgb(0, 0, 0)" stroke="rgb(204, 204, 204)" stroke-width="1px"></line><line x1="51.41600036621094" y1="109.51384559044472" x2="46.41600036621094" y2="109.51384559044472" style="visibility: inherit;" fill="rgb(0, 0, 0)" stroke="rgb(204, 204, 204)" stroke-width="1px"></line><line x1="51.41600036621094" y1="95.82461489163913" x2="46.41600036621094" y2="95.82461489163913" style="visibility: inherit;" fill="rgb(0, 0, 0)" stroke="rgb(204, 204, 204)" stroke-width="1px"></line><line x1="51.41600036621094" y1="82.13538419283354" x2="46.41600036621094" y2="82.13538419283354" style="visibility: inherit;" fill="rgb(0, 0, 0)" stroke="rgb(204, 204, 204)" stroke-width="1px"></line><line x1="51.41600036621094" y1="68.44615349402795" x2="46.41600036621094" y2="68.44615349402795" style="visibility: inherit;" fill="rgb(0, 0, 0)" stroke="rgb(204, 204, 204)" stroke-width="1px"></line><line x1="51.41600036621094" y1="54.756922795222366" x2="46.41600036621094" y2="54.756922795222366" style="visibility: inherit;" fill="rgb(0, 0, 0)" stroke="rgb(204, 204, 204)" stroke-width="1px"></line><line x1="51.41600036621094" y1="41.06769209641678" x2="46.41600036621094" y2="41.06769209641678" style="visibility: inherit;" fill="rgb(0, 0, 0)" stroke="rgb(204, 204, 204)" stroke-width="1px"></line><line x1="51.41600036621094" y1="27.378461397611176" x2="46.41600036621094" y2="27.378461397611176" style="visibility: inherit;" fill="rgb(0, 0, 0)" stroke="rgb(204, 204, 204)" stroke-width="1px"></line><line x1="51.41600036621094" y1="13.689230698805574" x2="46.41600036621094" y2="13.689230698805574" style="visibility: inherit;" fill="rgb(0, 0, 0)" stroke="rgb(204, 204, 204)" stroke-width="1px"></line><line x1="51.41600036621094" y1="0" x2="46.41600036621094" y2="0" style="visibility: inherit;" fill="rgb(0, 0, 0)" stroke="rgb(204, 204, 204)" stroke-width="1px"></line></g><g transform="translate(41.41600036621094, 0)"><text style="text-anchor: end; visibility: hidden; font-family: &quot;Helvetica Neue&quot;, sans-serif; font-size: 12px; font-weight: 200;" x="0" y="177.95999908447266" dx="0em" dy="0.3em" fill="rgb(50, 49, 63)" stroke="none" stroke-width="1px">-0.1</text><text style="text-anchor: end; visibility: inherit; font-family: &quot;Helvetica Neue&quot;, sans-serif; font-size: 12px; font-weight: 200;" x="0" y="164.27076838566705" dx="0em" dy="0.3em" fill="rgb(50, 49, 63)" stroke="none" stroke-width="1px">0</text><text style="text-anchor: end; visibility: hidden; font-family: &quot;Helvetica Neue&quot;, sans-serif; font-size: 12px; font-weight: 200;" x="0" y="150.58153768686148" dx="0em" dy="0.3em" fill="rgb(50, 49, 63)" stroke="none" stroke-width="1px">0.1</text><text style="text-anchor: end; visibility: inherit; font-family: &quot;Helvetica Neue&quot;, sans-serif; font-size: 12px; font-weight: 200;" x="0" y="136.89230698805588" dx="0em" dy="0.3em" fill="rgb(50, 49, 63)" stroke="none" stroke-width="1px">0.2</text><text style="text-anchor: end; visibility: hidden; font-family: &quot;Helvetica Neue&quot;, sans-serif; font-size: 12px; font-weight: 200;" x="0" y="123.2030762892503" dx="0em" dy="0.3em" fill="rgb(50, 49, 63)" stroke="none" stroke-width="1px">0.3</text><text style="text-anchor: end; visibility: inherit; font-family: &quot;Helvetica Neue&quot;, sans-serif; font-size: 12px; font-weight: 200;" x="0" y="109.51384559044472" dx="0em" dy="0.3em" fill="rgb(50, 49, 63)" stroke="none" stroke-width="1px">0.4</text><text style="text-anchor: end; visibility: hidden; font-family: &quot;Helvetica Neue&quot;, sans-serif; font-size: 12px; font-weight: 200;" x="0" y="95.82461489163913" dx="0em" dy="0.3em" fill="rgb(50, 49, 63)" stroke="none" stroke-width="1px">0.5</text><text style="text-anchor: end; visibility: inherit; font-family: &quot;Helvetica Neue&quot;, sans-serif; font-size: 12px; font-weight: 200;" x="0" y="82.13538419283354" dx="0em" dy="0.3em" fill="rgb(50, 49, 63)" stroke="none" stroke-width="1px">0.6</text><text style="text-anchor: end; visibility: hidden; font-family: &quot;Helvetica Neue&quot;, sans-serif; font-size: 12px; font-weight: 200;" x="0" y="68.44615349402795" dx="0em" dy="0.3em" fill="rgb(50, 49, 63)" stroke="none" stroke-width="1px">0.7</text><text style="text-anchor: end; visibility: inherit; font-family: &quot;Helvetica Neue&quot;, sans-serif; font-size: 12px; font-weight: 200;" x="0" y="54.756922795222366" dx="0em" dy="0.3em" fill="rgb(50, 49, 63)" stroke="none" stroke-width="1px">0.8</text><text style="text-anchor: end; visibility: hidden; font-family: &quot;Helvetica Neue&quot;, sans-serif; font-size: 12px; font-weight: 200;" x="0" y="41.06769209641678" dx="0em" dy="0.3em" fill="rgb(50, 49, 63)" stroke="none" stroke-width="1px">0.9</text><text style="text-anchor: end; visibility: inherit; font-family: &quot;Helvetica Neue&quot;, sans-serif; font-size: 12px; font-weight: 200;" x="0" y="27.378461397611176" dx="0em" dy="0.3em" fill="rgb(50, 49, 63)" stroke="none" stroke-width="1px">1</text><text style="text-anchor: end; visibility: hidden; font-family: &quot;Helvetica Neue&quot;, sans-serif; font-size: 12px; font-weight: 200;" x="0" y="13.689230698805574" dx="0em" dy="0.3em" fill="rgb(50, 49, 63)" stroke="none" stroke-width="1px">1.1</text><text style="text-anchor: end; visibility: hidden; font-family: &quot;Helvetica Neue&quot;, sans-serif; font-size: 12px; font-weight: 200;" x="0" y="0" dx="0em" dy="0.3em" fill="rgb(50, 49, 63)" stroke="none" stroke-width="1px">1.2</text></g><line x1="51.41600036621094" y1="0" x2="51.41600036621094" y2="177.95999908447266" fill="rgb(0, 0, 0)" stroke="rgb(204, 204, 204)" stroke-width="1px"></line></g></g><g transform="translate(51, 0)" clip-path="url(#clip_0)"><clipPath id="clip_0"><rect width="278" height="177"></rect></clipPath><g><g><g><line x1="0" y1="0" x2="0" y2="177.95999908447266" fill="rgb(0, 0, 0)" stroke="rgb(60, 60, 60)" stroke-width="1px" opacity="0.25"></line><line x1="23.215333302815754" y1="0" x2="23.215333302815754" y2="177.95999908447266" fill="rgb(0, 0, 0)" stroke="rgb(60, 60, 60)" stroke-width="1px" opacity="0.25"></line><line x1="46.43066660563151" y1="0" x2="46.43066660563151" y2="177.95999908447266" fill="rgb(0, 0, 0)" stroke="rgb(60, 60, 60)" stroke-width="1px" opacity="0.25"></line><line x1="69.64599990844727" y1="0" x2="69.64599990844727" y2="177.95999908447266" fill="rgb(0, 0, 0)" stroke="rgb(60, 60, 60)" stroke-width="1px" opacity="0.25"></line><line x1="92.86133321126302" y1="0" x2="92.86133321126302" y2="177.95999908447266" fill="rgb(0, 0, 0)" stroke="rgb(60, 60, 60)" stroke-width="1px" opacity="0.25"></line><line x1="116.07666651407878" y1="0" x2="116.07666651407878" y2="177.95999908447266" fill="rgb(0, 0, 0)" stroke="rgb(60, 60, 60)" stroke-width="1px" opacity="0.25"></line><line x1="139.29199981689453" y1="0" x2="139.29199981689453" y2="177.95999908447266" fill="rgb(0, 0, 0)" stroke="rgb(60, 60, 60)" stroke-width="1px" opacity="0.25"></line><line x1="162.5073331197103" y1="0" x2="162.5073331197103" y2="177.95999908447266" fill="rgb(0, 0, 0)" stroke="rgb(60, 60, 60)" stroke-width="1px" opacity="0.25"></line><line x1="185.72266642252603" y1="0" x2="185.72266642252603" y2="177.95999908447266" fill="rgb(0, 0, 0)" stroke="rgb(60, 60, 60)" stroke-width="1px" opacity="0.25"></line><line x1="208.9379997253418" y1="0" x2="208.9379997253418" y2="177.95999908447266" fill="rgb(0, 0, 0)" stroke="rgb(60, 60, 60)" stroke-width="1px" opacity="0.25"></line><line x1="232.15333302815756" y1="0" x2="232.15333302815756" y2="177.95999908447266" fill="rgb(0, 0, 0)" stroke="rgb(60, 60, 60)" stroke-width="1px" opacity="0.25"></line><line x1="255.3686663309733" y1="0" x2="255.3686663309733" y2="177.95999908447266" fill="rgb(0, 0, 0)" stroke="rgb(60, 60, 60)" stroke-width="1px" opacity="0.25"></line><line x1="278.58399963378906" y1="0" x2="278.58399963378906" y2="177.95999908447266" fill="rgb(0, 0, 0)" stroke="rgb(60, 60, 60)" stroke-width="1px" opacity="0.25"></line></g><g><line x1="0" y1="177.95999908447266" x2="278.58399963378906" y2="177.95999908447266" fill="rgb(0, 0, 0)" stroke="rgb(60, 60, 60)" stroke-width="1px" opacity="0.25"></line><line x1="0" y1="164.27076838566705" x2="278.58399963378906" y2="164.27076838566705" fill="rgb(0, 0, 0)" stroke="rgb(60, 60, 60)" stroke-width="1px" opacity="0.25"></line><line x1="0" y1="150.58153768686148" x2="278.58399963378906" y2="150.58153768686148" fill="rgb(0, 0, 0)" stroke="rgb(60, 60, 60)" stroke-width="1px" opacity="0.25"></line><line x1="0" y1="136.89230698805588" x2="278.58399963378906" y2="136.89230698805588" fill="rgb(0, 0, 0)" stroke="rgb(60, 60, 60)" stroke-width="1px" opacity="0.25"></line><line x1="0" y1="123.2030762892503" x2="278.58399963378906" y2="123.2030762892503" fill="rgb(0, 0, 0)" stroke="rgb(60, 60, 60)" stroke-width="1px" opacity="0.25"></line><line x1="0" y1="109.51384559044472" x2="278.58399963378906" y2="109.51384559044472" fill="rgb(0, 0, 0)" stroke="rgb(60, 60, 60)" stroke-width="1px" opacity="0.25"></line><line x1="0" y1="95.82461489163913" x2="278.58399963378906" y2="95.82461489163913" fill="rgb(0, 0, 0)" stroke="rgb(60, 60, 60)" stroke-width="1px" opacity="0.25"></line><line x1="0" y1="82.13538419283354" x2="278.58399963378906" y2="82.13538419283354" fill="rgb(0, 0, 0)" stroke="rgb(60, 60, 60)" stroke-width="1px" opacity="0.25"></line><line x1="0" y1="68.44615349402795" x2="278.58399963378906" y2="68.44615349402795" fill="rgb(0, 0, 0)" stroke="rgb(60, 60, 60)" stroke-width="1px" opacity="0.25"></line><line x1="0" y1="54.756922795222366" x2="278.58399963378906" y2="54.756922795222366" fill="rgb(0, 0, 0)" stroke="rgb(60, 60, 60)" stroke-width="1px" opacity="0.25"></line><line x1="0" y1="41.06769209641678" x2="278.58399963378906" y2="41.06769209641678" fill="rgb(0, 0, 0)" stroke="rgb(60, 60, 60)" stroke-width="1px" opacity="0.25"></line><line x1="0" y1="27.378461397611176" x2="278.58399963378906" y2="27.378461397611176" fill="rgb(0, 0, 0)" stroke="rgb(60, 60, 60)" stroke-width="1px" opacity="0.25"></line><line x1="0" y1="13.689230698805574" x2="278.58399963378906" y2="13.689230698805574" fill="rgb(0, 0, 0)" stroke="rgb(60, 60, 60)" stroke-width="1px" opacity="0.25"></line><line x1="0" y1="0" x2="278.58399963378906" y2="0" fill="rgb(0, 0, 0)" stroke="rgb(60, 60, 60)" stroke-width="1px" opacity="0.25"></line></g></g></g><g><g><line x1="0" y1="164.27076838566705" x2="278.58399963378906" y2="164.27076838566705" fill="rgb(0, 0, 0)" stroke="rgb(153, 153, 153)" stroke-width="1.5px"></line></g></g><g><g><line x1="23.215333302815754" y1="0" x2="23.215333302815754" y2="177.95999908447266" fill="rgb(0, 0, 0)" stroke="rgb(153, 153, 153)" stroke-width="1.5px"></line></g></g><g><g><g><g><g><path style="fill: none;" stroke="rgb(204, 51, 17)" stroke-width="2px" d="M29.019166628519695,-1.3101489515497065L30.179933293660483,6.524445574651452L31.34069995880127,14.849016083267685L32.50146662394206,22.585634045947415L33.66223328908285,26.13963654114292L34.82299995422363,32.65114446069413L35.983766619364424,39.3835741463204L37.14453328450521,40.412195229492454L38.305299949646,42.002640298882625L39.46606661478678,41.326024721755374L40.626833279927574,42.359725243988976L41.78759994506836,47.66324778176096L42.94836661020915,49.84174884803517L44.10913327534993,55.92651084688393L45.269899940490724,55.440686910244324L46.43066660563151,61.72999995033021L47.5914332707723,63.65747880768248L48.75219993591308,67.10100040428966L49.912966601053874,66.8004457468671L51.07373326619466,66.15470590370093L52.23449993133545,70.1883824558029L53.39526659647624,71.06720646051234L54.556033261617024,76.63354738059832L55.716799926757815,74.59297575452307L56.8775665918986,75.42073043612422L58.03833325703939,70.54148503134256L59.199099922180174,76.99748102442214L60.359866587320965,80.32147949640519L61.52063325246175,81.54377890403748L62.68139991760254,82.29962629815137L63.842166582743324,83.26387182749139L65.00293324788412,85.83085283564574L66.1636999130249,82.93866967656736L67.3244665781657,85.15131345475646L68.48523324330647,86.53959599223427L69.64599990844727,84.70958953230765L70.80676657358805,82.0830297877607L71.96753323872885,83.90782159056907L73.12829990386963,84.21027364324237L74.28906656901042,85.31831198812684L75.4498332341512,88.76388400399551L76.610599899292,90.19276586231089L77.77136656443278,91.5422090190814L78.93213322957357,88.83212421284766L80.09289989471435,89.98784389704134L81.25366655985515,87.73750480420239L82.41443322499593,89.41902097937181L83.57519989013672,92.57363387436251L84.7359665552775,86.35978387038384L85.8967332204183,88.71314453180183L87.05749988555908,88.73947319354664L88.21826655069987,85.71749647207663L89.37903321584066,90.08554557702689L90.53979988098145,93.01156172640964L91.70056654612223,95.0719452359352L92.86133321126302,98.85277612599276L94.02209987640381,100.25698837929329L95.1828665415446,101.89936219769812L96.34363320668538,102.5856638812881L97.50439987182617,102.45576402123825L98.66516653696696,102.70572824135289L99.82593320210775,102.94382684870769L100.98669986724853,102.90528421514529L102.14746653238932,102.72767638668934L103.30823319753011,103.07554880595487L104.4689998626709,103.33432375530299L105.62976652781168,101.92392545798144L106.79053319295248,102.67336987476133L107.95129985809326,103.03098361038997L109.11206652323405,102.85349021715284L110.27283318837483,102.51286949221246L111.43359985351563,102.55216663263954L112.59436651865641,102.28059757756631L113.7551331837972,101.55326598400428L114.91589984893798,101.76370973239338L116.07666651407878,102.06842243844504L117.23743317921956,102.3311780823622L118.39819984436035,102.37727754685328L119.55896650950113,102.27548317394906L120.71973317464193,102.23150379328084L121.88049983978271,102.29711033151445L123.0412665049235,102.06880456892736L124.2020331700643,101.90589864251605L125.36279983520508,102.11146837086315L126.52356650034586,101.88956567801607L127.68433316548665,101.6191924541095L128.84509983062745,101.84913622680516L130.00586649576823,102.11688291871467L131.16663316090902,102.23718751081142L132.3273998260498,102.09025727307603L133.4881664911906,102.06132344518656L134.6489331563314,102.20568116806004L135.80969982147215,102.2515672542372L136.97046648661293,102.22690311328023L138.13123315175375,102.30534555430867L139.29199981689453,102.32546046348307L140.45276648203532,101.95648625153652L141.6135331471761,102.1034879936567L142.77429981231688,102.1806705617657L143.9350664774577,102.18606225660207L145.09583314259848,102.4301714325178L146.25659980773926,102.52374433116394L147.41736647288005,102.66209746372341L148.57813313802083,102.07484258346035L149.73889980316162,102.06979035832515L150.8996664683024,101.9910934825713L152.06043313344318,101.77734328128682L153.221199798584,101.41007118923626L154.38196646372478,101.53197917218603L155.54273312886556,101.53654079552604L156.70349979400635,101.65097856090122L157.86426645914713,101.91200274745995L159.02503312428792,101.70099144780228L160.1857997894287,102.12047325545345L161.3465664545695,101.76968565131071L162.5073331197103,101.44432849281154L163.66809978485108,101.34624390161439L164.82886644999186,101.19960760772062L165.98963311513265,101.42730389660089L167.15039978027343,101.56845177843095L168.31116644541422,102.11968293541963L169.471933110555,102.02351112357994L170.6326997756958,102.15589798202494L171.7934664408366,102.1870035001268L172.95423310597738,102.07286250263313L174.11499977111816,102.089245635675L175.27576643625895,101.85053313607901L176.43653310139973,101.91917796237576L177.59729976654052,101.52459812055037L178.75806643168133,102.12434878452828L179.9188330968221,101.96581834484023L181.0795997619629,101.97629926011881L182.24036642710368,101.9134514343611L183.40113309224446,102.04242005236712L184.56189975738525,101.73102130620676L185.72266642252603,101.47796185933962L186.88343308766682,101.49987445573859L188.04419975280763,100.87974515630538L189.2049664179484,100.99832434651466L190.3657330830892,101.2264247805264L191.52649974822998,100.81563963666102L192.68726641337076,100.93752055007711L193.84803307851155,101.0365568800346L195.00879974365233,100.95245289528202L196.16956640879314,101.33485575323118L197.33033307393393,101.6780038441517L198.4910997390747,101.73344609819719L199.6518664042155,101.36755438669954L200.81263306935628,101.10232988651705L201.97339973449706,101.0471575863825L203.13416639963785,101.17474250744182L204.29493306477863,101.18140805064161L205.45569972991944,100.58560371294556L206.61646639506023,100.89032962957104L207.777233060201,100.7929479420482L208.9379997253418,100.49398420228157L210.09876639048258,100.71656823002473L211.25953305562336,100.80301759418855L212.42029972076415,100.68160566683886L213.58106638590496,100.52223768093984L214.74183305104575,100.71003751414248L215.90259971618653,100.79437975767526L217.0633663813273,100.38889325762116L218.2241330464681,100.06593280677363L219.38489971160888,100.04209108912413L220.54566637674967,100.10918766959047L221.70643304189045,100.1540524248951L222.86719970703126,100.40776065089585L224.02796637217205,100.70079265136886L225.18873303731283,100.38201081944585L226.3494997024536,100.69492843597872L227.5102663675944,100.87082010875031L228.67103303273518,101.20092838748425L229.83179969787597,100.66529038894812L230.99256636301678,100.33453894684754L232.15333302815756,100.57558204102722L233.31409969329835,99.95615679493945L234.47486635843913,100.49240980495306L235.6356330235799,100.55247277833722L236.7963996887207,100.3745951182138L237.95716635386148,100.61415582552995L239.11793301900227,100.54298462061834L240.27869968414308,100.16069347590955L241.43946634928386,100.27805322854417L242.60023301442465,100.20515544224844L243.76099967956543,99.99008206159809L244.9217663447062,100.42847492015717L246.082533009847,100.40708803410237L247.24329967498778,100.07542830216339L248.4040663401286,100.27630429188308L249.56483300526938,100.07679958729429L250.72559967041016,100.14262722768554L251.88636633555095,100.0234982114814L253.04713300069173,99.82144890998572L254.2078996658325,99.47060353410706" fill="none"></path></g><g><path style="fill: none;" stroke="rgb(0, 119, 187)" stroke-width="2px" d="M29.019166628519695,-5.84451296425209L30.179933293660483,3.648183601512102L31.34069995880127,11.925704052860226L32.50146662394206,19.268827896365707L33.66223328908285,25.876386380939437L34.82299995422363,31.61876279861079L35.983766619364424,36.97055894094811L37.14453328450521,41.763991769097714L38.305299949646,46.26749655992222L39.46606661478678,50.26501001539549L40.626833279927574,53.89308258786379L41.78759994506836,57.44531872724545L42.94836661020915,60.6758491311725L44.10913327534993,63.81586710110088L45.269899940490724,66.56045854847285L46.43066660563151,69.01049735428923L47.5914332707723,71.48535455651128L48.75219993591308,73.83084162728893L49.912966601053874,76.4205022553647L51.07373326619466,78.48235629412311L52.23449993133545,80.50216004019622L53.39526659647624,82.52506741290091L54.556033261617024,84.38193618038045L55.716799926757815,86.36889601466392L56.8775665918986,87.89348291844998L58.03833325703939,89.478700783527L59.199099922180174,90.74121434071593L60.359866587320965,92.50706651634398L61.52063325246175,93.78318093018265L62.68139991760254,95.38785960723673L63.842166582743324,96.54036835505497L65.00293324788412,97.87668624162293L66.1636999130249,98.89189305687663L67.3244665781657,100.13700782450996L68.48523324330647,101.37811308450252L69.64599990844727,102.46314306988441L70.80676657358805,103.52837714530604L71.96753323872885,104.47193729150271L73.12829990386963,105.32431226658397L74.28906656901042,106.34710425452892L75.4498332341512,107.40348168958981L76.610599899292,108.37262919709471L77.77136656443278,109.10773015600893L78.93213322957357,109.96266412037471L80.09289989471435,110.865195879435L81.25366655985515,111.70205483644645L82.41443322499593,112.66265929363749L83.57519989013672,113.40444273114235L84.7359665552775,114.06919368208432L85.8967332204183,114.70845495675873L87.05749988555908,115.37363564260913L88.21826655069987,116.01549161535222L89.37903321584066,116.76663992421152L90.53979988098145,117.40320043631597L91.70056654612223,118.36576414458446L92.86133321126302,121.23925470204142L94.02209987640381,123.86939358326356L95.1828665415446,125.72086798095626L96.34363320668538,127.11923010661067L97.50439987182617,127.93627570301572L98.66516653696696,128.7302177883853L99.82593320210775,129.2884122041312L100.98669986724853,129.68990398740354L102.14746653238932,130.0551714238524L103.30823319753011,130.21074309863988L104.4689998626709,130.50866962206538L105.62976652781168,130.72447908210196L106.79053319295248,130.84019818920387L107.95129985809326,131.10070280880217L109.11206652323405,131.33411696998485L110.27283318837483,131.0800957994751L111.43359985351563,131.38148133113137L112.59436651865641,131.54031812476902L113.7551331837972,131.66295098524188L114.91589984893798,131.6710252673128L116.07666651407878,131.85371168074937L117.23743317921956,132.21302291360988L118.39819984436035,132.1270041351796L119.55896650950113,132.2391899072644L120.71973317464193,132.41603828441043L121.88049983978271,132.3687429214089L123.0412665049235,132.58904516124025L124.2020331700643,132.87285050956666L125.36279983520508,132.8581172987098L126.52356650034586,132.9024865644914L127.68433316548665,132.856938077672L128.84509983062745,132.89246260916073L130.00586649576823,133.09014313365287L131.16663316090902,133.23636128471114L132.3273998260498,133.42030068103185L133.4881664911906,133.24298447823566L134.6489331563314,133.60752123938025L135.80969982147215,133.98049708070025L136.97046648661293,133.91189965675431L138.13123315175375,133.89312656383302L139.29199981689453,134.29879506265968L140.45276648203532,134.52139862312194L141.6135331471761,134.89383830899243L142.77429981231688,134.7796352415342L143.9350664774577,134.58681283744636L145.09583314259848,134.75379832870036L146.25659980773926,134.73052458417447L147.41736647288005,135.07223668237134L148.57813313802083,135.12221787723342L149.73889980316162,135.15699698806543L150.8996664683024,135.23628343482585L152.06043313344318,135.27756112835334L153.221199798584,135.23909715580885L154.38196646372478,135.4183551873023L155.54273312886556,135.28264350602316L156.70349979400635,135.34302064292604L157.86426645914713,135.45408428488145L159.02503312428792,135.35872947808346L160.1857997894287,135.42906950136555L161.3465664545695,135.58873322345784L162.5073331197103,135.70416301481043L163.66809978485108,135.46047378138599L164.82886644999186,135.49303878663486L165.98963311513265,135.58906906349074L167.15039978027343,135.7875652814076L168.31116644541422,135.9196650436739L169.471933110555,136.06133220448604L170.6326997756958,136.1735890345659L171.7934664408366,136.08941132960203L172.95423310597738,136.31843736900782L174.11499977111816,136.02212366155527L175.27576643625895,136.15299395557082L176.43653310139973,136.17538913204703L177.59729976654052,136.31327856670808L178.75806643168133,136.11402929209623L179.9188330968221,135.94579248411802L181.0795997619629,136.1028144579437L182.24036642710368,136.22331891676149L183.40113309224446,136.30838944829094L184.56189975738525,136.40465452182121L185.72266642252603,136.56627968478978L186.88343308766682,136.71025221045292L188.04419975280763,136.76467855193414L189.2049664179484,136.783270785112L190.3657330830892,137.03488007404007L191.52649974822998,137.0917920438282L192.68726641337076,137.13731263751805L193.84803307851155,137.14928039350022L195.00879974365233,137.1297218205557L196.16956640879314,137.1299181927514L197.33033307393393,137.22269435927404L198.4910997390747,137.27267294530827L199.6518664042155,137.22695865481984L200.81263306935628,137.39534548921642L201.97339973449706,137.50533581414152L203.13416639963785,137.07482701671006L204.29493306477863,137.07765246672977L205.45569972991944,137.23188314808502L206.61646639506023,137.23843272141892L207.777233060201,137.27150953600727L208.9379997253418,137.4214942514732L210.09876639048258,137.5592290953205L211.25953305562336,137.39893232597208L212.42029972076415,137.44538903871762L213.58106638590496,137.6422951876672L214.74183305104575,137.78486654064102L215.90259971618653,137.64409893740464L217.0633663813273,137.81994745061624L218.2241330464681,137.82353727666785L219.38489971160888,137.95457080091762L220.54566637674967,138.00598170649545L221.70643304189045,138.3216384233556L222.86719970703126,137.99548864480272L224.02796637217205,137.98110184669656L225.18873303731283,137.93801826003826L226.3494997024536,138.07102625187613L227.5102663675944,138.10685586727607L228.67103303273518,138.1800753670324L229.83179969787597,138.08274307464313L230.99256636301678,138.1990906764101L232.15333302815756,138.22810704646815L233.31409969329835,138.28342225765357L234.47486635843913,138.56376829472322L235.6356330235799,138.61597266483545L236.7963996887207,138.3735941600848L237.95716635386148,138.29547898644415L239.11793301900227,138.33555581739193L240.27869968414308,138.44690033792142L241.43946634928386,138.70597556021517L242.60023301442465,138.6727847562109L243.76099967956543,138.78933816054453L244.9217663447062,138.89571832036006L246.082533009847,138.84209813131062L247.24329967498778,139.01515576228653L248.4040663401286,138.87566835665902L249.56483300526938,139.0522025783209L250.72559967041016,138.85145875442655L251.88636633555095,138.90904605059117L253.04713300069173,139.10329209645744L254.2078996658325,139.0954983632776" fill="none"></path></g></g></g></g><g opacity="0.2"><g><g><g><path style="fill: none;" stroke="rgb(204, 51, 17)" stroke-width="2px" d="M25.53686663309733,-17.902322991044258L26.69763329823812,0.8512981202272272L27.858399963378908,-1.202802555058554L29.019166628519695,8.143287794327847L30.179933293660483,17.728041100631543L31.34069995880127,26.986319800707008L32.50146662394206,33.99564278022689L33.66223328908285,31.41691604884153L34.82299995422363,42.35934744243758L35.983766619364424,49.44558108971481L37.14453328450521,41.951768227944115L38.305299949646,44.385192055507815L39.46606661478678,40.31189669227618L40.626833279927574,43.909546981643246L41.78759994506836,55.61628731542254L42.94836661020915,53.108947326261784L44.10913327534993,65.05272689290962L45.269899940490724,54.71199541151712L46.43066660563151,71.16362458958473L47.5914332707723,66.54863366919808L48.75219993591308,72.26621481287343L49.912966601053874,66.34961732108968L51.07373326619466,65.18610072859408L52.23449993133545,76.23888008216791L53.39526659647624,72.3854402189068L54.556033261617024,84.9830502150828L55.716799926757815,71.53212019506508L56.8775665918986,76.66236200103853L58.03833325703939,63.22261854218094L59.199099922180174,86.68147372951444L60.359866587320965,85.30747680756107L61.52063325246175,83.3772279279351L62.68139991760254,83.4333973568383L63.842166582743324,84.71024009663732L65.00293324788412,89.68132430816192L66.1636999130249,78.60039496479784L67.3244665781657,88.4702791097161L68.48523324330647,88.62201979381155L69.64599990844727,81.9645798460871L70.80676657358805,78.14319017410024L71.96753323872885,86.64500929346441L73.12829990386963,84.66395172212133L74.28906656901042,86.98036950516557L75.4498332341512,93.93224202726134L76.610599899292,92.33608864965028L77.77136656443278,93.56637375416142L78.93213322957357,84.76699700358832L80.09289989471435,91.72142342330854L81.25366655985515,84.36199616497127L82.41443322499593,91.9412952421137L83.57519989013672,97.30555321683478L84.7359665552775,77.03900886443206L85.8967332204183,92.24318552392512L87.05749988555908,88.77896618616386L88.21826655069987,81.18453138987333L89.37903321584066,96.63761923445082L90.53979988098145,97.40058595048319L91.70056654612223,98.16252050022325L92.86133321126302,104.52402246107887L94.02209987640381,102.36330675924403L95.1828665415446,104.36292292530534L96.34363320668538,103.61511640667305L97.50439987182617,102.26091423116351L98.66516653696696,103.08067457152485L99.82593320210775,103.30097475973989L100.98669986724853,102.84747026480164L102.14746653238932,102.46126464400542L103.30823319753011,103.59735743485321L104.4689998626709,103.7224861793252L105.62976652781168,99.80832801199912L106.79053319295248,103.7975364999312L107.95129985809326,103.56740421383292L109.11206652323405,102.58725012729712L110.27283318837483,102.00193840480189L111.43359985351563,102.6111123432802L112.59436651865641,101.87324399495647L113.7551331837972,100.46226859366125L114.91589984893798,102.07937535497706L116.07666651407878,102.52549149752251L117.23743317921956,102.72531154823795L118.39819984436035,102.4464267435899L119.55896650950113,102.12279161459269L120.71973317464193,102.16553472227854L121.88049983978271,102.39552013886488L123.0412665049235,101.72634592504669L124.2020331700643,101.66153975289913L125.36279983520508,102.41982296338378L126.52356650034586,101.55671163874544L127.68433316548665,101.21363261824963L128.84509983062745,102.19405188584867L130.00586649576823,102.51850295657893L131.16663316090902,102.41764439895654L132.3273998260498,101.86986191647297L133.4881664911906,102.01792270335235L134.6489331563314,102.4222177523703L135.80969982147215,102.3203963835029L136.97046648661293,102.18990690184476L138.13123315175375,102.42300921585135L139.29199981689453,102.35563282724469L140.45276648203532,101.40302493361669L141.6135331471761,102.32399060683699L142.77429981231688,102.2964444139292L143.9350664774577,102.19414979885663L145.09583314259848,102.79633519639137L146.25659980773926,102.66410367913316L147.41736647288005,102.86962716256264L148.57813313802083,101.19396026306578L149.73889980316162,102.06221202062234L150.8996664683024,101.87304816894053L152.06043313344318,101.45671797936008L153.221199798584,100.85916305116042L154.38196646372478,101.71484114661067L155.54273312886556,101.54338323053607L156.70349979400635,101.82263520896399L157.86426645914713,102.30353902729807L159.02503312428792,101.38447449831578L160.1857997894287,102.74969596693019L161.3465664545695,101.24350424509662L162.5073331197103,100.95629275506278L163.66809978485108,101.19911701481865L164.82886644999186,100.97965316688001L165.98963311513265,101.7688483299213L167.15039978027343,101.78017360117603L168.31116644541422,102.94652967090266L169.471933110555,101.87925340582038L170.6326997756958,102.35447826969242L171.7934664408366,102.23366177727961L172.95423310597738,101.90165100639263L174.11499977111816,102.11382033523779L175.27576643625895,101.49246438668503L176.43653310139973,102.02214520182089L177.59729976654052,100.93272835781228L178.75806643168133,103.02397478049517L179.9188330968221,101.7280226853081L181.0795997619629,101.99202063303666L182.24036642710368,101.81917969572453L183.40113309224446,102.23587297937617L184.56189975738525,101.26392318696621L185.72266642252603,101.09837268903888L186.88343308766682,101.53274335033709L188.04419975280763,99.94955120715552L189.2049664179484,101.1761931318286L190.3657330830892,101.568575431544L191.52649974822998,100.19946192086294L192.68726641337076,101.12034192020128L193.84803307851155,101.18511137497084L195.00879974365233,100.82629691815313L196.16956640879314,101.90846004015494L197.33033307393393,102.19272598053246L198.4910997390747,101.81660947926541L199.6518664042155,100.8187168194531L200.81263306935628,100.70449313624333L201.97339973449706,100.96439913618063L203.13416639963785,101.3661198890308L204.29493306477863,101.19140636544134L205.45569972991944,99.69189720640145L206.61646639506023,101.34741850450929L207.777233060201,100.64687541076395L208.9379997253418,100.04553859263162L210.09876639048258,101.05044427163949L211.25953305562336,100.93269164043429L212.42029972076415,100.49948777581434L213.58106638590496,100.28318570209127L214.74183305104575,100.99173726394649L215.90259971618653,100.92089312297436L217.0633663813273,99.78066350754003L218.2241330464681,99.58149213050237L219.38489971160888,100.00632851264986L220.54566637674967,100.20983254029002L221.70643304189045,100.22134955785204L222.86719970703126,100.78832298989695L224.02796637217205,101.14034065207835L225.18873303731283,99.90383807156135L226.3494997024536,101.16430486077806L227.5102663675944,101.13465761790766L228.67103303273518,101.69609080558516L229.83179969787597,99.8618333911439L230.99256636301678,99.8384117836967L232.15333302815756,100.93714668229674L233.31409969329835,99.02701892580777L234.47486635843913,101.2967893199735L235.6356330235799,100.64256723841346L236.7963996887207,100.10777862802871L237.95716635386148,100.97349688650415L239.11793301900227,100.43622781325094L240.27869968414308,99.58725675884637L241.43946634928386,100.45409285749608L242.60023301442465,100.09580876280485L243.76099967956543,99.66747199062257L244.9217663447062,101.08606420799582L246.082533009847,100.37500770502014L247.24329967498778,99.57793870425493L248.4040663401286,100.57761827646263L249.56483300526938,99.77754253041111L250.72559967041016,100.24136868827244L251.88636633555095,99.84480468717514L253.04713300069173,99.51837495774222L254.2078996658325,98.94433547028908" fill="none"></path></g><g><path style="fill: none;" stroke="rgb(0, 119, 187)" stroke-width="2px" d="M27.858399963378908,-0.9983112379213708L29.019166628519695,8.472471327109815L30.179933293660483,17.222891573699883L31.34069995880127,23.99440833512213L32.50146662394206,30.098509237160897L33.66223328908285,35.68784065923535L34.82299995422363,40.180244493648445L35.983766619364424,44.969128916182854L37.14453328450521,48.93848962145847L38.305299949646,53.01393091144803L39.46606661478678,56.2565812715994L40.626833279927574,59.332632648696475L41.78759994506836,62.77216974903297L42.94836661020915,65.52082450574346L44.10913327534993,68.52541570585996L45.269899940490724,70.67709485300125L46.43066660563151,72.68542119706288L47.5914332707723,75.19755892361398L48.75219993591308,77.34902592590468L49.912966601053874,80.30496252047936L51.07373326619466,81.57512269748467L52.23449993133545,83.53185704576552L53.39526659647624,85.55942329589247L54.556033261617024,87.16723648086884L55.716799926757815,89.34933393581827L56.8775665918986,90.18036243151305L58.03833325703939,91.85652705546705L59.199099922180174,92.6349844253014L60.359866587320965,95.15584456897881L61.52063325246175,95.69735245953521L62.68139991760254,97.79487755385394L63.842166582743324,98.26913144706364L65.00293324788412,99.88116305079988L66.1636999130249,100.41470327033305L67.3244665781657,102.00467996902493L68.48523324330647,103.23977097034376L69.64599990844727,104.09068804578165L70.80676657358805,105.12622825715691L71.96753323872885,105.8872775101166L73.12829990386963,106.60287472883671L74.28906656901042,107.88129223618053L75.4498332341512,108.98804784201647L76.610599899292,109.82635045826139L77.77136656443278,110.21038159433903L78.93213322957357,111.2450650668946L80.09289989471435,112.21899351800722L81.25366655985515,112.95734327195343L82.41443322499593,114.10356597941704L83.57519989013672,114.51711788739644L84.7359665552775,115.06632010849552L85.8967332204183,115.66734686876933L87.05749988555908,116.3714066713841L88.21826655069987,116.97827557446652L89.37903321584066,117.89336238750019L90.53979988098145,118.35804120447256L91.70056654612223,119.80960970698706L92.86133321126302,125.54949053822668L94.02209987640381,127.81460190509668L95.1828665415446,128.49807957749525L96.34363320668538,129.21677329509228L97.50439987182617,129.16184409762332L98.66516653696696,129.9211309164396L99.82593320210775,130.12570382775007L100.98669986724853,130.29214166231208L102.14746653238932,130.6030725785257L103.30823319753011,130.44410061082112L104.4689998626709,130.9555594072036L105.62976652781168,131.04819327215685L106.79053319295248,131.01377684985675L107.95129985809326,131.49145973819964L109.11206652323405,131.68423821175884L110.27283318837483,130.69906404371045L111.43359985351563,131.83355962861577L112.59436651865641,131.77857331522551L113.7551331837972,131.84690027595116L114.91589984893798,131.68313669041922L116.07666651407878,132.1277413009042L117.23743317921956,132.75198976290062L118.39819984436035,131.99797596753416L119.55896650950113,132.40746856539164L120.71973317464193,132.68131085012945L121.88049983978271,132.29779987690662L123.0412665049235,132.91949852098728L124.2020331700643,133.2985585320563L125.36279983520508,132.83601748242452L126.52356650034586,132.96904046316376L127.68433316548665,132.78861534744294L128.84509983062745,132.94574940639384L130.00586649576823,133.3866639203911L131.16663316090902,133.45568851129852L132.3273998260498,133.69620977551287L133.4881664911906,132.97701017404134L134.6489331563314,134.15432638109718L135.80969982147215,134.53996084268024L136.97046648661293,133.80900352083546L138.13123315175375,133.86496692445107L139.29199981689453,134.90729781089965L140.45276648203532,134.85530396381535L141.6135331471761,135.45249783779815L142.77429981231688,134.60833064034688L143.9350664774577,134.29757923131456L145.09583314259848,135.0042765655814L146.25659980773926,134.69561396738567L147.41736647288005,135.58480482966664L148.57813313802083,135.19718966952658L149.73889980316162,135.20916565431344L150.8996664683024,135.35521310496648L152.06043313344318,135.33947766864463L153.221199798584,135.18140119699206L154.38196646372478,135.68724223454248L155.54273312886556,135.0790759841045L156.70349979400635,135.43358634828036L157.86426645914713,135.62067974781453L159.02503312428792,135.2156972678865L160.1857997894287,135.5345795362887L161.3465664545695,135.82822880659631L162.5073331197103,135.8773077018393L163.66809978485108,135.09493993124931L164.82886644999186,135.54188629450817L165.98963311513265,135.73311447877458L167.15039978027343,136.0853096082829L168.31116644541422,136.11781468707332L169.471933110555,136.27383294570427L170.6326997756958,136.34197427968567L171.7934664408366,135.96314477215623L172.95423310597738,136.66197642811647L174.11499977111816,135.57765310037644L175.27576643625895,136.34929939659412L176.43653310139973,136.2089818967614L177.59729976654052,136.52011271869964L178.75806643168133,135.8151553801785L179.9188330968221,135.69343727215067L181.0795997619629,136.33834741868225L182.24036642710368,136.40407560498815L183.40113309224446,136.4359952455851L184.56189975738525,136.5490521321166L185.72266642252603,136.80871742924265L186.88343308766682,136.92621099894762L188.04419975280763,136.84631806415595L189.2049664179484,136.8111591348788L190.3657330830892,137.41229400743222L191.52649974822998,137.17715999851035L192.68726641337076,137.20559352805282L193.84803307851155,137.16723202747346L195.00879974365233,137.10038396113896L196.16956640879314,137.13021275104495L197.33033307393393,137.36185860905803L198.4910997390747,137.34764082435964L199.6518664042155,137.1583872190872L200.81263306935628,137.64792574081127L201.97339973449706,137.67032130152919L203.13416639963785,136.42906382056282L204.29493306477863,137.08189064175934L205.45569972991944,137.46322917011793L206.61646639506023,137.24825708141972L207.777233060201,137.3211247578898L208.9379997253418,137.64647132467212L210.09876639048258,137.76583136109144L211.25953305562336,137.1584871719495L212.42029972076415,137.51507410783597L213.58106638590496,137.93765441109156L214.74183305104575,137.99872357010173L215.90259971618653,137.4329475325501L217.0633663813273,138.08372022043363L218.2241330464681,137.82892201574523L219.38489971160888,138.1511210872923L220.54566637674967,138.08309806486218L221.70643304189045,138.79512349864586L222.86719970703126,137.50626397697334L224.02796637217205,137.95952164953732L225.18873303731283,137.87339288005083L226.3494997024536,138.2705382396329L227.5102663675944,138.160600290376L228.67103303273518,138.2899046166669L229.83179969787597,137.93674463605922L230.99256636301678,138.37361207906054L232.15333302815756,138.2716316015552L233.31409969329835,138.36639507443172L234.47486635843913,138.98428735032766L235.6356330235799,138.6942792200038L236.7963996887207,138.01002640295883L237.95716635386148,138.1783062259832L239.11793301900227,138.39567106381358L240.27869968414308,138.61391711871562L241.43946634928386,139.09458839365578L242.60023301442465,138.6229985502045L243.76099967956543,138.96416826704495L244.9217663447062,139.0552885600834L246.082533009847,138.76166784773645L247.24329967498778,139.27474220875038L248.4040663401286,138.6664372482178L249.56483300526938,139.31700391081375L250.72559967041016,138.550343018585L251.88636633555095,138.99542699483814L253.04713300069173,139.39466116525685L254.2078996658325,139.08380776350788" fill="none"></path></g></g></g></g></g></g><g transform="translate(51, 177)" clip-path="url(#clip_1)"><clipPath id="clip_1"><rect width="278" height="22"></rect></clipPath><g><g><line x1="0" y1="0" x2="0" y2="5" style="visibility: inherit;" fill="rgb(0, 0, 0)" stroke="rgb(204, 204, 204)" stroke-width="1px"></line><line x1="23.215333302815754" y1="0" x2="23.215333302815754" y2="5" style="visibility: inherit;" fill="rgb(0, 0, 0)" stroke="rgb(204, 204, 204)" stroke-width="1px"></line><line x1="46.43066660563151" y1="0" x2="46.43066660563151" y2="5" style="visibility: inherit;" fill="rgb(0, 0, 0)" stroke="rgb(204, 204, 204)" stroke-width="1px"></line><line x1="69.64599990844727" y1="0" x2="69.64599990844727" y2="5" style="visibility: inherit;" fill="rgb(0, 0, 0)" stroke="rgb(204, 204, 204)" stroke-width="1px"></line><line x1="92.86133321126302" y1="0" x2="92.86133321126302" y2="5" style="visibility: inherit;" fill="rgb(0, 0, 0)" stroke="rgb(204, 204, 204)" stroke-width="1px"></line><line x1="116.07666651407878" y1="0" x2="116.07666651407878" y2="5" style="visibility: inherit;" fill="rgb(0, 0, 0)" stroke="rgb(204, 204, 204)" stroke-width="1px"></line><line x1="139.29199981689453" y1="0" x2="139.29199981689453" y2="5" style="visibility: inherit;" fill="rgb(0, 0, 0)" stroke="rgb(204, 204, 204)" stroke-width="1px"></line><line x1="162.5073331197103" y1="0" x2="162.5073331197103" y2="5" style="visibility: inherit;" fill="rgb(0, 0, 0)" stroke="rgb(204, 204, 204)" stroke-width="1px"></line><line x1="185.72266642252603" y1="0" x2="185.72266642252603" y2="5" style="visibility: inherit;" fill="rgb(0, 0, 0)" stroke="rgb(204, 204, 204)" stroke-width="1px"></line><line x1="208.9379997253418" y1="0" x2="208.9379997253418" y2="5" style="visibility: inherit;" fill="rgb(0, 0, 0)" stroke="rgb(204, 204, 204)" stroke-width="1px"></line><line x1="232.15333302815756" y1="0" x2="232.15333302815756" y2="5" style="visibility: inherit;" fill="rgb(0, 0, 0)" stroke="rgb(204, 204, 204)" stroke-width="1px"></line><line x1="255.3686663309733" y1="0" x2="255.3686663309733" y2="5" style="visibility: inherit;" fill="rgb(0, 0, 0)" stroke="rgb(204, 204, 204)" stroke-width="1px"></line><line x1="278.58399963378906" y1="0" x2="278.58399963378906" y2="5" style="visibility: inherit;" fill="rgb(0, 0, 0)" stroke="rgb(204, 204, 204)" stroke-width="1px"></line></g><g transform="translate(0, 8)"><text style="text-anchor: middle; visibility: hidden; font-family: &quot;Helvetica Neue&quot;, sans-serif; font-size: 12px; font-weight: 200;" x="0" y="0" dx="0em" dy="0.95em" fill="rgb(50, 49, 63)" stroke="none" stroke-width="1px">-20</text><text style="text-anchor: middle; visibility: inherit; font-family: &quot;Helvetica Neue&quot;, sans-serif; font-size: 12px; font-weight: 200;" x="23.215333302815754" y="0" dx="0em" dy="0.95em" fill="rgb(50, 49, 63)" stroke="none" stroke-width="1px">0</text><text style="text-anchor: middle; visibility: hidden; font-family: &quot;Helvetica Neue&quot;, sans-serif; font-size: 12px; font-weight: 200;" x="46.43066660563151" y="0" dx="0em" dy="0.95em" fill="rgb(50, 49, 63)" stroke="none" stroke-width="1px">20</text><text style="text-anchor: middle; visibility: inherit; font-family: &quot;Helvetica Neue&quot;, sans-serif; font-size: 12px; font-weight: 200;" x="69.64599990844727" y="0" dx="0em" dy="0.95em" fill="rgb(50, 49, 63)" stroke="none" stroke-width="1px">40</text><text style="text-anchor: middle; visibility: hidden; font-family: &quot;Helvetica Neue&quot;, sans-serif; font-size: 12px; font-weight: 200;" x="92.86133321126302" y="0" dx="0em" dy="0.95em" fill="rgb(50, 49, 63)" stroke="none" stroke-width="1px">60</text><text style="text-anchor: middle; visibility: inherit; font-family: &quot;Helvetica Neue&quot;, sans-serif; font-size: 12px; font-weight: 200;" x="116.07666651407878" y="0" dx="0em" dy="0.95em" fill="rgb(50, 49, 63)" stroke="none" stroke-width="1px">80</text><text style="text-anchor: middle; visibility: hidden; font-family: &quot;Helvetica Neue&quot;, sans-serif; font-size: 12px; font-weight: 200;" x="139.29199981689453" y="0" dx="0em" dy="0.95em" fill="rgb(50, 49, 63)" stroke="none" stroke-width="1px">100</text><text style="text-anchor: middle; visibility: inherit; font-family: &quot;Helvetica Neue&quot;, sans-serif; font-size: 12px; font-weight: 200;" x="162.5073331197103" y="0" dx="0em" dy="0.95em" fill="rgb(50, 49, 63)" stroke="none" stroke-width="1px">120</text><text style="text-anchor: middle; visibility: hidden; font-family: &quot;Helvetica Neue&quot;, sans-serif; font-size: 12px; font-weight: 200;" x="185.72266642252603" y="0" dx="0em" dy="0.95em" fill="rgb(50, 49, 63)" stroke="none" stroke-width="1px">140</text><text style="text-anchor: middle; visibility: inherit; font-family: &quot;Helvetica Neue&quot;, sans-serif; font-size: 12px; font-weight: 200;" x="208.9379997253418" y="0" dx="0em" dy="0.95em" fill="rgb(50, 49, 63)" stroke="none" stroke-width="1px">160</text><text style="text-anchor: middle; visibility: hidden; font-family: &quot;Helvetica Neue&quot;, sans-serif; font-size: 12px; font-weight: 200;" x="232.15333302815756" y="0" dx="0em" dy="0.95em" fill="rgb(50, 49, 63)" stroke="none" stroke-width="1px">180</text><text style="text-anchor: middle; visibility: inherit; font-family: &quot;Helvetica Neue&quot;, sans-serif; font-size: 12px; font-weight: 200;" x="255.3686663309733" y="0" dx="0em" dy="0.95em" fill="rgb(50, 49, 63)" stroke="none" stroke-width="1px">200</text><text style="text-anchor: middle; visibility: hidden; font-family: &quot;Helvetica Neue&quot;, sans-serif; font-size: 12px; font-weight: 200;" x="278.58399963378906" y="0" dx="0em" dy="0.95em" fill="rgb(50, 49, 63)" stroke="none" stroke-width="1px">220</text></g><line x1="0" y1="0" x2="278.58399963378906" y2="0" fill="rgb(0, 0, 0)" stroke="rgb(204, 204, 204)" stroke-width="1px"></line></g></g></g></g></svg>