<svg viewBox="0 0 330 200" xmlns="http://www.w3.org/2000/svg"><g><g><g><g><g><line x1="41.0620002746582" y1="177.95999908447266" x2="36.0620002746582" y2="177.95999908447266" style="visibility: inherit;" fill="rgb(0, 0, 0)" stroke="rgb(204, 204, 204)" stroke-width="1px"></line><line x1="41.0620002746582" y1="158.1866658528646" x2="36.0620002746582" y2="158.1866658528646" style="visibility: inherit;" fill="rgb(0, 0, 0)" stroke="rgb(204, 204, 204)" stroke-width="1px"></line><line x1="41.0620002746582" y1="138.41333262125653" x2="36.0620002746582" y2="138.41333262125653" style="visibility: inherit;" fill="rgb(0, 0, 0)" stroke="rgb(204, 204, 204)" stroke-width="1px"></line><line x1="41.0620002746582" y1="118.63999938964842" x2="36.0620002746582" y2="118.63999938964842" style="visibility: inherit;" fill="rgb(0, 0, 0)" stroke="rgb(204, 204, 204)" stroke-width="1px"></line><line x1="41.0620002746582" y1="98.86666615804035" x2="36.0620002746582" y2="98.86666615804035" style="visibility: inherit;" fill="rgb(0, 0, 0)" stroke="rgb(204, 204, 204)" stroke-width="1px"></line><line x1="41.0620002746582" y1="79.09333292643228" x2="36.0620002746582" y2="79.09333292643228" style="visibility: inherit;" fill="rgb(0, 0, 0)" stroke="rgb(204, 204, 204)" stroke-width="1px"></line><line x1="41.0620002746582" y1="59.31999969482419" x2="36.0620002746582" y2="59.31999969482419" style="visibility: inherit;" fill="rgb(0, 0, 0)" stroke="rgb(204, 204, 204)" stroke-width="1px"></line><line x1="41.0620002746582" y1="39.546666463216155" x2="36.0620002746582" y2="39.546666463216155" style="visibility: inherit;" fill="rgb(0, 0, 0)" stroke="rgb(204, 204, 204)" stroke-width="1px"></line><line x1="41.0620002746582" y1="19.773333231608035" x2="36.0620002746582" y2="19.773333231608035" style="visibility: inherit;" fill="rgb(0, 0, 0)" stroke="rgb(204, 204, 204)" stroke-width="1px"></line><line x1="41.0620002746582" y1="0" x2="36.0620002746582" y2="0" style="visibility: inherit;" fill="rgb(0, 0, 0)" stroke="rgb(204, 204, 204)" stroke-width="1px"></line></g><g transform="translate(31.062000274658203, 0)"><text style="text-anchor: end; visibility: hidden; font-family: &quot;Helvetica Neue&quot;, sans-serif; font-size: 12px; font-weight: 200;" x="0" y="177.95999908447266" dx="0em" dy="0.3em" fill="rgb(50, 49, 63)" stroke="none" stroke-width="1px">0.5</text><text style="text-anchor: end; visibility: inherit; font-family: &quot;Helvetica Neue&quot;, sans-serif; font-size: 12px; font-weight: 200;" x="0" y="158.1866658528646" dx="0em" dy="0.3em" fill="rgb(50, 49, 63)" stroke="none" stroke-width="1px">0.6</text><text style="text-anchor: end; visibility: hidden; font-family: &quot;Helvetica Neue&quot;, sans-serif; font-size: 12px; font-weight: 200;" x="0" y="138.41333262125653" dx="0em" dy="0.3em" fill="rgb(50, 49, 63)" stroke="none" stroke-width="1px">0.7</text><text style="text-anchor: end; visibility: inherit; font-family: &quot;Helvetica Neue&quot;, sans-serif; font-size: 12px; font-weight: 200;" x="0" y="118.63999938964842" dx="0em" dy="0.3em" fill="rgb(50, 49, 63)" stroke="none" stroke-width="1px">0.8</text><text style="text-anchor: end; visibility: hidden; font-family: &quot;Helvetica Neue&quot;, sans-serif; font-size: 12px; font-weight: 200;" x="0" y="98.86666615804035" dx="0em" dy="0.3em" fill="rgb(50, 49, 63)" stroke="none" stroke-width="1px">0.9</text><text style="text-anchor: end; visibility: inherit; font-family: &quot;Helvetica Neue&quot;, sans-serif; font-size: 12px; font-weight: 200;" x="0" y="79.09333292643228" dx="0em" dy="0.3em" fill="rgb(50, 49, 63)" stroke="none" stroke-width="1px">1</text><text style="text-anchor: end; visibility: hidden; font-family: &quot;Helvetica Neue&quot;, sans-serif; font-size: 12px; font-weight: 200;" x="0" y="59.31999969482419" dx="0em" dy="0.3em" fill="rgb(50, 49, 63)" stroke="none" stroke-width="1px">1.1</text><text style="text-anchor: end; visibility: inherit; font-family: &quot;Helvetica Neue&quot;, sans-serif; font-size: 12px; font-weight: 200;" x="0" y="39.546666463216155" dx="0em" dy="0.3em" fill="rgb(50, 49, 63)" stroke="none" stroke-width="1px">1.2</text><text style="text-anchor: end; visibility: hidden; font-family: &quot;Helvetica Neue&quot;, sans-serif; font-size: 12px; font-weight: 200;" x="0" y="19.773333231608035" dx="0em" dy="0.3em" fill="rgb(50, 49, 63)" stroke="none" stroke-width="1px">1.3</text><text style="text-anchor: end; visibility: hidden; font-family: &quot;Helvetica Neue&quot;, sans-serif; font-size: 12px; font-weight: 200;" x="0" y="0" dx="0em" dy="0.3em" fill="rgb(50, 49, 63)" stroke="none" stroke-width="1px">1.4</text></g><line x1="41.0620002746582" y1="0" x2="41.0620002746582" y2="177.95999908447266" fill="rgb(0, 0, 0)" stroke="rgb(204, 204, 204)" stroke-width="1px"></line></g></g><g transform="translate(41, 0)" clip-path="url(#clip_0)"><clipPath id="clip_0"><rect width="288" height="177"></rect></clipPath><g><g><g><line x1="0" y1="0" x2="0" y2="177.95999908447266" fill="rgb(0, 0, 0)" stroke="rgb(60, 60, 60)" stroke-width="1px" opacity="0.25"></line><line x1="24.07816664377848" y1="0" x2="24.07816664377848" y2="177.95999908447266" fill="rgb(0, 0, 0)" stroke="rgb(60, 60, 60)" stroke-width="1px" opacity="0.25"></line><line x1="48.15633328755696" y1="0" x2="48.15633328755696" y2="177.95999908447266" fill="rgb(0, 0, 0)" stroke="rgb(60, 60, 60)" stroke-width="1px" opacity="0.25"></line><line x1="72.23449993133545" y1="0" x2="72.23449993133545" y2="177.95999908447266" fill="rgb(0, 0, 0)" stroke="rgb(60, 60, 60)" stroke-width="1px" opacity="0.25"></line><line x1="96.31266657511392" y1="0" x2="96.31266657511392" y2="177.95999908447266" fill="rgb(0, 0, 0)" stroke="rgb(60, 60, 60)" stroke-width="1px" opacity="0.25"></line><line x1="120.39083321889242" y1="0" x2="120.39083321889242" y2="177.95999908447266" fill="rgb(0, 0, 0)" stroke="rgb(60, 60, 60)" stroke-width="1px" opacity="0.25"></line><line x1="144.4689998626709" y1="0" x2="144.4689998626709" y2="177.95999908447266" fill="rgb(0, 0, 0)" stroke="rgb(60, 60, 60)" stroke-width="1px" opacity="0.25"></line><line x1="168.5471665064494" y1="0" x2="168.5471665064494" y2="177.95999908447266" fill="rgb(0, 0, 0)" stroke="rgb(60, 60, 60)" stroke-width="1px" opacity="0.25"></line><line x1="192.62533315022785" y1="0" x2="192.62533315022785" y2="177.95999908447266" fill="rgb(0, 0, 0)" stroke="rgb(60, 60, 60)" stroke-width="1px" opacity="0.25"></line><line x1="216.70349979400635" y1="0" x2="216.70349979400635" y2="177.95999908447266" fill="rgb(0, 0, 0)" stroke="rgb(60, 60, 60)" stroke-width="1px" opacity="0.25"></line><line x1="240.78166643778485" y1="0" x2="240.78166643778485" y2="177.95999908447266" fill="rgb(0, 0, 0)" stroke="rgb(60, 60, 60)" stroke-width="1px" opacity="0.25"></line><line x1="264.8598330815633" y1="0" x2="264.8598330815633" y2="177.95999908447266" fill="rgb(0, 0, 0)" stroke="rgb(60, 60, 60)" stroke-width="1px" opacity="0.25"></line><line x1="288.9379997253418" y1="0" x2="288.9379997253418" y2="177.95999908447266" fill="rgb(0, 0, 0)" stroke="rgb(60, 60, 60)" stroke-width="1px" opacity="0.25"></line></g><g><line x1="0" y1="177.95999908447266" x2="288.9379997253418" y2="177.95999908447266" fill="rgb(0, 0, 0)" stroke="rgb(60, 60, 60)" stroke-width="1px" opacity="0.25"></line><line x1="0" y1="158.1866658528646" x2="288.9379997253418" y2="158.1866658528646" fill="rgb(0, 0, 0)" stroke="rgb(60, 60, 60)" stroke-width="1px" opacity="0.25"></line><line x1="0" y1="138.41333262125653" x2="288.9379997253418" y2="138.41333262125653" fill="rgb(0, 0, 0)" stroke="rgb(60, 60, 60)" stroke-width="1px" opacity="0.25"></line><line x1="0" y1="118.63999938964842" x2="288.9379997253418" y2="118.63999938964842" fill="rgb(0, 0, 0)" stroke="rgb(60, 60, 60)" stroke-width="1px" opacity="0.25"></line><line x1="0" y1="98.86666615804035" x2="288.9379997253418" y2="98.86666615804035" fill="rgb(0, 0, 0)" stroke="rgb(60, 60, 60)" stroke-width="1px" opacity="0.25"></line><line x1="0" y1="79.09333292643228" x2="288.9379997253418" y2="79.09333292643228" fill="rgb(0, 0, 0)" stroke="rgb(60, 60, 60)" stroke-width="1px" opacity="0.25"></line><line x1="0" y1="59.31999969482419" x2="288.9379997253418" y2="59.31999969482419" fill="rgb(0, 0, 0)" stroke="rgb(60, 60, 60)" stroke-width="1px" opacity="0.25"></line><line x1="0" y1="39.546666463216155" x2="288.9379997253418" y2="39.546666463216155" fill="rgb(0, 0, 0)" stroke="rgb(60, 60, 60)" stroke-width="1px" opacity="0.25"></line><line x1="0" y1="19.773333231608035" x2="288.9379997253418" y2="19.773333231608035" fill="rgb(0, 0, 0)" stroke="rgb(60, 60, 60)" stroke-width="1px" opacity="0.25"></line><line x1="0" y1="0" x2="288.9379997253418" y2="0" fill="rgb(0, 0, 0)" stroke="rgb(60, 60, 60)" stroke-width="1px" opacity="0.25"></line></g></g></g><g><g><line x1="0" y1="276.82666524251306" x2="288.9379997253418" y2="276.82666524251306" fill="rgb(0, 0, 0)" stroke="rgb(153, 153, 153)" stroke-width="1.5px"></line></g></g><g><g><line x1="24.07816664377848" y1="0" x2="24.07816664377848" y2="177.95999908447266" fill="rgb(0, 0, 0)" stroke="rgb(153, 153, 153)" stroke-width="1.5px"></line></g></g><g><g><g><g><g><path style="fill: none;" stroke="rgb(204, 51, 17)" stroke-width="2px" d="M30.097708304723106,-8.710684223119387L31.30161663691203,6.156923703993925L32.505524969100954,17.54169690398342L33.70943330128988,27.290324923643936L34.9133416334788,18.057646996149998L36.117249965667725,30.348136847407346L37.321158297856655,41.96454250962199L38.52506663004557,49.412861040625586L39.7289749622345,57.72152126067516L40.93288329442342,61.43877773770322L42.13679162661235,66.8190924157333L43.34069995880127,64.7703170191631L44.5446082909902,66.34812204169236L45.748516623179114,75.570935007161L46.952424955368045,74.47299961944275L48.15633328755696,78.44608649484056L49.36024161974589,86.79891606362429L50.56414995193481,89.71897669914179L51.76805828412374,95.3324347600827L52.971966616312656,96.98640916507647L54.17587494850159,99.56648556875412L55.37978328069052,98.23014296713298L56.583691612879434,102.38296073806907L57.787599945068365,102.00952879029475L58.99150827725728,102.05817961825157L60.19541660944621,98.43263242394288L61.39932494163513,103.26377052433062L62.60323327382406,107.20910988067362L63.807141606012976,109.08575903599832L65.01104993820191,108.6694271184754L66.21495827039082,114.19278242324123L67.41886660257975,114.70371621274478L68.62277493476867,117.42625276689951L69.8266832669576,119.86345481804014L71.03059159914652,118.61813359886906L72.23449993133545,120.19056566698819L73.43840826352437,114.3725960833231L74.64231659571331,117.11436604466232L75.84622492790223,118.84670912683836L77.05013326009114,119.45466892176069L78.25404159228006,120.03994344206392L79.457949924469,123.18812486547789L80.66185825665792,124.50533634739949L81.86576658884684,128.41275938397123L83.06967492103576,129.3338815456093L84.2735832532247,128.67789019947202L85.47749158541362,131.54272715299197L86.68139991760253,132.96099650015753L87.88530824979145,130.51996031756713L89.0892165819804,132.45525684156314L90.29312491416931,131.7880195749868L91.49703324635823,132.92770740044762L92.70094157854717,134.54799346686255L93.90484991073609,137.11456566015957L95.108758242925,136.833547150916L96.31266657511392,140.2651897328266L97.51657490730287,142.51627008702002L98.72048323949178,144.123688998034L99.9243915716807,145.1547679707187L101.12829990386962,145.26026524672466L102.33220823605856,145.21187641998597L103.53611656824748,145.4129212859061L104.7400249004364,145.76313607710009L105.94393323262531,145.97165265095197L107.14784156481426,146.11091501396268L108.35174989700317,145.79852528262202L109.55565822919209,146.4466498666939L110.75956656138104,146.99821614589192L111.96347489356995,147.07288964822422L113.16738322575887,147.34940306977145L114.37129155794779,147.10647028096665L115.57519989013673,146.75807456072718L116.77910822232565,147.042759482204L117.98301655451456,146.8812290264808L119.18692488670348,146.6682910914225L120.39083321889242,147.04523507293874L121.59474155108134,146.70682744245985L122.79864988327026,147.02497090444984L124.00255821545917,147.0226118800735L125.20646654764812,147.201557303092L126.41037487983704,147.40886835318253L127.61428321202595,146.84077176193063L128.8181915442149,146.84950966363695L130.02209987640381,147.65800823828675L131.22600820859273,148.2945976637202L132.42991654078165,147.5577936635521L133.6338248729706,147.74192514776223L134.8377332051595,147.5853231000515L136.04164153734843,147.4031048992483L137.24554986953734,147.28296402004614L138.4494582017263,147.6625877370679L139.6533665339152,148.31914913929987L140.85727486610412,148.15288214517264L142.06118319829304,147.80026885843932L143.26509153048198,147.48053058424688L144.4689998626709,147.96907858455387L145.67290819485982,148.11943390028884L146.87681652704873,148.34315220137307L148.08072485923765,148.33339340043105L149.28463319142662,148.39463246461344L150.48854152361554,148.48032950597974L151.69244985580445,148.74738589993245L152.89635818799337,148.87913104003445L154.1002665201823,148.93156101684121L155.3041748523712,149.21429750695785L156.50808318456012,149.1166981755706L157.71199151674904,148.76367680978493L158.915899848938,148.82756272381442L160.11980818112693,148.5485255757447L161.32371651331584,148.3891600768954L162.52762484550476,148.86314970142848L163.73153317769368,149.2058173094413L164.9354415098826,149.15024870584872L166.1393498420715,149.3108267944554L167.34325817426048,149.23268686517153L168.5471665064494,149.13889060964001L169.75107483863832,149.04994254932978L170.95498317082723,148.95620490524075L172.15889150301615,148.80798102590015L173.36279983520507,148.6905438590361L174.56670816739398,148.9452383285868L175.7706164995829,149.10516893430716L176.97452483177187,149.44799790320963L178.1784331639608,149.67495219858054L179.3823414961497,149.57735057910944L180.58624982833862,149.59080571270815L181.79015816052754,149.3015129986259L182.99406649271646,149.1147843894398L184.19797482490537,149.07374503392663L185.40188315709435,149.44221640010787L186.60579148928326,149.54657712302026L187.80969982147218,149.4064632232108L189.0136081536611,149.45835144657528L190.21751648585,149.23929960112446L191.42142481803893,149.4854108986296L192.62533315022785,149.28455668791815L193.82924148241676,149.4126354974164L195.03314981460574,149.25827318194885L196.23705814679465,149.72044757727957L197.44096647898357,149.84800152160932L198.64487481117249,149.49852345656598L199.8487831433614,149.36973452056617L201.05269147555032,149.48241094385742L202.25659980773924,149.31626145845854L203.4605081399282,149.70851210409472L204.66441647211713,149.97285562105753L205.86832480430604,150.1519879241126L207.07223313649496,149.52427696904996L208.27614146868387,149.35288403880625L209.4800498008728,149.41227780507364L210.6839581330617,149.57129279560905L211.88786646525062,149.62122736262313L213.0917747974396,149.45196051647451L214.29568312962851,149.6455787539007L215.49959146181743,149.31138503586715L216.70349979400635,149.30718764978596L217.90740812619526,149.8584379931356L219.11131645838418,150.29499190763124L220.3152247905731,150.14035662770385L221.51913312276207,150.10247383275092L222.723041454951,150.21938732509963L223.9269497871399,150.29149658179435L225.13085811932882,150.1136034862328L226.33476645151774,150.1652926889888L227.53867478370665,150.24859284481866L228.74258311589557,149.82035601610937L229.9464914480845,149.90589585135143L231.15039978027346,150.3612896922565L232.35430811246238,150.7267052915473L233.5582164446513,150.38691996949862L234.7621247768402,150.4602372380545L235.96603310902913,150.52919469093783L237.16994144121804,150.58501858415823L238.37384977340696,150.5261639094622L239.57775810559593,150.23843173274884L240.78166643778485,150.62758027707164L241.98557476997377,150.33745819776124L243.18948310216268,150.53878233479466L244.3933914343516,150.83067871051313L245.59729976654052,150.8005593215003L246.80120809872943,150.7333219403851L248.00511643091835,150.70688678525488L249.20902476310732,150.74673492994248L250.41293309529624,150.7904015738403L251.61684142748516,150.57428499750148L252.82074975967407,150.8085896146959L254.024658091863,150.822375764978L255.2285664240519,150.67784187643L256.4324747562408,150.42754843483385L257.6363830884298,150.81651729317363L258.8402914206187,150.63640472272135L260.04419975280763,150.67446726786858L261.24810808499655,150.80227878136043L262.45201641718546,150.8568177670536L263.6559247493744,150.79914859479675" fill="none"></path></g><g><path style="fill: none;" stroke="rgb(0, 119, 187)" stroke-width="2px" d="M31.30161663691203,-1.0112852267135395L32.505524969100954,8.329542134869484L33.70943330128988,16.43770232692728L34.9133416334788,24.27478208698338L36.117249965667725,31.19004893622099L37.321158297856655,37.933400802109816L38.52506663004557,43.58793608262411L39.7289749622345,49.023031852209556L40.93288329442342,53.870027480838075L42.13679162661235,58.03990267840442L43.34069995880127,62.52033469776377L44.5446082909902,66.22015164114778L45.748516623179114,69.93263773325958L46.952424955368045,73.26849611617784L48.15633328755696,76.14301787236403L49.36024161974589,78.77009121096391L50.56414995193481,81.82788313469656L51.76805828412374,84.7412667959781L52.971966616312656,87.2530306484967L54.17587494850159,89.62662686763531L55.37978328069052,92.14614827880561L56.583691612879434,94.2811414289316L57.787599945068365,95.92646003756735L58.99150827725728,97.94455715830154L60.19541660944621,100.08122011032833L61.39932494163513,101.53233015984989L62.60323327382406,103.3855379665955L63.807141606012976,104.79717141885158L65.01104993820191,106.50334755265297L66.21495827039082,108.39274092908198L67.41886660257975,110.16051561945466L68.62277493476867,111.3214259404491L69.8266832669576,112.73075054388794L71.03059159914652,114.06198729656879L72.23449993133545,115.76186410112086L73.43840826352437,117.09261067522814L74.64231659571331,118.07323918836468L75.84622492790223,119.35272293312751L77.05013326009114,120.74725878444123L78.25404159228006,121.9373947589269L79.457949924469,122.62012604898197L80.66185825665792,123.83051263307561L81.86576658884684,124.67748800381364L83.06967492103576,125.78527471764052L84.2735832532247,127.07903165722297L85.47749158541362,128.34907417521055L86.68139991760253,129.62262806408188L87.88530824979145,130.3267422620054L89.0892165819804,131.28724312217375L90.29312491416931,132.46745402729317L91.49703324635823,133.0278947540416L92.70094157854717,133.65995039810764L93.90484991073609,134.10943673040367L95.108758242925,135.5043259600075L96.31266657511392,138.62359865839142L97.51657490730287,140.34305913387644L98.72048323949178,141.72952646729942L99.9243915716807,143.01789544252964L101.12829990386962,143.74009163579564L102.33220823605856,144.35593406687556L103.53611656824748,144.49952411696188L104.7400249004364,144.65713324702344L105.94393323262531,144.7850384669136L107.14784156481426,145.06919326210763L108.35174989700317,145.47802852170048L109.55565822919209,145.65693776788055L110.75956656138104,145.46072760603982L111.96347489356995,145.77458899298216L113.16738322575887,145.74383090943502L114.37129155794779,145.882122817915L115.57519989013673,146.320247300216L116.77910822232565,146.18928214596542L117.98301655451456,146.3968298849051L119.18692488670348,146.1790934549819L120.39083321889242,146.4434464515124L121.59474155108134,146.831052115491L122.79864988327026,146.93798804768687L124.00255821545917,147.21775949015728L125.20646654764812,147.19543685424776L126.41037487983704,147.1673392773909L127.61428321202595,146.94260234934558L128.8181915442149,147.34752740737764L130.02209987640381,147.3687015010567L131.22600820859273,147.56053635477505L132.42991654078165,147.51279487969072L133.6338248729706,147.63144923590198L134.8377332051595,147.80284964838893L136.04164153734843,147.8622379161496L137.24554986953734,147.9710797075807L138.4494582017263,148.40231107806252L139.6533665339152,148.20210044490835L140.85727486610412,148.65738632910475L142.06118319829304,148.73650189328998L143.26509153048198,148.72459424528512L144.4689998626709,148.9495596946812L145.67290819485982,148.68728123142807L146.87681652704873,148.9525019815278L148.08072485923765,149.34199545335176L149.28463319142662,148.88005442836103L150.48854152361554,148.89124652295288L151.69244985580445,148.9714581846135L152.89635818799337,149.5183235823644L154.1002665201823,149.1903495130804L155.3041748523712,149.64651392132575L156.50808318456012,149.5572987275282L157.71199151674904,149.63368711775294L158.915899848938,149.7982646962598L160.11980818112693,150.04926995979966L161.32371651331584,149.79423802059938L162.52762484550476,150.02569132697423L163.73153317769368,149.78522003195846L164.9354415098826,149.4781797255739L166.1393498420715,149.27369806567654L167.34325817426048,149.76159023572535L168.5471665064494,150.07013740061885L169.75107483863832,149.82002460974797L170.95498317082723,149.97999484854236L172.15889150301615,149.99429179568057L173.36279983520507,150.02906278151676L174.56670816739398,150.24066716535177L175.7706164995829,149.95388605070593L176.97452483177187,149.8521881860252L178.1784331639608,150.2866691232522L179.3823414961497,150.64219114813358L180.58624982833862,150.14166051246644L181.79015816052754,150.3816090649068L182.99406649271646,150.71674899273552L184.19797482490537,150.8847572100603L185.40188315709435,150.83779146619196L186.60579148928326,150.42221666536776L187.80969982147218,150.47722893052426L189.0136081536611,150.66431002310895L190.21751648585,150.41412570157638L191.42142481803893,150.61486969122785L192.62533315022785,150.86418229592908L193.82924148241676,151.2964458006702L195.03314981460574,151.44704902444076L196.23705814679465,151.2028302433376L197.44096647898357,151.32923039645885L198.64487481117249,151.10882670463326L199.8487831433614,150.86534044421686L201.05269147555032,151.24653235695132L202.25659980773924,151.38888097875056L203.4605081399282,151.7104450851804L204.66441647211713,151.6090066400252L205.86832480430604,151.30254112223534L207.07223313649496,151.36714471789622L208.27614146868387,151.6388843502142L209.4800498008728,151.6971191447519L210.6839581330617,151.63232837004566L211.88786646525062,151.3920624413888L213.0917747974396,151.40961383230683L214.29568312962851,151.56690176016804L215.49959146181743,151.6449535063791L216.70349979400635,151.913975641957L217.90740812619526,151.7618624057771L219.11131645838418,151.62144757368173L220.3152247905731,151.65517949733442L221.51913312276207,151.82837508880368L222.723041454951,151.61149642927828L223.9269497871399,151.44636061888517L225.13085811932882,151.712696280631L226.33476645151774,151.6621159865103L227.53867478370665,152.1750189147768L228.74258311589557,152.12712575853234L229.9464914480845,151.81504920233346L231.15039978027346,151.89605807502414L232.35430811246238,151.82408969422144L233.5582164446513,151.91478149512415L234.7621247768402,151.86663161189898L235.96603310902913,152.2314825246648L237.16994144121804,152.175613633176L238.37384977340696,152.24131008774012L239.57775810559593,152.4195932653469L240.78166643778485,152.6360912011072L241.98557476997377,152.6370247507228L243.18948310216268,153.0213879155253L244.3933914343516,152.16206214401922L245.59729976654052,152.08539437699284L246.80120809872943,152.48615191480621L248.00511643091835,152.304862474515L249.20902476310732,152.21696857796866L250.41293309529624,152.48079950042597L251.61684142748516,152.6581958047838L252.82074975967407,153.1105475521157L254.024658091863,153.4138981863541L255.2285664240519,153.40939552858566L256.4324747562408,153.41046068360515L257.6363830884298,153.25466887811942L258.8402914206187,153.2462874515659L260.04419975280763,152.9463725389793L261.24810808499655,153.32873001807957L262.45201641718546,153.61788449546677L263.6559247493744,153.07801419296447" fill="none"></path></g></g></g></g><g opacity="0.2"><g><g><g><path style="fill: none;" stroke="rgb(204, 51, 17)" stroke-width="2px" d="M26.485983308156328,-13.077499598935901L27.68989164034526,4.208581403697565L28.893799972534183,-9.677595508379483L30.097708304723106,-4.338003905549471L31.30161663691203,27.417840921492825L32.505524969100954,34.14080552339084L33.70943330128988,41.667657679136624L34.9133416334788,4.3481962870379505L36.117249965667725,48.67239778592253L37.321158297856655,59.32593503631081L38.52506663004557,60.56101878481422L39.7289749622345,70.16823406042688L40.93288329442342,67.01029295779698L42.13679162661235,74.88576981801754L43.34069995880127,61.69802089739336L44.5446082909902,68.7144289709619L45.748516623179114,89.40374945263616L46.952424955368045,72.8261968935088L48.15633328755696,84.4054989144106L49.36024161974589,99.32788556338497L50.56414995193481,94.09901000091455L51.76805828412374,103.75255535473175L52.971966616312656,99.46735901682494L54.17587494850159,103.43658917142328L55.37978328069052,96.22563248403578L56.583691612879434,108.61218101891971L57.787599945068365,101.44938121261687L58.99150827725728,102.13115583329817L60.19541660944621,92.9943128347507L61.39932494163513,110.51047671367753L62.60323327382406,113.12711844419391L63.807141606012976,111.90073263456482L65.01104993820191,108.04492926008363L66.21495827039082,122.47781523796432L67.41886660257975,115.47011688909515L68.62277493476867,121.51005757285839L69.8266832669576,123.51925788117629L71.03059159914652,116.75015177427423L72.23449993133545,122.54921376601396L73.43840826352437,105.645641714825L74.64231659571331,121.22702098469199L75.84622492790223,121.4452237493521L77.05013326009114,120.36660861398619L78.25404159228006,120.91785522242753L79.457949924469,127.91039700030433L80.66185825665792,126.48115357020802L81.86576658884684,134.27389393869726L83.06967492103576,130.71556478804783L84.2735832532247,127.69390318027399L85.47749158541362,135.83998258325119L86.68139991760253,135.08840052089968L87.88530824979145,126.85840604368786L89.0892165819804,135.35820162755408L90.29312491416931,130.78716367512303L91.49703324635823,134.6372391386382L92.70094157854717,136.97842256648437L93.90484991073609,140.9644239501046L95.108758242925,136.41201938705063L96.31266657511392,145.41265360569224L97.51657490730287,145.89289061831005L98.72048323949178,146.53481736455493L99.9243915716807,146.70138642974567L101.12829990386962,145.41851116073363L102.33220823605856,145.1392931798779L103.53611656824748,145.7144885847862L104.7400249004364,146.28845826389107L105.94393323262531,146.2844275117298L107.14784156481426,146.31980855847874L108.35174989700317,145.32994068561098L109.55565822919209,147.41883674280174L110.75956656138104,147.825565564689L111.96347489356995,147.18489990172262L113.16738322575887,147.76417320209234L114.37129155794779,146.74207109775944L115.57519989013673,146.23548098036795L116.77910822232565,147.46978686441918L117.98301655451456,146.63893334289605L119.18692488670348,146.34888418883503L120.39083321889242,147.61065104521305L121.59474155108134,146.19921599674154L122.79864988327026,147.5021860974348L124.00255821545917,147.01907334350895L125.20646654764812,147.46997543761972L126.41037487983704,147.71983492831836L127.61428321202595,145.98862687505274L128.8181915442149,146.86261651619648L130.02209987640381,148.87075610026145L131.22600820859273,149.2494818018704L132.42991654078165,146.45258766330002L133.6338248729706,148.0181223740774L134.8377332051595,147.35042002848542L136.04164153734843,147.1297775980435L137.24554986953734,147.10275270124293L138.4494582017263,148.23202331260046L139.6533665339152,149.30399124264778L140.85727486610412,147.90348165398186L142.06118319829304,147.27134892833934L143.26509153048198,147.0009231729582L144.4689998626709,148.7019005850143L145.67290819485982,148.34496687389128L146.87681652704873,148.67872965299952L148.08072485923765,148.318755199018L149.28463319142662,148.48649106088698L150.48854152361554,148.6088750680292L151.69244985580445,149.14797049086155L152.89635818799337,149.07674875018742L154.1002665201823,149.01020598205136L155.3041748523712,149.63840224213286L156.50808318456012,148.97029917848977L157.71199151674904,148.2341447611064L158.915899848938,148.9233915948586L160.11980818112693,148.12996985364012L161.32371651331584,148.15011182862145L162.52762484550476,149.57413413822815L163.73153317769368,149.71981872146048L164.9354415098826,149.06689580045986L166.1393498420715,149.5516939273654L167.34325817426048,149.1154769712457L168.5471665064494,148.99819622634277L169.75107483863832,148.9165204588644L170.95498317082723,148.81559843910722L172.15889150301615,148.58564520688924L173.36279983520507,148.51438810873998L174.56670816739398,149.3272800329129L175.7706164995829,149.34506484288764L176.97452483177187,149.96224135656334L178.1784331639608,150.01538364163693L179.3823414961497,149.43094814990278L180.58624982833862,149.61098841310618L181.79015816052754,148.86757392750255L182.99406649271646,148.8346914756606L184.19797482490537,149.01218600065687L185.40188315709435,149.9949234493797L186.60579148928326,149.7031182073888L187.80969982147218,149.19629237349668L189.0136081536611,149.53618378162201L190.21751648585,148.91072183294818L191.42142481803893,149.8545778448873L192.62533315022785,148.98327537185105L193.82924148241676,149.60475371166376L195.03314981460574,149.02672970874755L196.23705814679465,150.41370917027567L197.44096647898357,150.03933243810388L198.64487481117249,148.97430635900096L199.8487831433614,149.17655111656646L201.05269147555032,149.65142557879426L202.25659980773924,149.06703723036026L203.4605081399282,150.29688807254902L204.66441647211713,150.3693708965017L205.86832480430604,150.4206863786952L207.07223313649496,148.58271053645603L208.27614146868387,149.09579464344066L209.4800498008728,149.5013684544747L210.6839581330617,149.80981528141214L211.88786646525062,149.69612921314425L213.0917747974396,149.19806024725162L214.29568312962851,149.93600611003998L215.49959146181743,148.81009445881682L216.70349979400635,149.30089157066413L217.90740812619526,150.6853135081601L219.11131645838418,150.9498227793747L220.3152247905731,149.9084037078128L221.51913312276207,150.04564964032153L222.723041454951,150.39475756362268L223.9269497871399,150.3996604668364L225.13085811932882,149.84676384289043L226.33476645151774,150.24282649312286L227.53867478370665,150.37354307856336L228.74258311589557,149.1780007730455L229.9464914480845,150.03420560421455L231.15039978027346,151.04438045361408L232.35430811246238,151.27482869048345L233.5582164446513,149.87724198642567L234.7621247768402,150.57021314088828L235.96603310902913,150.6326308702628L237.16994144121804,150.66875442398882L238.37384977340696,150.43788189741826L239.57775810559593,149.80683346767879L240.78166643778485,151.2113030935558L241.98557476997377,149.90227507879567L243.18948310216268,150.84076854034475L244.3933914343516,151.26852327409082L245.59729976654052,150.755380237981L246.80120809872943,150.63246586871233L248.00511643091835,150.66723405255954L249.20902476310732,150.80650714697396L250.41293309529624,150.8559015396871L251.61684142748516,150.25011013299323L252.82074975967407,151.16004654048749L254.024658091863,150.84305499040116L255.2285664240519,150.46104104360802L256.4324747562408,150.0521082724396L257.6363830884298,151.39997058068334L258.8402914206187,150.36623586704295L260.04419975280763,150.73156108558942L261.24810808499655,150.9939960515982L262.45201641718546,150.93862624559338L263.6559247493744,150.71264483641153" fill="none"></path></g><g><path style="fill: none;" stroke="rgb(0, 119, 187)" stroke-width="2px" d="M28.893799972534183,-5.115161208222503L30.097708304723106,5.204436475682087L31.30161663691203,14.567732316412702L32.505524969100954,21.948558100000184L33.70943330128988,28.3956636811769L34.9133416334788,35.91193216604307L36.117249965667725,41.500228248718486L37.321158297856655,48.011731577875224L38.52506663004557,52.05127596462019L39.7289749622345,57.16502758816871L40.93288329442342,61.13482346236863L42.13679162661235,64.29177455569575L43.34069995880127,69.23908675812889L44.5446082909902,71.76893767310258L45.748516623179114,75.50080131153722L46.952424955368045,78.2719787798857L48.15633328755696,80.45464286103864L49.36024161974589,82.71061477389654L50.56414995193481,86.41451064952798L51.76805828412374,89.11130777609347L52.971966616312656,91.0206585747322L54.17587494850159,93.18701107403952L55.37978328069052,95.92542394879638L56.583691612879434,97.48362787640326L57.787599945068365,98.39443643494995L58.99150827725728,100.97170172403122L60.19541660944621,103.28621382982783L61.39932494163513,103.70899494540996L62.60323327382406,106.16534945547815L63.807141606012976,106.91462149612319L65.01104993820191,109.06261168002916L66.21495827039082,111.22683094500553L67.41886660257975,112.8121776276633L68.62277493476867,113.06279141116404L69.8266832669576,114.84473744119653L71.03059159914652,116.05884242114128L72.23449993133545,118.31167930454042L73.43840826352437,119.08873053478811L74.64231659571331,119.54418195736162L75.84622492790223,121.2719485497176L77.05013326009114,122.8390625610494L78.25404159228006,123.72259872046985L79.457949924469,123.64422298400069L80.66185825665792,125.64609250914812L81.86576658884684,125.94795105989215L83.06967492103576,127.4469547883585L84.2735832532247,129.01966706658095L85.47749158541362,130.25413795218265L86.68139991760253,131.53295889738334L87.88530824979145,131.3829135588888L89.0892165819804,132.72799441242478L90.29312491416931,134.23777038497124L91.49703324635823,133.8685558441639L92.70094157854717,134.60803386420653L93.90484991073609,134.7836662288476L95.108758242925,137.596659804413L96.31266657511392,143.3025077059671L97.51657490730287,142.92224984710384L98.72048323949178,143.8092274674339L99.9243915716807,144.95044890537488L101.12829990386962,144.8233859256946L102.33220823605856,145.2796977134955L103.53611656824748,144.71490919209128L104.7400249004364,144.8935469421158L105.94393323262531,144.97689629674883L107.14784156481426,145.49542545489868L108.35174989700317,146.09128141108977L109.55565822919209,145.92530163715065L110.75956656138104,145.16641236327874L111.96347489356995,146.24538107339563L113.16738322575887,145.69769378411425L114.37129155794779,146.08956068063495L115.57519989013673,146.97743402366754L116.77910822232565,145.99283441458948L117.98301655451456,146.70815149331457L119.18692488670348,145.85248881009707L120.39083321889242,146.8399759463082L121.59474155108134,147.4124606114589L122.79864988327026,147.09839194598072L124.00255821545917,147.6374166538629L125.20646654764812,147.16195290038345L126.41037487983704,147.1251929121057L127.61428321202595,146.60549695727755L128.8181915442149,147.95491499442565L130.02209987640381,147.40046264157536L131.22600820859273,147.84828863535253L132.42991654078165,147.44118266706423L133.6338248729706,147.80943077021885L134.8377332051595,148.05995026711935L136.04164153734843,147.95132031779062L137.24554986953734,148.13434239472735L138.4494582017263,149.04915813378526L139.6533665339152,147.9017844951771L140.85727486610412,149.34031515539937L142.06118319829304,148.85517523956787L143.26509153048198,148.70673277327782L144.4689998626709,149.2870078687753L145.67290819485982,148.29386353654837L146.87681652704873,149.35033310667737L148.08072485923765,149.92623566108765L149.28463319142662,148.18714289087498L150.48854152361554,148.90803466484067L151.69244985580445,149.09177567710444L152.89635818799337,150.3386216789907L154.1002665201823,148.6983884091545L155.3041748523712,150.33076053369373L156.50808318456012,149.4234759368319L157.71199151674904,149.74826970309005L158.915899848938,150.0451310640201L160.11980818112693,150.42577785510943L161.32371651331584,149.41169011179895L162.52762484550476,150.37287128653648L163.73153317769368,149.42451308943478L164.9354415098826,149.01761926599707L166.1393498420715,148.96697557583047L167.34325817426048,150.49342849079858L168.5471665064494,150.5329581479591L169.75107483863832,149.44485542344165L170.95498317082723,150.2199502067339L172.15889150301615,150.0157372163879L173.36279983520507,150.081219260271L174.56670816739398,150.55807374110432L175.7706164995829,149.52371437873717L176.97452483177187,149.69964138900406L178.1784331639608,150.93839052909274L179.3823414961497,151.17547418545564L180.58624982833862,149.3908645589657L181.79015816052754,150.7415318935673L182.99406649271646,151.21945888447863L184.19797482490537,151.1367695360474L185.40188315709435,150.76734285038947L186.60579148928326,149.7988544641315L187.80969982147218,150.55974732825902L189.0136081536611,150.944931661986L190.21751648585,150.03884921927752L191.42142481803893,150.9159856757051L192.62533315022785,151.2381512029809L193.82924148241676,151.94484105778187L195.03314981460574,151.67295386009664L196.23705814679465,150.83650207168284L197.44096647898357,151.5188306261407L198.64487481117249,150.7782211668949L199.8487831433614,150.50011105359226L201.05269147555032,151.8183202260531L202.25659980773924,151.6024039114494L203.4605081399282,152.19279124482514L204.66441647211713,151.4568489722924L205.86832480430604,150.84284284555056L207.07223313649496,151.4640501113875L208.27614146868387,152.04649379869107L209.4800498008728,151.78447133655845L210.6839581330617,151.5351422079863L211.88786646525062,151.03166354840354L213.0917747974396,151.4359409186839L214.29568312962851,151.8028336519598L215.49959146181743,151.7620311256957L216.70349979400635,152.31750884532386L217.90740812619526,151.53369255150724L219.11131645838418,151.4108253255387L220.3152247905731,151.7057773828134L221.51913312276207,152.0881684760076L222.723041454951,151.28617843999018L223.9269497871399,151.19865690329544L225.13085811932882,152.1121997732498L226.33476645151774,151.58624554532918L227.53867478370665,152.94437330717665L228.74258311589557,152.05528602416567L229.9464914480845,151.34693436803505L231.15039978027346,152.01757138406023L232.35430811246238,151.71613712301738L233.5582164446513,152.0508191964782L234.7621247768402,151.79440678706123L235.96603310902913,152.77875889381357L237.16994144121804,152.0918102959428L238.37384977340696,152.33985476958637L239.57775810559593,152.68701803175705L240.78166643778485,152.96083810474767L241.98557476997377,152.6384250751462L243.18948310216268,153.59793266272905L244.3933914343516,150.8730734867601L245.59729976654052,151.9703927264533L246.80120809872943,153.08728822152625L248.00511643091835,152.03292831407816L249.20902476310732,152.0851277331491L250.41293309529624,152.876545884112L251.61684142748516,152.9242902613205L252.82074975967407,153.7890751731135L254.024658091863,153.86892413771176L255.2285664240519,153.402641541933L256.4324747562408,153.41205841613433L257.6363830884298,153.02098116989083L258.8402914206187,153.23371531173566L260.04419975280763,152.49650017009935L261.24810808499655,153.90226623673001L262.45201641718546,154.0516162115476L263.6559247493744,152.26820873921102" fill="none"></path></g></g></g></g></g></g><g transform="translate(41, 177)" clip-path="url(#clip_1)"><clipPath id="clip_1"><rect width="288" height="22"></rect></clipPath><g><g><line x1="0" y1="0" x2="0" y2="5" style="visibility: inherit;" fill="rgb(0, 0, 0)" stroke="rgb(204, 204, 204)" stroke-width="1px"></line><line x1="24.07816664377848" y1="0" x2="24.07816664377848" y2="5" style="visibility: inherit;" fill="rgb(0, 0, 0)" stroke="rgb(204, 204, 204)" stroke-width="1px"></line><line x1="48.15633328755696" y1="0" x2="48.15633328755696" y2="5" style="visibility: inherit;" fill="rgb(0, 0, 0)" stroke="rgb(204, 204, 204)" stroke-width="1px"></line><line x1="72.23449993133545" y1="0" x2="72.23449993133545" y2="5" style="visibility: inherit;" fill="rgb(0, 0, 0)" stroke="rgb(204, 204, 204)" stroke-width="1px"></line><line x1="96.31266657511392" y1="0" x2="96.31266657511392" y2="5" style="visibility: inherit;" fill="rgb(0, 0, 0)" stroke="rgb(204, 204, 204)" stroke-width="1px"></line><line x1="120.39083321889242" y1="0" x2="120.39083321889242" y2="5" style="visibility: inherit;" fill="rgb(0, 0, 0)" stroke="rgb(204, 204, 204)" stroke-width="1px"></line><line x1="144.4689998626709" y1="0" x2="144.4689998626709" y2="5" style="visibility: inherit;" fill="rgb(0, 0, 0)" stroke="rgb(204, 204, 204)" stroke-width="1px"></line><line x1="168.5471665064494" y1="0" x2="168.5471665064494" y2="5" style="visibility: inherit;" fill="rgb(0, 0, 0)" stroke="rgb(204, 204, 204)" stroke-width="1px"></line><line x1="192.62533315022785" y1="0" x2="192.62533315022785" y2="5" style="visibility: inherit;" fill="rgb(0, 0, 0)" stroke="rgb(204, 204, 204)" stroke-width="1px"></line><line x1="216.70349979400635" y1="0" x2="216.70349979400635" y2="5" style="visibility: inherit;" fill="rgb(0, 0, 0)" stroke="rgb(204, 204, 204)" stroke-width="1px"></line><line x1="240.78166643778485" y1="0" x2="240.78166643778485" y2="5" style="visibility: inherit;" fill="rgb(0, 0, 0)" stroke="rgb(204, 204, 204)" stroke-width="1px"></line><line x1="264.8598330815633" y1="0" x2="264.8598330815633" y2="5" style="visibility: inherit;" fill="rgb(0, 0, 0)" stroke="rgb(204, 204, 204)" stroke-width="1px"></line><line x1="288.9379997253418" y1="0" x2="288.9379997253418" y2="5" style="visibility: inherit;" fill="rgb(0, 0, 0)" stroke="rgb(204, 204, 204)" stroke-width="1px"></line></g><g transform="translate(0, 8)"><text style="text-anchor: middle; visibility: hidden; font-family: &quot;Helvetica Neue&quot;, sans-serif; font-size: 12px; font-weight: 200;" x="0" y="0" dx="0em" dy="0.95em" fill="rgb(50, 49, 63)" stroke="none" stroke-width="1px">-20</text><text style="text-anchor: middle; visibility: inherit; font-family: &quot;Helvetica Neue&quot;, sans-serif; font-size: 12px; font-weight: 200;" x="24.07816664377848" y="0" dx="0em" dy="0.95em" fill="rgb(50, 49, 63)" stroke="none" stroke-width="1px">0</text><text style="text-anchor: middle; visibility: hidden; font-family: &quot;Helvetica Neue&quot;, sans-serif; font-size: 12px; font-weight: 200;" x="48.15633328755696" y="0" dx="0em" dy="0.95em" fill="rgb(50, 49, 63)" stroke="none" stroke-width="1px">20</text><text style="text-anchor: middle; visibility: inherit; font-family: &quot;Helvetica Neue&quot;, sans-serif; font-size: 12px; font-weight: 200;" x="72.23449993133545" y="0" dx="0em" dy="0.95em" fill="rgb(50, 49, 63)" stroke="none" stroke-width="1px">40</text><text style="text-anchor: middle; visibility: hidden; font-family: &quot;Helvetica Neue&quot;, sans-serif; font-size: 12px; font-weight: 200;" x="96.31266657511392" y="0" dx="0em" dy="0.95em" fill="rgb(50, 49, 63)" stroke="none" stroke-width="1px">60</text><text style="text-anchor: middle; visibility: inherit; font-family: &quot;Helvetica Neue&quot;, sans-serif; font-size: 12px; font-weight: 200;" x="120.39083321889242" y="0" dx="0em" dy="0.95em" fill="rgb(50, 49, 63)" stroke="none" stroke-width="1px">80</text><text style="text-anchor: middle; visibility: hidden; font-family: &quot;Helvetica Neue&quot;, sans-serif; font-size: 12px; font-weight: 200;" x="144.4689998626709" y="0" dx="0em" dy="0.95em" fill="rgb(50, 49, 63)" stroke="none" stroke-width="1px">100</text><text style="text-anchor: middle; visibility: inherit; font-family: &quot;Helvetica Neue&quot;, sans-serif; font-size: 12px; font-weight: 200;" x="168.5471665064494" y="0" dx="0em" dy="0.95em" fill="rgb(50, 49, 63)" stroke="none" stroke-width="1px">120</text><text style="text-anchor: middle; visibility: hidden; font-family: &quot;Helvetica Neue&quot;, sans-serif; font-size: 12px; font-weight: 200;" x="192.62533315022785" y="0" dx="0em" dy="0.95em" fill="rgb(50, 49, 63)" stroke="none" stroke-width="1px">140</text><text style="text-anchor: middle; visibility: inherit; font-family: &quot;Helvetica Neue&quot;, sans-serif; font-size: 12px; font-weight: 200;" x="216.70349979400635" y="0" dx="0em" dy="0.95em" fill="rgb(50, 49, 63)" stroke="none" stroke-width="1px">160</text><text style="text-anchor: middle; visibility: hidden; font-family: &quot;Helvetica Neue&quot;, sans-serif; font-size: 12px; font-weight: 200;" x="240.78166643778485" y="0" dx="0em" dy="0.95em" fill="rgb(50, 49, 63)" stroke="none" stroke-width="1px">180</text><text style="text-anchor: middle; visibility: inherit; font-family: &quot;Helvetica Neue&quot;, sans-serif; font-size: 12px; font-weight: 200;" x="264.8598330815633" y="0" dx="0em" dy="0.95em" fill="rgb(50, 49, 63)" stroke="none" stroke-width="1px">200</text><text style="text-anchor: middle; visibility: hidden; font-family: &quot;Helvetica Neue&quot;, sans-serif; font-size: 12px; font-weight: 200;" x="288.9379997253418" y="0" dx="0em" dy="0.95em" fill="rgb(50, 49, 63)" stroke="none" stroke-width="1px">220</text></g><line x1="0" y1="0" x2="288.9379997253418" y2="0" fill="rgb(0, 0, 0)" stroke="rgb(204, 204, 204)" stroke-width="1px"></line></g></g></g></g></svg>