<svg viewBox="0 0 330 200" xmlns="http://www.w3.org/2000/svg"><g><g><g><g><g><line x1="51.41600036621094" y1="177.95999908447266" x2="46.41600036621094" y2="177.95999908447266" style="visibility: inherit;" fill="rgb(0, 0, 0)" stroke="rgb(204, 204, 204)" stroke-width="1px"></line><line x1="51.41600036621094" y1="158.18666585286462" x2="46.41600036621094" y2="158.18666585286462" style="visibility: inherit;" fill="rgb(0, 0, 0)" stroke="rgb(204, 204, 204)" stroke-width="1px"></line><line x1="51.41600036621094" y1="138.41333262125653" x2="46.41600036621094" y2="138.41333262125653" style="visibility: inherit;" fill="rgb(0, 0, 0)" stroke="rgb(204, 204, 204)" stroke-width="1px"></line><line x1="51.41600036621094" y1="118.63999938964847" x2="46.41600036621094" y2="118.63999938964847" style="visibility: inherit;" fill="rgb(0, 0, 0)" stroke="rgb(204, 204, 204)" stroke-width="1px"></line><line x1="51.41600036621094" y1="98.86666615804037" x2="46.41600036621094" y2="98.86666615804037" style="visibility: inherit;" fill="rgb(0, 0, 0)" stroke="rgb(204, 204, 204)" stroke-width="1px"></line><line x1="51.41600036621094" y1="79.09333292643228" x2="46.41600036621094" y2="79.09333292643228" style="visibility: inherit;" fill="rgb(0, 0, 0)" stroke="rgb(204, 204, 204)" stroke-width="1px"></line><line x1="51.41600036621094" y1="59.31999969482422" x2="46.41600036621094" y2="59.31999969482422" style="visibility: inherit;" fill="rgb(0, 0, 0)" stroke="rgb(204, 204, 204)" stroke-width="1px"></line><line x1="51.41600036621094" y1="39.546666463216155" x2="46.41600036621094" y2="39.546666463216155" style="visibility: inherit;" fill="rgb(0, 0, 0)" stroke="rgb(204, 204, 204)" stroke-width="1px"></line><line x1="51.41600036621094" y1="19.773333231608092" x2="46.41600036621094" y2="19.773333231608092" style="visibility: inherit;" fill="rgb(0, 0, 0)" stroke="rgb(204, 204, 204)" stroke-width="1px"></line><line x1="51.41600036621094" y1="0" x2="46.41600036621094" y2="0" style="visibility: inherit;" fill="rgb(0, 0, 0)" stroke="rgb(204, 204, 204)" stroke-width="1px"></line></g><g transform="translate(41.41600036621094, 0)"><text style="text-anchor: end; visibility: hidden; font-family: &quot;Helvetica Neue&quot;, sans-serif; font-size: 12px; font-weight: 200;" x="0" y="177.95999908447266" dx="0em" dy="0.3em" fill="rgb(50, 49, 63)" stroke="none" stroke-width="1px">0.55</text><text style="text-anchor: end; visibility: inherit; font-family: &quot;Helvetica Neue&quot;, sans-serif; font-size: 12px; font-weight: 200;" x="0" y="158.18666585286462" dx="0em" dy="0.3em" fill="rgb(50, 49, 63)" stroke="none" stroke-width="1px">0.6</text><text style="text-anchor: end; visibility: hidden; font-family: &quot;Helvetica Neue&quot;, sans-serif; font-size: 12px; font-weight: 200;" x="0" y="138.41333262125653" dx="0em" dy="0.3em" fill="rgb(50, 49, 63)" stroke="none" stroke-width="1px">0.65</text><text style="text-anchor: end; visibility: inherit; font-family: &quot;Helvetica Neue&quot;, sans-serif; font-size: 12px; font-weight: 200;" x="0" y="118.63999938964847" dx="0em" dy="0.3em" fill="rgb(50, 49, 63)" stroke="none" stroke-width="1px">0.7</text><text style="text-anchor: end; visibility: hidden; font-family: &quot;Helvetica Neue&quot;, sans-serif; font-size: 12px; font-weight: 200;" x="0" y="98.86666615804037" dx="0em" dy="0.3em" fill="rgb(50, 49, 63)" stroke="none" stroke-width="1px">0.75</text><text style="text-anchor: end; visibility: inherit; font-family: &quot;Helvetica Neue&quot;, sans-serif; font-size: 12px; font-weight: 200;" x="0" y="79.09333292643228" dx="0em" dy="0.3em" fill="rgb(50, 49, 63)" stroke="none" stroke-width="1px">0.8</text><text style="text-anchor: end; visibility: hidden; font-family: &quot;Helvetica Neue&quot;, sans-serif; font-size: 12px; font-weight: 200;" x="0" y="59.31999969482422" dx="0em" dy="0.3em" fill="rgb(50, 49, 63)" stroke="none" stroke-width="1px">0.85</text><text style="text-anchor: end; visibility: inherit; font-family: &quot;Helvetica Neue&quot;, sans-serif; font-size: 12px; font-weight: 200;" x="0" y="39.546666463216155" dx="0em" dy="0.3em" fill="rgb(50, 49, 63)" stroke="none" stroke-width="1px">0.9</text><text style="text-anchor: end; visibility: hidden; font-family: &quot;Helvetica Neue&quot;, sans-serif; font-size: 12px; font-weight: 200;" x="0" y="19.773333231608092" dx="0em" dy="0.3em" fill="rgb(50, 49, 63)" stroke="none" stroke-width="1px">0.95</text><text style="text-anchor: end; visibility: hidden; font-family: &quot;Helvetica Neue&quot;, sans-serif; font-size: 12px; font-weight: 200;" x="0" y="0" dx="0em" dy="0.3em" fill="rgb(50, 49, 63)" stroke="none" stroke-width="1px">1</text></g><line x1="51.41600036621094" y1="0" x2="51.41600036621094" y2="177.95999908447266" fill="rgb(0, 0, 0)" stroke="rgb(204, 204, 204)" stroke-width="1px"></line></g></g><g transform="translate(51, 0)" clip-path="url(#clip_0)"><clipPath id="clip_0"><rect width="278" height="177"></rect></clipPath><g><g><g><line x1="0" y1="0" x2="0" y2="177.95999908447266" fill="rgb(0, 0, 0)" stroke="rgb(60, 60, 60)" stroke-width="1px" opacity="0.25"></line><line x1="23.215333302815754" y1="0" x2="23.215333302815754" y2="177.95999908447266" fill="rgb(0, 0, 0)" stroke="rgb(60, 60, 60)" stroke-width="1px" opacity="0.25"></line><line x1="46.43066660563151" y1="0" x2="46.43066660563151" y2="177.95999908447266" fill="rgb(0, 0, 0)" stroke="rgb(60, 60, 60)" stroke-width="1px" opacity="0.25"></line><line x1="69.64599990844727" y1="0" x2="69.64599990844727" y2="177.95999908447266" fill="rgb(0, 0, 0)" stroke="rgb(60, 60, 60)" stroke-width="1px" opacity="0.25"></line><line x1="92.86133321126302" y1="0" x2="92.86133321126302" y2="177.95999908447266" fill="rgb(0, 0, 0)" stroke="rgb(60, 60, 60)" stroke-width="1px" opacity="0.25"></line><line x1="116.07666651407878" y1="0" x2="116.07666651407878" y2="177.95999908447266" fill="rgb(0, 0, 0)" stroke="rgb(60, 60, 60)" stroke-width="1px" opacity="0.25"></line><line x1="139.29199981689453" y1="0" x2="139.29199981689453" y2="177.95999908447266" fill="rgb(0, 0, 0)" stroke="rgb(60, 60, 60)" stroke-width="1px" opacity="0.25"></line><line x1="162.5073331197103" y1="0" x2="162.5073331197103" y2="177.95999908447266" fill="rgb(0, 0, 0)" stroke="rgb(60, 60, 60)" stroke-width="1px" opacity="0.25"></line><line x1="185.72266642252603" y1="0" x2="185.72266642252603" y2="177.95999908447266" fill="rgb(0, 0, 0)" stroke="rgb(60, 60, 60)" stroke-width="1px" opacity="0.25"></line><line x1="208.9379997253418" y1="0" x2="208.9379997253418" y2="177.95999908447266" fill="rgb(0, 0, 0)" stroke="rgb(60, 60, 60)" stroke-width="1px" opacity="0.25"></line><line x1="232.15333302815756" y1="0" x2="232.15333302815756" y2="177.95999908447266" fill="rgb(0, 0, 0)" stroke="rgb(60, 60, 60)" stroke-width="1px" opacity="0.25"></line><line x1="255.3686663309733" y1="0" x2="255.3686663309733" y2="177.95999908447266" fill="rgb(0, 0, 0)" stroke="rgb(60, 60, 60)" stroke-width="1px" opacity="0.25"></line><line x1="278.58399963378906" y1="0" x2="278.58399963378906" y2="177.95999908447266" fill="rgb(0, 0, 0)" stroke="rgb(60, 60, 60)" stroke-width="1px" opacity="0.25"></line></g><g><line x1="0" y1="177.95999908447266" x2="278.58399963378906" y2="177.95999908447266" fill="rgb(0, 0, 0)" stroke="rgb(60, 60, 60)" stroke-width="1px" opacity="0.25"></line><line x1="0" y1="158.18666585286462" x2="278.58399963378906" y2="158.18666585286462" fill="rgb(0, 0, 0)" stroke="rgb(60, 60, 60)" stroke-width="1px" opacity="0.25"></line><line x1="0" y1="138.41333262125653" x2="278.58399963378906" y2="138.41333262125653" fill="rgb(0, 0, 0)" stroke="rgb(60, 60, 60)" stroke-width="1px" opacity="0.25"></line><line x1="0" y1="118.63999938964847" x2="278.58399963378906" y2="118.63999938964847" fill="rgb(0, 0, 0)" stroke="rgb(60, 60, 60)" stroke-width="1px" opacity="0.25"></line><line x1="0" y1="98.86666615804037" x2="278.58399963378906" y2="98.86666615804037" fill="rgb(0, 0, 0)" stroke="rgb(60, 60, 60)" stroke-width="1px" opacity="0.25"></line><line x1="0" y1="79.09333292643228" x2="278.58399963378906" y2="79.09333292643228" fill="rgb(0, 0, 0)" stroke="rgb(60, 60, 60)" stroke-width="1px" opacity="0.25"></line><line x1="0" y1="59.31999969482422" x2="278.58399963378906" y2="59.31999969482422" fill="rgb(0, 0, 0)" stroke="rgb(60, 60, 60)" stroke-width="1px" opacity="0.25"></line><line x1="0" y1="39.546666463216155" x2="278.58399963378906" y2="39.546666463216155" fill="rgb(0, 0, 0)" stroke="rgb(60, 60, 60)" stroke-width="1px" opacity="0.25"></line><line x1="0" y1="19.773333231608092" x2="278.58399963378906" y2="19.773333231608092" fill="rgb(0, 0, 0)" stroke="rgb(60, 60, 60)" stroke-width="1px" opacity="0.25"></line><line x1="0" y1="0" x2="278.58399963378906" y2="0" fill="rgb(0, 0, 0)" stroke="rgb(60, 60, 60)" stroke-width="1px" opacity="0.25"></line></g></g></g><g><g><line x1="0" y1="395.4666646321615" x2="278.58399963378906" y2="395.4666646321615" fill="rgb(0, 0, 0)" stroke="rgb(153, 153, 153)" stroke-width="1.5px"></line></g></g><g><g><line x1="23.215333302815754" y1="0" x2="23.215333302815754" y2="177.95999908447266" fill="rgb(0, 0, 0)" stroke="rgb(153, 153, 153)" stroke-width="1.5px"></line></g></g><g><g><g><g><g><path style="fill: none;" stroke="rgb(204, 51, 17)" stroke-width="2px" d="M27.858399963378908,179.83046340484083L29.019166628519695,171.1806631089933L30.179933293660483,161.24403921473865L31.34069995880127,151.37655225069147L32.50146662394206,143.13429266771587L33.66223328908285,138.0514386172905L34.82299995422363,131.6556991952654L35.983766619364424,125.75637722727437L37.14453328450521,124.37916420876647L38.305299949646,120.65690272707488L39.46606661478678,120.02385154746375L40.626833279927574,118.0144225843448L41.78759994506836,114.135320365472L42.94836661020915,112.34617298472381L44.10913327534993,106.92240659717437L45.269899940490724,105.89886480333908L46.43066660563151,100.03285654634958L47.5914332707723,98.0319433506351L48.75219993591308,94.80661041479642L49.912966601053874,95.21259319028944L51.07373326619466,95.13981146643889L52.23449993133545,91.64767027807211L53.39526659647624,90.39077725647309L54.556033261617024,85.74524331105536L55.716799926757815,86.04256860573669L56.8775665918986,85.22439184196998L58.03833325703939,89.63726662902184L59.199099922180174,84.04346474229423L60.359866587320965,81.54139224837893L61.52063325246175,80.32488494079045L62.68139991760254,78.81986928177214L63.842166582743324,77.45811787326511L65.00293324788412,75.35975927493783L66.1636999130249,77.56503183266261L67.3244665781657,75.59791357996636L68.48523324330647,74.13290652663667L69.64599990844727,75.6583331771237L70.80676657358805,77.11142822077558L71.96753323872885,75.92685677953538L73.12829990386963,75.1844807606163L74.28906656901042,74.15376164948975L75.4498332341512,70.7037904328686L76.610599899292,69.58292490730288L77.77136656443278,68.7996754086382L78.93213322957357,70.54433880513278L80.09289989471435,68.90196043089351L81.25366655985515,71.14353944369715L82.41443322499593,70.24224060132516L83.57519989013672,67.4868482002475L84.7359665552775,71.19614429228375L85.8967332204183,69.29304372319618L87.05749988555908,68.24610170222984L88.21826655069987,71.06640289367334L89.37903321584066,67.87061539231115L90.53979988098145,65.16221031652252L91.70056654612223,63.8535365295741L92.86133321126302,60.489895457315455L94.02209987640381,58.99371914766L95.1828665415446,57.51072929073018L96.34363320668538,56.76329871431035L97.50439987182617,56.58376460973042L98.66516653696696,56.143844168273546L99.82593320210775,55.595155799263324L100.98669986724853,55.31340665242989L102.14746653238932,55.349996239504804L103.30823319753011,54.94484112121546L104.4689998626709,54.84412081664L105.62976652781168,55.59044250039052L106.79053319295248,54.804372773610794L107.95129985809326,54.316919074678765L109.11206652323405,54.230085930494496L110.27283318837483,54.24126178142089L111.43359985351563,54.279600446365166L112.59436651865641,54.46079770325403L113.7551331837972,54.85425216152355L114.91589984893798,54.53666449107716L116.07666651407878,54.2986574428966L117.23743317921956,53.98184729320178L118.39819984436035,53.98158841569567L119.55896650950113,54.07634198101738L120.71973317464193,54.25974559508424L121.88049983978271,54.41724220943702L123.0412665049235,54.52756146957293L124.2020331700643,54.229919892557206L125.36279983520508,54.114610683784676L126.52356650034586,54.36180384570572L127.68433316548665,54.652483080596454L128.84509983062745,54.146688229908975L130.00586649576823,54.096314269244246L131.16663316090902,54.034447309796874L132.3273998260498,54.250430083876196L133.4881664911906,54.34837716527525L134.6489331563314,54.40714541411472L135.80969982147215,53.967852475631474L136.97046648661293,54.020645971066116L138.13123315175375,53.79922854723925L139.29199981689453,53.46072958910814L140.45276648203532,53.71637223915212L141.6135331471761,53.49011283321701L142.77429981231688,53.52836311044247L143.9350664774577,53.56712513964199L145.09583314259848,53.43219772789935L146.25659980773926,53.620165522125745L147.41736647288005,53.321658619651544L148.57813313802083,53.68038410339091L149.73889980316162,53.68998031845952L150.8996664683024,53.4900989723257L152.06043313344318,53.480900347994975L153.221199798584,53.7601172775327L154.38196646372478,53.51635985624539L155.54273312886556,53.60738706169643L156.70349979400635,53.64618209344282L157.86426645914713,53.353089853966026L159.02503312428792,53.41450673984343L160.1857997894287,53.54627519185526L161.3465664545695,53.62533626306238L162.5073331197103,53.64113032273818L163.66809978485108,53.6822493415921L164.82886644999186,53.88092667369101L165.98963311513265,53.79448456911534L167.15039978027343,53.932446518680706L168.31116644541422,53.635578692458395L169.471933110555,53.82128170116229L170.6326997756958,53.44232832707347L171.7934664408366,53.37314093188252L172.95423310597738,53.55308886146716L174.11499977111816,53.69270020226642L175.27576643625895,53.71319126930902L176.43653310139973,53.91530369318538L177.59729976654052,54.194765205433484L178.75806643168133,53.88787879633543L179.9188330968221,54.146667684275016L181.0795997619629,53.77992325467925L182.24036642710368,53.48078899662059L183.40113309224446,53.475314362571964L184.56189975738525,53.64603550292928L185.72266642252603,53.748468187143715L186.88343308766682,53.825739660536584L188.04419975280763,53.93537828200917L189.2049664179484,53.92207385459163L190.3657330830892,53.629355094004964L191.52649974822998,53.48535699204142L192.68726641337076,53.19331905568829L193.84803307851155,53.08137203131332L195.00879974365233,53.283118629300276L196.16956640879314,53.19851808425746L197.33033307393393,53.068670156930594L198.4910997390747,53.00658269205877L199.6518664042155,53.11169355087371L200.81263306935628,53.34876598694919L201.97339973449706,53.44355500268176L203.13416639963785,53.389698228771735L204.29493306477863,53.51556879368803L205.45569972991944,53.63854557855046L206.61646639506023,53.39596239094335L207.777233060201,53.56678173690365L208.9379997253418,53.76418223630523L210.09876639048258,53.86681067308193L211.25953305562336,53.43800312717677L212.42029972076415,53.76601209943024L213.58106638590496,53.82045414504425L214.74183305104575,53.71074660601461L215.90259971618653,53.59746763668416L217.0633663813273,53.75096062178507L218.2241330464681,53.76395938388444L219.38489971160888,53.94576456193063L220.54566637674967,53.770111564622184L221.70643304189045,53.61726532032441L222.86719970703126,53.35155165295923L224.02796637217205,53.35030808180244L225.18873303731283,53.6342980432445L226.3494997024536,53.472501470060905L227.5102663675944,53.69180221333535L228.67103303273518,53.47537081772698L229.83179969787597,53.51951790114843L230.99256636301678,53.38782152193903L232.15333302815756,53.51444276958841L233.31409969329835,53.811875884877225L234.47486635843913,53.31013336242863L235.6356330235799,53.16727247822173L236.7963996887207,53.318837605921104L237.95716635386148,53.45723112845343L239.11793301900227,53.413715767098935L240.27869968414308,53.577433762596996L241.43946634928386,53.343474009847L242.60023301442465,53.59856444568277L243.76099967956543,53.68834296974728L244.9217663447062,53.34674379670028L246.082533009847,53.26833576774588L247.24329967498778,53.20546965884904L248.4040663401286,53.24684702247207L249.56483300526938,53.27167344064591L250.72559967041016,53.46057521233675L251.88636633555095,53.827009796438915L253.04713300069173,53.825410180200976L254.2078996658325,53.72954151863287" fill="none"></path></g><g><path style="fill: none;" stroke="rgb(0, 119, 187)" stroke-width="2px" d="M27.858399963378908,188.41353183771386L29.019166628519695,176.98230379114477L30.179933293660483,166.21466444025285L31.34069995880127,157.38407642642156L32.50146662394206,149.2938371822338L33.66223328908285,142.45059104667297L34.82299995422363,136.36635480005265L35.983766619364424,130.33461022765968L37.14453328450521,125.45284256594614L38.305299949646,120.53821705256581L39.46606661478678,116.26483158957272L40.626833279927574,112.48291864996061L41.78759994506836,108.66930634291226L42.94836661020915,105.43172560015557L44.10913327534993,102.2514988272645L45.269899940490724,99.4507109065656L46.43066660563151,96.89337192941943L47.5914332707723,94.51690087955916L48.75219993591308,91.82788956681303L49.912966601053874,89.1919533451702L51.07373326619466,87.20834154194584L52.23449993133545,85.15075872451105L53.39526659647624,83.10894743999914L54.556033261617024,81.21904678003017L55.716799926757815,79.1258820456036L56.8775665918986,77.55340693950949L58.03833325703939,75.79315488655496L59.199099922180174,74.4552565628832L60.359866587320965,72.62997940813918L61.52063325246175,71.16124965012804L62.68139991760254,69.91278436523339L63.842166582743324,68.62552671683646L65.00293324788412,67.3529817188017L66.1636999130249,66.2127326122689L67.3244665781657,65.0727074377686L68.48523324330647,63.815693806805854L69.64599990844727,62.71958355915338L70.80676657358805,61.63770313901428L71.96753323872885,60.599190085382816L73.12829990386963,59.820952509955234L74.28906656901042,58.63221775371177L75.4498332341512,57.789181966113745L76.610599899292,56.78633810894026L77.77136656443278,55.86805510560791L78.93213322957357,54.97835126350998L80.09289989471435,54.27040989355058L81.25366655985515,53.27897317533143L82.41443322499593,52.142764628987834L83.57519989013672,51.476870221367975L84.7359665552775,50.82091173871966L85.8967332204183,50.075930489948306L87.05749988555908,49.55296559819331L88.21826655069987,49.16637855041682L89.37903321584066,48.34875567555335L90.53979988098145,47.71572432629702L91.70056654612223,46.588787924914214L92.86133321126302,43.64277989799774L94.02209987640381,40.80197671166715L95.1828665415446,38.86323031285377L96.34363320668538,37.405563135582554L97.50439987182617,36.47715346644938L98.66516653696696,35.7871447012777L99.82593320210775,35.07872010419146L100.98669986724853,34.94174862438524L102.14746653238932,34.47334896450161L103.30823319753011,34.461393697063784L104.4689998626709,34.118654526262844L105.62976652781168,33.89718030359805L106.79053319295248,33.6218381456608L107.95129985809326,33.35216329780641L109.11206652323405,33.15869694872521L110.27283318837483,33.3845192091525L111.43359985351563,33.24459197737872L112.59436651865641,33.119479537299384L113.7551331837972,32.90828107979115L114.91589984893798,32.93985034980881L116.07666651407878,32.84482769808076L117.23743317921956,32.58520163173739L118.39819984436035,32.524400884376945L119.55896650950113,32.26948666912989L120.71973317464193,32.17035693141213L121.88049983978271,32.35147020667421L123.0412665049235,32.032765298816514L124.2020331700643,31.58827911713371L125.36279983520508,31.976898137276322L126.52356650034586,31.909323580500995L127.68433316548665,32.04289791114263L128.84509983062745,31.977416855420472L130.00586649576823,31.776671847695695L131.16663316090902,31.605574081399197L132.3273998260498,31.322469726036758L133.4881664911906,31.516666533757274L134.6489331563314,31.05701806149861L135.80969982147215,30.800227728096445L136.97046648661293,30.75378168225609L138.13123315175375,30.988671952366587L139.29199981689453,30.72123199137104L140.45276648203532,30.48478244362127L141.6135331471761,30.010514734401966L142.77429981231688,30.24196581479319L143.9350664774577,30.403003242749918L145.09583314259848,30.078579457386667L146.25659980773926,29.864926436215626L147.41736647288005,29.84120417660509L148.57813313802083,29.75416270811519L149.73889980316162,29.64495100582195L150.8996664683024,29.62058008546103L152.06043313344318,29.58063215241367L153.221199798584,29.56615805323179L154.38196646372478,29.339039826891934L155.54273312886556,29.351553146304013L156.70349979400635,29.406553298504036L157.86426645914713,29.566180293978107L159.02503312428792,29.557486938170456L160.1857997894287,29.412981330116423L161.3465664545695,29.098340109146676L162.5073331197103,28.972868828641822L163.66809978485108,29.362956433260166L164.82886644999186,29.305757687816765L165.98963311513265,29.315762571334687L167.15039978027343,28.86588978917075L168.31116644541422,28.852397386609425L169.471933110555,28.629026779350653L170.6326997756958,28.63113540845609L171.7934664408366,28.667220627396688L172.95423310597738,28.745858579960355L174.11499977111816,29.030473868282485L175.27576643625895,28.748535358769942L176.43653310139973,28.357770456462788L177.59729976654052,28.25627447877028L178.75806643168133,28.53727896203077L179.9188330968221,28.642568199910016L181.0795997619629,28.49996123756219L182.24036642710368,28.271939435815142L183.40113309224446,28.32824416942691L184.56189975738525,28.3050401883946L185.72266642252603,28.072674604284458L186.88343308766682,28.06938624727897L188.04419975280763,27.98510103104553L189.2049664179484,28.020010133104478L190.3657330830892,27.75604034566325L191.52649974822998,27.70212802629058L192.68726641337076,27.72359942609748L193.84803307851155,27.559195171505905L195.00879974365233,27.815117379042363L196.16956640879314,27.66475670493446L197.33033307393393,27.663179133377582L198.4910997390747,27.564099096889038L199.6518664042155,27.580627217488342L200.81263306935628,27.508231887817743L201.97339973449706,27.357166535814514L203.13416639963785,27.811032441135012L204.29493306477863,27.542005468913686L205.45569972991944,27.459733457842162L206.61646639506023,27.45152635221436L207.777233060201,27.576397022760545L208.9379997253418,27.60700472296432L210.09876639048258,27.365770046580792L211.25953305562336,27.699062304087278L212.42029972076415,27.515979487700093L213.58106638590496,27.04523840669873L214.74183305104575,27.044540977005653L215.90259971618653,27.116940060573455L217.0633663813273,26.865960172730894L218.2241330464681,26.83250448353286L219.38489971160888,26.802936409367504L220.54566637674967,26.937147849853176L221.70643304189045,26.54597771034568L222.86719970703126,26.858958201592543L224.02796637217205,26.882122092280355L225.18873303731283,26.769393522538962L226.3494997024536,26.742912481709226L227.5102663675944,26.578230173335356L228.67103303273518,26.574395680756567L229.83179969787597,26.71138457977878L230.99256636301678,26.660614955500307L232.15333302815756,26.623826550055526L233.31409969329835,26.490947894158865L234.47486635843913,26.214944284852066L235.6356330235799,26.14114898194464L236.7963996887207,26.48309800086014L237.95716635386148,26.390680044457383L239.11793301900227,26.360554651446506L240.27869968414308,26.17469641047083L241.43946634928386,26.110673626438256L242.60023301442465,26.107079997496044L243.76099967956543,26.047936998931362L244.9217663447062,25.79718546273068L246.082533009847,25.880999028025286L247.24329967498778,25.70018128129587L248.4040663401286,26.104543738072152L249.56483300526938,25.85330685727709L250.72559967041016,25.955827965768208L251.88636633555095,25.98567919049438L253.04713300069173,25.731337367068846L254.2078996658325,25.882646271643267" fill="none"></path></g></g></g></g><g opacity="0.2"><g><g><g><path style="fill: none;" stroke="rgb(204, 51, 17)" stroke-width="2px" d="M25.53686663309733,190.4567403690847L26.69763329823812,170.36704730761207L27.858399963378908,171.98844682904567L29.019166628519695,159.21487537172956L30.179933293660483,147.03450805997213L31.34069995880127,136.9896615292358L32.50146662394206,130.97856075932822L33.66223328908285,130.50399272855128L34.82299995422363,122.12009894805914L35.983766619364424,116.93949812492369L37.14453328450521,122.31784152046203L38.305299949646,115.08080280227661L39.46606661478678,119.0750189059448L40.626833279927574,115.00169634465541L41.78759994506836,108.31830854321804L42.94836661020915,109.66290617792765L44.10913327534993,98.78758327206926L45.269899940490724,104.36364566836043L46.43066660563151,91.2341658666992L47.5914332707723,95.03063939796448L48.75219993591308,89.96867468961076L49.912966601053874,95.82156254427599L51.07373326619466,95.03063939796448L52.23449993133545,86.4094733879089L53.39526659647624,88.50544094011943L54.556033261617024,78.77694952491765L55.716799926757815,86.48855627388004L56.8775665918986,83.99712714851377L58.03833325703939,96.25657734624232L59.199099922180174,75.65276302518214L60.359866587320965,77.78828380620327L61.52063325246175,78.50012406654363L62.68139991760254,76.56234585792542L63.842166582743324,75.41549079561871L65.00293324788412,72.21222140991206L66.1636999130249,80.87294064877824L67.3244665781657,72.64723621187841L68.48523324330647,71.93539595153806L69.64599990844727,77.94647314979557L70.80676657358805,79.29107078450521L71.96753323872885,74.14999961853029L73.12829990386963,74.07091673255916L74.28906656901042,72.60768298306783L75.4498332341512,65.52883360847471L76.610599899292,67.90162661905924L77.77136656443278,67.62480116068521L78.93213322957357,73.16133389981587L80.09289989471435,66.4383928695679L81.25366655985515,74.50590796287543L82.41443322499593,68.89029233777366L83.57519989013672,63.353759598642995L84.7359665552775,76.76008843032832L85.8967332204183,66.4383928695679L87.05749988555908,66.67568867078143L88.21826655069987,75.296854680837L89.37903321584066,63.07693414026896L90.53979988098145,61.09960270284016L91.70056654612223,61.89052584915164L92.86133321126302,55.44443384892779L94.02209987640381,56.74945468317675L95.1828665415446,55.28624450533546L96.34363320668538,55.64215284968063L97.50439987182617,56.314463452860466L98.66516653696696,55.4839635060883L99.82593320210775,54.772123245747935L100.98669986724853,54.89078293217972L102.14746653238932,55.4048806201172L103.30823319753011,54.33710844378159L104.4689998626709,54.693040359776816L105.62976652781168,56.70992502601621L106.79053319295248,53.62526818344122L107.95129985809326,53.58573852628071L109.11206652323405,54.09983621421816L110.27283318837483,54.258025557810484L111.43359985351563,54.33710844378159L112.59436651865641,54.73259358858742L113.7551331837972,55.44443384892779L114.91589984893798,54.060282985407554L116.07666651407878,53.941646870625846L117.23743317921956,53.50663206865951L118.39819984436035,53.98120009943645L119.55896650950113,54.21847232899988L120.71973317464193,54.53485101618449L121.88049983978271,54.65348713096623L123.0412665049235,54.693040359776816L124.2020331700643,53.78345752703355L125.36279983520508,53.941646870625846L126.52356650034586,54.73259358858742L127.68433316548665,55.08850193293256L128.84509983062745,53.38799595387778L130.00586649576823,54.02075332824704L131.16663316090902,53.941646870625846L132.3273998260498,54.574404244995094L133.4881664911906,54.495297787373914L134.6489331563314,54.495297787373914L135.80969982147215,53.30891306790667L136.97046648661293,54.09983621421816L138.13123315175375,53.46710241149897L139.29199981689453,52.952981151911445L140.45276648203532,54.09983621421816L141.6135331471761,53.15072372431436L142.77429981231688,53.58573852628071L143.9350664774577,53.62526818344122L145.09583314259848,53.22980661028548L146.25659980773926,53.90211721346532L147.41736647288005,52.873898265940326L148.57813313802083,54.21847232899988L149.73889980316162,53.704374641062415L150.8996664683024,53.190276953124936L152.06043313344318,53.46710241149897L153.221199798584,54.17894267183935L154.38196646372478,53.15072372431436L155.54273312886556,53.743927869873005L156.70349979400635,53.704374641062415L157.86426645914713,52.91345149475093L159.02503312428792,53.50663206865951L160.1857997894287,53.743927869873005L161.3465664545695,53.743927869873005L162.5073331197103,53.66482141225181L163.66809978485108,53.743927869873005L164.82886644999186,54.17894267183935L165.98963311513265,53.66482141225181L167.15039978027343,54.13938944302875L168.31116644541422,53.190276953124936L169.471933110555,54.09983621421816L170.6326997756958,52.873898265940326L171.7934664408366,53.26935983909607L172.95423310597738,53.82301075584414L174.11499977111816,53.90211721346532L175.27576643625895,53.743927869873005L176.43653310139973,54.21847232899988L177.59729976654052,54.613957473805684L178.75806643168133,53.42754918268838L179.9188330968221,54.53485101618449L181.0795997619629,53.22980661028548L182.24036642710368,53.03208760953264L183.40113309224446,53.46710241149897L184.56189975738525,53.90211721346532L185.72266642252603,53.90211721346532L186.88343308766682,53.941646870625846L188.04419975280763,54.09983621421816L189.2049664179484,53.90211721346532L190.3657330830892,53.190276953124936L191.52649974822998,53.26935983909607L192.68726641337076,52.755262151158604L193.84803307851155,52.91345149475093L195.00879974365233,53.58573852628071L196.16956640879314,53.07161726669317L197.33033307393393,52.873898265940326L198.4910997390747,52.91345149475093L199.6518664042155,53.26935983909607L200.81263306935628,53.704374641062415L201.97339973449706,53.58573852628071L203.13416639963785,53.30891306790667L204.29493306477863,53.704374641062415L205.45569972991944,53.82301075584414L206.61646639506023,53.03208760953264L207.777233060201,53.82301075584414L208.9379997253418,54.060282985407554L210.09876639048258,54.02075332824704L211.25953305562336,52.79479180831913L212.42029972076415,54.258025557810484L213.58106638590496,53.90211721346532L214.74183305104575,53.5461852974701L215.90259971618653,53.42754918268838L217.0633663813273,53.98120009943645L218.2241330464681,53.78345752703355L219.38489971160888,54.21847232899988L220.54566637674967,53.50663206865951L221.70643304189045,53.38799595387778L222.86719970703126,52.952981151911445L224.02796637217205,53.3484427250672L225.18873303731283,54.060282985407554L226.3494997024536,53.22980661028548L227.5102663675944,54.02075332824704L228.67103303273518,53.15072372431436L229.83179969787597,53.58573852628071L230.99256636301678,53.190276953124936L232.15333302815756,53.704374641062415L233.31409969329835,54.258025557810484L234.47486635843913,52.5575195787557L235.6356330235799,52.952981151911445L236.7963996887207,53.5461852974701L237.95716635386148,53.66482141225181L239.11793301900227,53.3484427250672L240.27869968414308,53.82301075584414L241.43946634928386,52.992534380722034L242.60023301442465,53.98120009943645L243.76099967956543,53.82301075584414L244.9217663447062,52.83434503712974L246.082533009847,53.15072372431436L247.24329967498778,53.11117049550377L248.4040663401286,53.30891306790667L249.56483300526938,53.30891306790667L250.72559967041016,53.743927869873005L251.88636633555095,54.37666167259219L253.04713300069173,53.82301075584414L254.2078996658325,53.58573852628071" fill="none"></path></g><g><path style="fill: none;" stroke="rgb(0, 119, 187)" stroke-width="2px" d="M26.69763329823812,183.2024943463512L27.858399963378908,172.30437765487903L29.019166628519695,161.16880016064292L30.179933293660483,150.81676788624767L31.34069995880127,144.50899432861056L32.50146662394206,137.36230574512774L33.66223328908285,132.2891680746428L34.82299995422363,127.29518400507914L35.983766619364424,121.31981785667148L37.14453328450521,118.14613089179755L38.305299949646,113.17590704550034L39.46606661478678,109.85977659927812L40.626833279927574,106.81271653855826L41.78759994506836,102.95050167525916L42.94836661020915,100.57617650742033L44.10913327534993,97.48164314346772L45.269899940490724,95.24978502862723L46.43066660563151,93.05750371424742L47.5914332707723,90.95227250356099L48.75219993591308,87.79442568753136L49.912966601053874,85.23808023788358L51.07373326619466,84.23293793577311L52.23449993133545,82.06439327300966L53.39526659647624,80.0462357376667L54.556033261617024,78.3841986915195L55.716799926757815,75.9861368720643L56.8775665918986,75.19469514945135L58.03833325703939,73.15277739084195L59.199099922180174,72.44840934357248L60.359866587320965,69.8920638939247L61.52063325246175,68.95815511831341L62.68139991760254,68.04008649154639L63.842166582743324,66.6946402774344L65.00293324788412,65.44416424143795L66.1636999130249,64.50235896305458L67.3244665781657,63.36266968236791L68.48523324330647,61.930173364562506L69.64599990844727,61.075418189872536L70.80676657358805,60.014882510107185L71.96753323872885,59.04142050568528L73.12829990386963,58.65359614715089L74.28906656901042,56.84911561965539L75.4498332341512,56.524628284848106L76.610599899292,55.28207232327381L77.77136656443278,54.490630600660865L78.93213322957357,53.643795500393026L80.09289989471435,53.20849783862589L81.25366655985515,51.791818098014716L82.41443322499593,50.4384518094806L83.57519989013672,50.47802860994126L84.7359665552775,49.83697401474882L85.8967332204183,48.9584586167924L87.05749988555908,48.76851826056131L88.21826655069987,48.58649797875236L89.37903321584066,47.12232136325838L90.53979988098145,46.766177302412586L91.70056654612223,44.89838332284003L92.86133321126302,39.2237678576233L94.02209987640381,36.540771932171396L95.1828665415446,35.95511071463383L96.34363320668538,35.219062369675754L97.50439987182617,35.08453896274963L98.66516653696696,34.75213155352017L99.82593320210775,34.01608320856212L100.98669986724853,34.73629140467591L102.14746653238932,33.77074947467614L103.30823319753011,34.4434607959071L104.4689998626709,33.604545770061435L105.62976652781168,33.564968969600756L106.79053319295248,33.20882490875496L107.95129985809326,32.94765102602469L109.11206652323405,32.86849742510336L110.27283318837483,33.72325259979334L111.43359985351563,33.03470112971809L112.59436651865641,32.931810877180396L113.7551331837972,32.59148339352882L114.91589984893798,32.98720425483529L116.07666651407878,32.702293720488655L117.23743317921956,32.195762532222346L118.39819984436035,32.43319976333623L119.55896650950113,31.88711534625932L120.71973317464193,32.021662324835546L121.88049983978271,32.623140119567324L123.0412665049235,31.55470793702989L124.2020331700643,30.92154984460953L125.36279983520508,32.559826667490285L126.52356650034586,31.80796174533802L127.68433316548665,32.24325940710514L128.84509983062745,31.879195271837176L130.00586649576823,31.47555433610856L131.16663316090902,31.348927431954507L132.3273998260498,30.89781319299314L133.4881664911906,31.80796174533802L134.6489331563314,30.367545353110472L135.80969982147215,30.41504222799327L136.97046648661293,30.684112613495643L138.13123315175375,31.341007357532362L139.29199981689453,30.32007204987775L140.45276648203532,30.130108121996585L141.6135331471761,29.299113170573037L142.77429981231688,30.58914243538007L143.9350664774577,30.64455938468504L145.09583314259848,29.59194377934182L146.25659980773926,29.544446904459022L147.41736647288005,29.805620787189298L148.57813313802083,29.623600505380352L149.73889980316162,29.481133452381982L150.8996664683024,29.584023704919673L152.06043313344318,29.52071025284266L153.221199798584,29.544446904459022L154.38196646372478,28.99836248738211L155.54273312886556,29.370323125422146L156.70349979400635,29.489053526804128L157.86426645914713,29.805620787189298L159.02503312428792,29.544446904459022L160.1857997894287,29.196222918035346L161.3465664545695,28.626378277691998L162.5073331197103,28.784661907884583L163.66809978485108,29.94808784018764L164.82886644999186,29.219959569651706L165.98963311513265,29.330769896611542L167.15039978027343,28.191080615924875L168.31116644541422,28.83215878276738L169.471933110555,28.293970868462566L170.6326997756958,28.634298352114143L171.7934664408366,28.721348455807572L172.95423310597738,28.863815508805914L174.11499977111816,29.457396800765622L175.27576643625895,28.32562759450107L176.43653310139973,27.771623103002042L177.59729976654052,28.104030512231475L178.75806643168133,28.95878568692146L179.9188330968221,28.800502056728874L181.0795997619629,28.28605079404042L182.24036642710368,27.9299067331946L183.40113309224446,28.412701269844547L184.56189975738525,28.270234216846205L185.72266642252603,27.724126228119218L186.88343308766682,28.064453711770824L188.04419975280763,27.858673206695443L189.2049664179484,28.07237378619297L190.3657330830892,27.360085664501327L191.52649974822998,27.621259547231602L192.68726641337076,27.7558065258078L193.84803307851155,27.31258878961853L195.00879974365233,28.19900069034702L196.16956640879314,27.43921569377258L197.33033307393393,27.660812776042206L198.4910997390747,27.41547904215622L199.6518664042155,27.605419398387312L200.81263306935628,27.39963889331193L201.97339973449706,27.130568507809585L203.13416639963785,28.491831299115802L204.29493306477863,27.138465010581655L205.45569972991944,27.33632544123489L206.61646639506023,27.43921569377258L207.777233060201,27.763703028579897L208.9379997253418,27.652916273270108L210.09876639048258,27.00391803200546L211.25953305562336,28.19900069034702L212.42029972076415,27.241355263119345L213.58106638590496,26.33912678519664L214.74183305104575,27.043494832466138L215.90259971618653,27.22553868592513L217.0633663813273,26.48949034096708L218.2241330464681,26.782320949735862L219.38489971160888,26.7585842981195L220.54566637674967,27.138465010581655L221.70643304189045,25.95922250108441L222.86719970703126,27.32842893846282L224.02796637217205,26.916867928312058L225.18873303731283,26.600300667926916L226.3494997024536,26.703190920464607L227.5102663675944,26.331206710774495L228.67103303273518,26.568643941888382L229.83179969787597,26.916867928312058L230.99256636301678,26.584460519082626L232.15333302815756,26.568643941888382L233.31409969329835,26.291629910313844L234.47486635843913,25.800938870891827L235.6356330235799,26.03045602758357L236.7963996887207,26.99602152923339L237.95716635386148,26.252053109853165L239.11793301900227,26.315366561930205L240.27869968414308,25.895909049007372L241.43946634928386,26.014639450389353L242.60023301442465,26.101689554082753L243.76099967956543,25.95922250108441L244.9217663447062,25.421058158429645L246.082533009847,26.006719375967208L247.24329967498778,25.428954661201715L248.4040663401286,26.711087423236677L249.56483300526938,25.47645153608451L250.72559967041016,26.1096096285049L251.88636633555095,26.03045602758357L253.04713300069173,25.34982463193046L254.2078996658325,26.1096096285049" fill="none"></path></g></g></g></g></g></g><g transform="translate(51, 177)" clip-path="url(#clip_1)"><clipPath id="clip_1"><rect width="278" height="22"></rect></clipPath><g><g><line x1="0" y1="0" x2="0" y2="5" style="visibility: inherit;" fill="rgb(0, 0, 0)" stroke="rgb(204, 204, 204)" stroke-width="1px"></line><line x1="23.215333302815754" y1="0" x2="23.215333302815754" y2="5" style="visibility: inherit;" fill="rgb(0, 0, 0)" stroke="rgb(204, 204, 204)" stroke-width="1px"></line><line x1="46.43066660563151" y1="0" x2="46.43066660563151" y2="5" style="visibility: inherit;" fill="rgb(0, 0, 0)" stroke="rgb(204, 204, 204)" stroke-width="1px"></line><line x1="69.64599990844727" y1="0" x2="69.64599990844727" y2="5" style="visibility: inherit;" fill="rgb(0, 0, 0)" stroke="rgb(204, 204, 204)" stroke-width="1px"></line><line x1="92.86133321126302" y1="0" x2="92.86133321126302" y2="5" style="visibility: inherit;" fill="rgb(0, 0, 0)" stroke="rgb(204, 204, 204)" stroke-width="1px"></line><line x1="116.07666651407878" y1="0" x2="116.07666651407878" y2="5" style="visibility: inherit;" fill="rgb(0, 0, 0)" stroke="rgb(204, 204, 204)" stroke-width="1px"></line><line x1="139.29199981689453" y1="0" x2="139.29199981689453" y2="5" style="visibility: inherit;" fill="rgb(0, 0, 0)" stroke="rgb(204, 204, 204)" stroke-width="1px"></line><line x1="162.5073331197103" y1="0" x2="162.5073331197103" y2="5" style="visibility: inherit;" fill="rgb(0, 0, 0)" stroke="rgb(204, 204, 204)" stroke-width="1px"></line><line x1="185.72266642252603" y1="0" x2="185.72266642252603" y2="5" style="visibility: inherit;" fill="rgb(0, 0, 0)" stroke="rgb(204, 204, 204)" stroke-width="1px"></line><line x1="208.9379997253418" y1="0" x2="208.9379997253418" y2="5" style="visibility: inherit;" fill="rgb(0, 0, 0)" stroke="rgb(204, 204, 204)" stroke-width="1px"></line><line x1="232.15333302815756" y1="0" x2="232.15333302815756" y2="5" style="visibility: inherit;" fill="rgb(0, 0, 0)" stroke="rgb(204, 204, 204)" stroke-width="1px"></line><line x1="255.3686663309733" y1="0" x2="255.3686663309733" y2="5" style="visibility: inherit;" fill="rgb(0, 0, 0)" stroke="rgb(204, 204, 204)" stroke-width="1px"></line><line x1="278.58399963378906" y1="0" x2="278.58399963378906" y2="5" style="visibility: inherit;" fill="rgb(0, 0, 0)" stroke="rgb(204, 204, 204)" stroke-width="1px"></line></g><g transform="translate(0, 8)"><text style="text-anchor: middle; visibility: hidden; font-family: &quot;Helvetica Neue&quot;, sans-serif; font-size: 12px; font-weight: 200;" x="0" y="0" dx="0em" dy="0.95em" fill="rgb(50, 49, 63)" stroke="none" stroke-width="1px">-20</text><text style="text-anchor: middle; visibility: inherit; font-family: &quot;Helvetica Neue&quot;, sans-serif; font-size: 12px; font-weight: 200;" x="23.215333302815754" y="0" dx="0em" dy="0.95em" fill="rgb(50, 49, 63)" stroke="none" stroke-width="1px">0</text><text style="text-anchor: middle; visibility: hidden; font-family: &quot;Helvetica Neue&quot;, sans-serif; font-size: 12px; font-weight: 200;" x="46.43066660563151" y="0" dx="0em" dy="0.95em" fill="rgb(50, 49, 63)" stroke="none" stroke-width="1px">20</text><text style="text-anchor: middle; visibility: inherit; font-family: &quot;Helvetica Neue&quot;, sans-serif; font-size: 12px; font-weight: 200;" x="69.64599990844727" y="0" dx="0em" dy="0.95em" fill="rgb(50, 49, 63)" stroke="none" stroke-width="1px">40</text><text style="text-anchor: middle; visibility: hidden; font-family: &quot;Helvetica Neue&quot;, sans-serif; font-size: 12px; font-weight: 200;" x="92.86133321126302" y="0" dx="0em" dy="0.95em" fill="rgb(50, 49, 63)" stroke="none" stroke-width="1px">60</text><text style="text-anchor: middle; visibility: inherit; font-family: &quot;Helvetica Neue&quot;, sans-serif; font-size: 12px; font-weight: 200;" x="116.07666651407878" y="0" dx="0em" dy="0.95em" fill="rgb(50, 49, 63)" stroke="none" stroke-width="1px">80</text><text style="text-anchor: middle; visibility: hidden; font-family: &quot;Helvetica Neue&quot;, sans-serif; font-size: 12px; font-weight: 200;" x="139.29199981689453" y="0" dx="0em" dy="0.95em" fill="rgb(50, 49, 63)" stroke="none" stroke-width="1px">100</text><text style="text-anchor: middle; visibility: inherit; font-family: &quot;Helvetica Neue&quot;, sans-serif; font-size: 12px; font-weight: 200;" x="162.5073331197103" y="0" dx="0em" dy="0.95em" fill="rgb(50, 49, 63)" stroke="none" stroke-width="1px">120</text><text style="text-anchor: middle; visibility: hidden; font-family: &quot;Helvetica Neue&quot;, sans-serif; font-size: 12px; font-weight: 200;" x="185.72266642252603" y="0" dx="0em" dy="0.95em" fill="rgb(50, 49, 63)" stroke="none" stroke-width="1px">140</text><text style="text-anchor: middle; visibility: inherit; font-family: &quot;Helvetica Neue&quot;, sans-serif; font-size: 12px; font-weight: 200;" x="208.9379997253418" y="0" dx="0em" dy="0.95em" fill="rgb(50, 49, 63)" stroke="none" stroke-width="1px">160</text><text style="text-anchor: middle; visibility: hidden; font-family: &quot;Helvetica Neue&quot;, sans-serif; font-size: 12px; font-weight: 200;" x="232.15333302815756" y="0" dx="0em" dy="0.95em" fill="rgb(50, 49, 63)" stroke="none" stroke-width="1px">180</text><text style="text-anchor: middle; visibility: inherit; font-family: &quot;Helvetica Neue&quot;, sans-serif; font-size: 12px; font-weight: 200;" x="255.3686663309733" y="0" dx="0em" dy="0.95em" fill="rgb(50, 49, 63)" stroke="none" stroke-width="1px">200</text><text style="text-anchor: middle; visibility: hidden; font-family: &quot;Helvetica Neue&quot;, sans-serif; font-size: 12px; font-weight: 200;" x="278.58399963378906" y="0" dx="0em" dy="0.95em" fill="rgb(50, 49, 63)" stroke="none" stroke-width="1px">220</text></g><line x1="0" y1="0" x2="278.58399963378906" y2="0" fill="rgb(0, 0, 0)" stroke="rgb(204, 204, 204)" stroke-width="1px"></line></g></g></g></g></svg>