<svg viewBox="0 0 330 200" xmlns="http://www.w3.org/2000/svg"><g><g><g><g><g><line x1="41.0620002746582" y1="177.95999908447266" x2="36.0620002746582" y2="177.95999908447266" style="visibility: inherit;" fill="rgb(0, 0, 0)" stroke="rgb(204, 204, 204)" stroke-width="1px"></line><line x1="41.0620002746582" y1="160.16399917602538" x2="36.0620002746582" y2="160.16399917602538" style="visibility: inherit;" fill="rgb(0, 0, 0)" stroke="rgb(204, 204, 204)" stroke-width="1px"></line><line x1="41.0620002746582" y1="142.36799926757814" x2="36.0620002746582" y2="142.36799926757814" style="visibility: inherit;" fill="rgb(0, 0, 0)" stroke="rgb(204, 204, 204)" stroke-width="1px"></line><line x1="41.0620002746582" y1="124.57199935913084" x2="36.0620002746582" y2="124.57199935913084" style="visibility: inherit;" fill="rgb(0, 0, 0)" stroke="rgb(204, 204, 204)" stroke-width="1px"></line><line x1="41.0620002746582" y1="106.77599945068361" x2="36.0620002746582" y2="106.77599945068361" style="visibility: inherit;" fill="rgb(0, 0, 0)" stroke="rgb(204, 204, 204)" stroke-width="1px"></line><line x1="41.0620002746582" y1="88.97999954223633" x2="36.0620002746582" y2="88.97999954223633" style="visibility: inherit;" fill="rgb(0, 0, 0)" stroke="rgb(204, 204, 204)" stroke-width="1px"></line><line x1="41.0620002746582" y1="71.18399963378904" x2="36.0620002746582" y2="71.18399963378904" style="visibility: inherit;" fill="rgb(0, 0, 0)" stroke="rgb(204, 204, 204)" stroke-width="1px"></line><line x1="41.0620002746582" y1="53.3879997253418" x2="36.0620002746582" y2="53.3879997253418" style="visibility: inherit;" fill="rgb(0, 0, 0)" stroke="rgb(204, 204, 204)" stroke-width="1px"></line><line x1="41.0620002746582" y1="35.591999816894514" x2="36.0620002746582" y2="35.591999816894514" style="visibility: inherit;" fill="rgb(0, 0, 0)" stroke="rgb(204, 204, 204)" stroke-width="1px"></line><line x1="41.0620002746582" y1="17.79599990844727" x2="36.0620002746582" y2="17.79599990844727" style="visibility: inherit;" fill="rgb(0, 0, 0)" stroke="rgb(204, 204, 204)" stroke-width="1px"></line><line x1="41.0620002746582" y1="0" x2="36.0620002746582" y2="0" style="visibility: inherit;" fill="rgb(0, 0, 0)" stroke="rgb(204, 204, 204)" stroke-width="1px"></line></g><g transform="translate(31.062000274658203, 0)"><text style="text-anchor: end; visibility: hidden; font-family: &quot;Helvetica Neue&quot;, sans-serif; font-size: 12px; font-weight: 200;" x="0" y="177.95999908447266" dx="0em" dy="0.3em" fill="rgb(50, 49, 63)" stroke="none" stroke-width="1px">1</text><text style="text-anchor: end; visibility: inherit; font-family: &quot;Helvetica Neue&quot;, sans-serif; font-size: 12px; font-weight: 200;" x="0" y="160.16399917602538" dx="0em" dy="0.3em" fill="rgb(50, 49, 63)" stroke="none" stroke-width="1px">1.1</text><text style="text-anchor: end; visibility: hidden; font-family: &quot;Helvetica Neue&quot;, sans-serif; font-size: 12px; font-weight: 200;" x="0" y="142.36799926757814" dx="0em" dy="0.3em" fill="rgb(50, 49, 63)" stroke="none" stroke-width="1px">1.2</text><text style="text-anchor: end; visibility: inherit; font-family: &quot;Helvetica Neue&quot;, sans-serif; font-size: 12px; font-weight: 200;" x="0" y="124.57199935913084" dx="0em" dy="0.3em" fill="rgb(50, 49, 63)" stroke="none" stroke-width="1px">1.3</text><text style="text-anchor: end; visibility: hidden; font-family: &quot;Helvetica Neue&quot;, sans-serif; font-size: 12px; font-weight: 200;" x="0" y="106.77599945068361" dx="0em" dy="0.3em" fill="rgb(50, 49, 63)" stroke="none" stroke-width="1px">1.4</text><text style="text-anchor: end; visibility: inherit; font-family: &quot;Helvetica Neue&quot;, sans-serif; font-size: 12px; font-weight: 200;" x="0" y="88.97999954223633" dx="0em" dy="0.3em" fill="rgb(50, 49, 63)" stroke="none" stroke-width="1px">1.5</text><text style="text-anchor: end; visibility: hidden; font-family: &quot;Helvetica Neue&quot;, sans-serif; font-size: 12px; font-weight: 200;" x="0" y="71.18399963378904" dx="0em" dy="0.3em" fill="rgb(50, 49, 63)" stroke="none" stroke-width="1px">1.6</text><text style="text-anchor: end; visibility: inherit; font-family: &quot;Helvetica Neue&quot;, sans-serif; font-size: 12px; font-weight: 200;" x="0" y="53.3879997253418" dx="0em" dy="0.3em" fill="rgb(50, 49, 63)" stroke="none" stroke-width="1px">1.7</text><text style="text-anchor: end; visibility: hidden; font-family: &quot;Helvetica Neue&quot;, sans-serif; font-size: 12px; font-weight: 200;" x="0" y="35.591999816894514" dx="0em" dy="0.3em" fill="rgb(50, 49, 63)" stroke="none" stroke-width="1px">1.8</text><text style="text-anchor: end; visibility: inherit; font-family: &quot;Helvetica Neue&quot;, sans-serif; font-size: 12px; font-weight: 200;" x="0" y="17.79599990844727" dx="0em" dy="0.3em" fill="rgb(50, 49, 63)" stroke="none" stroke-width="1px">1.9</text><text style="text-anchor: end; visibility: hidden; font-family: &quot;Helvetica Neue&quot;, sans-serif; font-size: 12px; font-weight: 200;" x="0" y="0" dx="0em" dy="0.3em" fill="rgb(50, 49, 63)" stroke="none" stroke-width="1px">2</text></g><line x1="41.0620002746582" y1="0" x2="41.0620002746582" y2="177.95999908447266" fill="rgb(0, 0, 0)" stroke="rgb(204, 204, 204)" stroke-width="1px"></line></g></g><g transform="translate(41, 0)" clip-path="url(#clip_0)"><clipPath id="clip_0"><rect width="288" height="177"></rect></clipPath><g><g><g><line x1="0" y1="0" x2="0" y2="177.95999908447266" fill="rgb(0, 0, 0)" stroke="rgb(60, 60, 60)" stroke-width="1px" opacity="0.25"></line><line x1="24.07816664377848" y1="0" x2="24.07816664377848" y2="177.95999908447266" fill="rgb(0, 0, 0)" stroke="rgb(60, 60, 60)" stroke-width="1px" opacity="0.25"></line><line x1="48.15633328755696" y1="0" x2="48.15633328755696" y2="177.95999908447266" fill="rgb(0, 0, 0)" stroke="rgb(60, 60, 60)" stroke-width="1px" opacity="0.25"></line><line x1="72.23449993133545" y1="0" x2="72.23449993133545" y2="177.95999908447266" fill="rgb(0, 0, 0)" stroke="rgb(60, 60, 60)" stroke-width="1px" opacity="0.25"></line><line x1="96.31266657511392" y1="0" x2="96.31266657511392" y2="177.95999908447266" fill="rgb(0, 0, 0)" stroke="rgb(60, 60, 60)" stroke-width="1px" opacity="0.25"></line><line x1="120.39083321889242" y1="0" x2="120.39083321889242" y2="177.95999908447266" fill="rgb(0, 0, 0)" stroke="rgb(60, 60, 60)" stroke-width="1px" opacity="0.25"></line><line x1="144.4689998626709" y1="0" x2="144.4689998626709" y2="177.95999908447266" fill="rgb(0, 0, 0)" stroke="rgb(60, 60, 60)" stroke-width="1px" opacity="0.25"></line><line x1="168.5471665064494" y1="0" x2="168.5471665064494" y2="177.95999908447266" fill="rgb(0, 0, 0)" stroke="rgb(60, 60, 60)" stroke-width="1px" opacity="0.25"></line><line x1="192.62533315022785" y1="0" x2="192.62533315022785" y2="177.95999908447266" fill="rgb(0, 0, 0)" stroke="rgb(60, 60, 60)" stroke-width="1px" opacity="0.25"></line><line x1="216.70349979400635" y1="0" x2="216.70349979400635" y2="177.95999908447266" fill="rgb(0, 0, 0)" stroke="rgb(60, 60, 60)" stroke-width="1px" opacity="0.25"></line><line x1="240.78166643778485" y1="0" x2="240.78166643778485" y2="177.95999908447266" fill="rgb(0, 0, 0)" stroke="rgb(60, 60, 60)" stroke-width="1px" opacity="0.25"></line><line x1="264.8598330815633" y1="0" x2="264.8598330815633" y2="177.95999908447266" fill="rgb(0, 0, 0)" stroke="rgb(60, 60, 60)" stroke-width="1px" opacity="0.25"></line><line x1="288.9379997253418" y1="0" x2="288.9379997253418" y2="177.95999908447266" fill="rgb(0, 0, 0)" stroke="rgb(60, 60, 60)" stroke-width="1px" opacity="0.25"></line></g><g><line x1="0" y1="177.95999908447266" x2="288.9379997253418" y2="177.95999908447266" fill="rgb(0, 0, 0)" stroke="rgb(60, 60, 60)" stroke-width="1px" opacity="0.25"></line><line x1="0" y1="160.16399917602538" x2="288.9379997253418" y2="160.16399917602538" fill="rgb(0, 0, 0)" stroke="rgb(60, 60, 60)" stroke-width="1px" opacity="0.25"></line><line x1="0" y1="142.36799926757814" x2="288.9379997253418" y2="142.36799926757814" fill="rgb(0, 0, 0)" stroke="rgb(60, 60, 60)" stroke-width="1px" opacity="0.25"></line><line x1="0" y1="124.57199935913084" x2="288.9379997253418" y2="124.57199935913084" fill="rgb(0, 0, 0)" stroke="rgb(60, 60, 60)" stroke-width="1px" opacity="0.25"></line><line x1="0" y1="106.77599945068361" x2="288.9379997253418" y2="106.77599945068361" fill="rgb(0, 0, 0)" stroke="rgb(60, 60, 60)" stroke-width="1px" opacity="0.25"></line><line x1="0" y1="88.97999954223633" x2="288.9379997253418" y2="88.97999954223633" fill="rgb(0, 0, 0)" stroke="rgb(60, 60, 60)" stroke-width="1px" opacity="0.25"></line><line x1="0" y1="71.18399963378904" x2="288.9379997253418" y2="71.18399963378904" fill="rgb(0, 0, 0)" stroke="rgb(60, 60, 60)" stroke-width="1px" opacity="0.25"></line><line x1="0" y1="53.3879997253418" x2="288.9379997253418" y2="53.3879997253418" fill="rgb(0, 0, 0)" stroke="rgb(60, 60, 60)" stroke-width="1px" opacity="0.25"></line><line x1="0" y1="35.591999816894514" x2="288.9379997253418" y2="35.591999816894514" fill="rgb(0, 0, 0)" stroke="rgb(60, 60, 60)" stroke-width="1px" opacity="0.25"></line><line x1="0" y1="17.79599990844727" x2="288.9379997253418" y2="17.79599990844727" fill="rgb(0, 0, 0)" stroke="rgb(60, 60, 60)" stroke-width="1px" opacity="0.25"></line><line x1="0" y1="0" x2="288.9379997253418" y2="0" fill="rgb(0, 0, 0)" stroke="rgb(60, 60, 60)" stroke-width="1px" opacity="0.25"></line></g></g></g><g><g><line x1="0" y1="355.9199981689453" x2="288.9379997253418" y2="355.9199981689453" fill="rgb(0, 0, 0)" stroke="rgb(153, 153, 153)" stroke-width="1.5px"></line></g></g><g><g><line x1="24.07816664377848" y1="0" x2="24.07816664377848" y2="177.95999908447266" fill="rgb(0, 0, 0)" stroke="rgb(153, 153, 153)" stroke-width="1.5px"></line></g></g><g><g><g><g><g><path style="fill: none;" stroke="rgb(204, 51, 17)" stroke-width="2px" d="M25.282074975967404,-9.054267972619073L26.485983308156328,3.240613902800618L27.68989164034526,13.774134385776051L28.893799972534183,23.374805038471663L30.097708304723106,32.30946903167998L31.30161663691203,38.89048230655774L32.505524969100954,46.308418565818414L33.70943330128988,52.447627441530884L34.9133416334788,57.861045282795914L36.117249965667725,63.174481444064014L37.321158297856655,67.58349892894242L38.52506663004557,70.799060674954L39.7289749622345,73.32896040321151L40.93288329442342,76.74404880191126L42.13679162661235,80.25735593954228L43.34069995880127,82.21578883488988L44.5446082909902,85.46039598667618L45.748516623179114,88.17961102787558L46.952424955368045,90.47643792540306L48.15633328755696,92.22016666224484L49.36024161974589,93.23216425083963L50.56414995193481,95.02812158032553L51.76805828412374,95.93877902718883L52.971966616312656,98.13556053386428L54.17587494850159,99.66004273247172L55.37978328069052,101.03776669793393L56.583691612879434,101.74755071929165L57.787599945068365,103.65250378225406L58.99150827725728,105.26917775533005L60.19541660944621,106.6157984707539L61.39932494163513,107.90116462387132L62.60323327382406,108.11381531778049L63.807141606012976,108.91353154832771L65.01104993820191,110.38486692015086L66.21495827039082,111.46727946193604L67.41886660257975,112.69774930026223L68.62277493476867,112.79925721247945L69.8266832669576,113.5357754238608L71.03059159914652,114.0519709906225L72.23449993133545,115.21961059251879L73.43840826352437,116.0093291335253L74.64231659571331,115.91636013170151L75.84622492790223,117.13320174637727L77.05013326009114,117.02136320351414L78.25404159228006,118.78058115349819L79.457949924469,120.09127974972137L80.66185825665792,119.83612709154619L81.86576658884684,121.0905911229674L83.06967492103576,121.73016239326608L84.2735832532247,122.42349237881118L85.47749158541362,123.19425596088706L86.68139991760253,123.77502305041013L87.88530824979145,121.33283659568352L89.0892165819804,122.26640777859424L90.29312491416931,121.04359182022024L91.49703324635823,122.95829310261992L92.70094157854717,125.03268488360956L93.90484991073609,126.50400096795899L95.108758242925,127.10002169533074L96.31266657511392,128.28209690751106L97.51657490730287,129.1113311623147L98.72048323949178,129.6445629648607L99.9243915716807,130.02109380673252L101.12829990386962,130.29660329213024L102.33220823605856,130.44062661195744L103.53611656824748,130.47433533717236L104.7400249004364,130.5412239536378L105.94393323262531,130.62371820728345L107.14784156481426,130.71984419763126L108.35174989700317,130.82812058160343L109.55565822919209,130.91250190871298L110.75956656138104,130.90241484873897L111.96347489356995,130.86594952697357L113.16738322575887,130.9539783381096L114.37129155794779,131.09076255665605L115.57519989013673,131.15634518999576L116.77910822232565,131.17756062817088L117.98301655451456,131.23632532365468L119.18692488670348,131.30259971810173L120.39083321889242,131.3750431475553L121.59474155108134,131.41850071943344L122.79864988327026,131.49850248358106L124.00255821545917,131.5055680716992L125.20646654764812,131.4952203446433L126.41037487983704,131.33558006666675L127.61428321202595,131.39288810986284L128.8181915442149,131.5047397494231L130.02209987640381,131.64078932380806L131.22600820859273,131.6659291376231L132.42991654078165,131.66231882167781L133.6338248729706,131.77563580297956L134.8377332051595,131.80528717436135L136.04164153734843,131.968829995342L137.24554986953734,132.05120605422235L138.4494582017263,132.0708295809393L139.6533665339152,132.01158608678486L140.85727486610412,132.05486453097856L142.06118319829304,131.9576518114464L143.26509153048198,132.14748274015693L144.4689998626709,132.29663128575783L145.67290819485982,132.3781861957062L146.87681652704873,132.39328628090263L148.08072485923765,132.32345390498187L149.28463319142662,132.41226116477694L150.48854152361554,132.5050553776284L151.69244985580445,132.55554708519077L152.89635818799337,132.64312121938838L154.1002665201823,132.66412400352073L155.3041748523712,132.69555565093881L156.50808318456012,132.7087121858057L157.71199151674904,132.65705280426732L158.915899848938,132.73524388704755L160.11980818112693,132.76748659884868L161.32371651331584,132.8112373695416L162.52762484550476,132.88314988959905L163.73153317769368,132.8935167793198L164.9354415098826,132.8608550049356L166.1393498420715,132.85940056792776L167.34325817426048,132.93064866913076L168.5471665064494,132.9041025358548L169.75107483863832,132.94455447138287L170.95498317082723,132.9411364868003L172.15889150301615,132.9707546793473L173.36279983520507,133.07149120304547L174.56670816739398,133.09253357561224L175.7706164995829,133.1456107792634L176.97452483177187,133.13894856817438L178.1784331639608,133.16341259467657L179.3823414961497,133.17220186952542L180.58624982833862,133.18417921171346L181.79015816052754,133.2031014701611L182.99406649271646,133.2391994006029L184.19797482490537,133.28184352748863L185.40188315709435,133.30660688159978L186.60579148928326,133.2772454214088L187.80969982147218,133.33654378232532L189.0136081536611,133.3567380543102L190.21751648585,133.34649455024856L191.42142481803893,133.42193935734977L192.62533315022785,133.4068383029257L193.82924148241676,133.43354529208128L195.03314981460574,133.4634098156273L196.23705814679465,133.43867044319765L197.44096647898357,133.52373007278118L198.64487481117249,133.5330581729047L199.8487831433614,133.44571861683096L201.05269147555032,133.50732152589543L202.25659980773924,133.5428661437322L203.4605081399282,133.51083424161305L204.66441647211713,133.6138359916653L205.86832480430604,133.62264325801846L207.07223313649496,133.65388566174897L208.27614146868387,133.68932266083192L209.4800498008728,133.70442417382048L210.6839581330617,133.70891123863478L211.88786646525062,133.7134873237967L213.0917747974396,133.79885915130285L214.29568312962851,133.82032256816532L215.49959146181743,133.80025876588272L216.70349979400635,133.85072684329188L217.90740812619526,133.90107659260354L219.11131645838418,133.97144970530482L220.3152247905731,133.89529674629458L221.51913312276207,133.97291204384726L222.723041454951,133.9677857651863L223.9269497871399,134.04210043948612L225.13085811932882,134.02382648193822L226.33476645151774,134.06830828556053L227.53867478370665,134.12882174271246L228.74258311589557,134.1211224891966L229.9464914480845,134.15793906930492L231.15039978027346,134.13378992573465L232.35430811246238,134.19804012233865L233.5582164446513,134.19932063294883L234.7621247768402,134.2477451585522L235.96603310902913,134.21240118306812L237.16994144121804,134.2037113439627L238.37384977340696,134.21049635324897L239.57775810559593,134.2436651465281L240.78166643778485,134.34719392259944L241.98557476997377,134.3375553139776L243.18948310216268,134.39784254107323L244.3933914343516,134.44320499225833L245.59729976654052,134.43632654258204L246.80120809872943,134.46368176860426L248.00511643091835,134.52606245044413L249.20902476310732,134.49718286504665L250.41293309529624,134.53141479829634L251.61684142748516,134.50267695235038L252.82074975967407,134.5701224691396L254.024658091863,134.61645346288353L255.2285664240519,134.60460642945105L256.4324747562408,134.58040782022772L257.6363830884298,134.6643493227511L258.8402914206187,134.63114612471944L260.04419975280763,134.64783192131878L261.24810808499655,134.7010870056233L262.45201641718546,134.66775035698743L263.6559247493744,134.72051405155938" fill="none"></path></g><g><path style="fill: none;" stroke="rgb(0, 119, 187)" stroke-width="2px" d="M27.68989164034526,-2.114477051768006L28.893799972534183,7.129736490711224L30.097708304723106,15.41278434636385L31.30161663691203,22.85853305681772L32.505524969100954,29.31318768246024L33.70943330128988,35.3656500778136L34.9133416334788,40.651685292619334L36.117249965667725,45.27755184614006L37.321158297856655,49.634024487519724L38.52506663004557,53.34745498175937L39.7289749622345,57.098482956552886L40.93288329442342,59.9203630398968L42.13679162661235,62.498596383449126L43.34069995880127,64.93584809867549L44.5446082909902,67.32348976752581L45.748516623179114,69.52265777854004L46.952424955368045,71.34032594384097L48.15633328755696,73.40444687187849L49.36024161974589,75.20912099363758L50.56414995193481,76.96692656659805L51.76805828412374,78.48978147219682L52.971966616312656,79.72573874160193L54.17587494850159,81.02141717773486L55.37978328069052,82.59949225368338L56.583691612879434,83.89540810288227L57.787599945068365,85.19444328115931L58.99150827725728,86.66694146190636L60.19541660944621,87.49778580311325L61.39932494163513,88.70385487090397L62.60323327382406,89.71820259569336L63.807141606012976,90.92593373219003L65.01104993820191,91.80829784817257L66.21495827039082,92.68778925831995L67.41886660257975,93.7801033790536L68.62277493476867,94.60317962349293L69.8266832669576,95.29618695438114L71.03059159914652,96.11493928168126L72.23449993133545,97.06953200301605L73.43840826352437,97.77460662160256L74.64231659571331,98.70889502523241L75.84622492790223,99.31995005589357L77.05013326009114,100.3347789365863L78.25404159228006,101.0924576915617L79.457949924469,101.40671839715303L80.66185825665792,102.05183599636914L81.86576658884684,102.80126693229565L83.06967492103576,103.32344508957236L84.2735832532247,104.34226089907189L85.47749158541362,104.6960659367057L86.68139991760253,105.40732213367535L87.88530824979145,105.88348014466257L89.0892165819804,106.73023019472168L90.29312491416931,107.29953068602009L91.49703324635823,107.13269311766129L92.70094157854717,107.94623904759281L93.90484991073609,108.45777891126312L95.108758242925,109.03394010225009L96.31266657511392,109.94720066432525L97.51657490730287,110.50696922685134L98.72048323949178,110.97916313115223L99.9243915716807,111.18255177982327L101.12829990386962,111.3430765307175L102.33220823605856,111.48960182449242L103.53611656824748,111.7216482122504L104.7400249004364,111.81861679066698L105.94393323262531,111.82751244602717L107.14784156481426,112.17236645813257L108.35174989700317,112.02707598444103L109.55565822919209,111.9766706457309L110.75956656138104,112.01382161864129L111.96347489356995,112.4191948877947L113.16738322575887,112.18382855214247L114.37129155794779,112.46284224239419L115.57519989013673,112.57088384155522L116.77910822232565,112.41572307678071L117.98301655451456,112.59905135823894L119.18692488670348,112.32485400268962L120.39083321889242,112.27715102989067L121.59474155108134,112.1991758681693L122.79864988327026,112.44833283771396L124.00255821545917,112.5614993352252L125.20646654764812,112.7972567253153L126.41037487983704,112.51664473621719L127.61428321202595,112.50428038009052L128.8181915442149,112.62013489619721L130.02209987640381,112.99998157910298L131.22600820859273,112.87447323934622L132.42991654078165,113.09729963692774L133.6338248729706,113.0952736858612L134.8377332051595,113.20439889491179L136.04164153734843,113.41910519404344L137.24554986953734,113.35268782462451L138.4494582017263,113.10799882103439L139.6533665339152,113.07859486499257L140.85727486610412,113.19710705647823L142.06118319829304,113.43303394869244L143.26509153048198,113.49935503420662L144.4689998626709,113.69564269890067L145.67290819485982,113.77141910309369L146.87681652704873,113.90434802461203L148.08072485923765,113.76267706826793L149.28463319142662,113.88975145870245L150.48854152361554,114.08125014739343L151.69244985580445,113.9852773791184L152.89635818799337,114.11470364684828L154.1002665201823,113.86884699612565L155.3041748523712,114.13410748438824L156.50808318456012,114.16426273659707L157.71199151674904,114.02042148056759L158.915899848938,113.98710202483406L160.11980818112693,114.42017538011478L161.32371651331584,114.26213646658476L162.52762484550476,114.55518179170323L163.73153317769368,114.57904538739746L164.9354415098826,114.13440937504072L166.1393498420715,114.03205699842441L167.34325817426048,114.36376695219182L168.5471665064494,114.2468668129489L169.75107483863832,114.36970217129674L170.95498317082723,114.24185729244789L172.15889150301615,114.13153813501057L173.36279983520507,114.45190850150507L174.56670816739398,114.36115494809258L175.7706164995829,114.6545524846657L176.97452483177187,114.67667567460717L178.1784331639608,114.42778946800306L179.3823414961497,114.40948688956092L180.58624982833862,114.00779392826121L181.79015816052754,114.22407759142004L182.99406649271646,114.44233764939476L184.19797482490537,114.6945811381607L185.40188315709435,114.62228412992494L186.60579148928326,114.5975746718357L187.80969982147218,114.35900406595852L189.0136081536611,114.40977906746245L190.21751648585,114.44856863230207L191.42142481803893,114.54037364374148L192.62533315022785,114.73505644808944L193.82924148241676,114.63489286330551L195.03314981460574,114.53783059366786L196.23705814679465,114.34170756479372L197.44096647898357,114.65736930508487L198.64487481117249,114.84809861892128L199.8487831433614,114.47923629439575L201.05269147555032,114.50612837487445L202.25659980773924,114.94614600623488L203.4605081399282,114.97942784554601L204.66441647211713,115.02529559249311L205.86832480430604,114.77518651758712L207.07223313649496,114.99037510480679L208.27614146868387,114.88476270864825L209.4800498008728,114.91176049151184L210.6839581330617,115.0241032075188L211.88786646525062,115.14009000790882L213.0917747974396,115.20485367134333L214.29568312962851,115.01100593989136L215.49959146181743,114.84144894352127L216.70349979400635,115.23246783306902L217.90740812619526,114.94434576914209L219.11131645838418,115.39026511679006L220.3152247905731,115.2543935916969L221.51913312276207,115.251567930417L222.723041454951,114.96832237373586L223.9269497871399,115.16931455388635L225.13085811932882,115.01515682307641L226.33476645151774,114.68545878424521L227.53867478370665,115.02978036953435L228.74258311589557,115.51664212572345L229.9464914480845,115.33435237874647L231.15039978027346,115.46768072543287L232.35430811246238,115.36614962768914L233.5582164446513,115.29834050429565L234.7621247768402,115.33831250245508L235.96603310902913,115.36130286344998L237.16994144121804,115.42703013947212L238.37384977340696,115.46210480695723L239.57775810559593,115.41355761065972L240.78166643778485,115.69353282598948L241.98557476997377,115.80169310732002L243.18948310216268,115.90023544942244L244.3933914343516,115.64343474318053L245.59729976654052,115.73777593948L246.80120809872943,116.05978235114577L248.00511643091835,115.81931120876865L249.20902476310732,115.7094384181086L250.41293309529624,115.9069307617971L251.61684142748516,115.90079531118371L252.82074975967407,116.00966961274638L254.024658091863,115.94811460144123L255.2285664240519,115.72553787880105L256.4324747562408,115.90956420076091L257.6363830884298,116.2313696088619L258.8402914206187,116.2715303596209L260.04419975280763,116.2108282703972L261.24810808499655,116.10827722403607L262.45201641718546,115.95538005196593L263.6559247493744,115.78098162913872" fill="none"></path></g></g></g></g><g opacity="0.2"><g><g><g><path style="fill: none;" stroke="rgb(204, 51, 17)" stroke-width="2px" d="M25.282074975967404,-0.6226875654610922L26.485983308156328,15.043700503203581L27.68989164034526,26.16155447375513L28.893799972534183,35.909440642631125L30.097708304723106,44.669325813324576L31.30161663691203,48.301436585845295L32.505524969100954,57.123840844008555L33.70943330128988,61.501768053274645L34.9133416334788,65.89933987570566L36.117249965667725,71.09644321105225L37.321158297856655,74.17303147780967L38.52506663004557,75.6119039269579L39.7289749622345,77.11885365866146L40.93288329442342,81.8626670917456L42.13679162661235,85.52483878959538L43.34069995880127,85.15260943474459L44.5446082909902,90.32648290895122L45.748516623179114,92.25801934463198L46.952424955368045,93.92146833261813L48.15633328755696,94.83566413727931L49.36024161974589,94.75012733352014L50.56414995193481,97.72202211650983L51.76805828412374,97.30475440987811L52.971966616312656,101.43071718009469L54.17587494850159,101.94675952916259L55.37978328069052,103.10434912090932L56.583691612879434,102.81222566164251L57.787599945068365,106.50993162196664L58.99150827725728,107.69418782143293L60.19541660944621,108.63572909733557L61.39932494163513,109.82921359780266L62.60323327382406,108.43279133325814L63.807141606012976,110.11310583686645L65.01104993820191,112.5918699146523L66.21495827039082,113.09089824670264L67.41886660257975,114.54345403871412L68.62277493476867,112.95151907986292L69.8266832669576,114.64055273683061L71.03059159914652,114.82626433903988L72.23449993133545,116.97106999302196L73.43840826352437,117.19390694408503L74.64231659571331,115.77690662903296L75.84622492790223,118.9584641678639L77.05013326009114,116.85360538924851L78.25404159228006,121.41940807819992L79.457949924469,122.0573276439336L80.66185825665792,119.45339810429778L81.86576658884684,122.97228717005692L83.06967492103576,122.68951929870127L84.2735832532247,123.46348735712036L85.47749158541362,124.35040133399525L86.68139991760253,124.64617368469226L87.88530824979145,117.66955691359999L89.0892165819804,123.66676455295874L90.29312491416931,119.20936788266044L91.49703324635823,125.83034502621831L92.70094157854717,128.14427255509327L93.90484991073609,128.71097509448282L95.108758242925,127.99405278638824L96.31266657511392,130.05520972578142L97.51657490730287,130.35518254452018L98.72048323949178,130.44441066867967L99.9243915716807,130.58589006954026L101.12829990386962,130.7098675202269L102.33220823605856,130.65666159169814L103.53611656824748,130.52489842499472L104.7400249004364,130.6415568783359L105.94393323262531,130.74745958775202L107.14784156481426,130.86403318315297L108.35174989700317,130.99053515756168L109.55565822919209,131.0390738993774L110.75956656138104,130.88728425877798L111.96347489356995,130.8112515443254L113.16738322575887,131.08602155481367L114.37129155794779,131.29593888447562L115.57519989013673,131.25471914000536L116.77910822232565,131.2093837854336L117.98301655451456,131.3244723668804L119.18692488670348,131.4020113097722L120.39083321889242,131.48370829173564L121.59474155108134,131.48368707725058L122.79864988327026,131.61850512980254L124.00255821545917,131.5161664538764L125.20646654764812,131.47969875405943L126.41037487983704,131.0961196497019L127.61428321202595,131.47885017465705L128.8181915442149,131.67251720876357L130.02209987640381,131.84486368538546L131.22600820859273,131.70363885834558L132.42991654078165,131.6569033477599L133.6338248729706,131.94561127493216L134.8377332051595,131.84976423143416L136.04164153734843,132.214144226813L137.24554986953734,132.1747701425429L138.4494582017263,132.1002648710146L139.6533665339152,131.92272084555316L140.85727486610412,132.11978219726916L142.06118319829304,131.8118327321481L143.26509153048198,132.4322291332228L144.4689998626709,132.5203541041592L145.67290819485982,132.50051856062873L146.87681652704873,132.41593640869723L148.08072485923765,132.21870534110076L149.28463319142662,132.54547205446943L150.48854152361554,132.6442466969056L151.69244985580445,132.63128464653437L152.89635818799337,132.77448242068476L154.1002665201823,132.69562817971928L155.3041748523712,132.7427031220659L156.50808318456012,132.72844698810604L157.71199151674904,132.57956373195975L158.915899848938,132.852530511218L160.11980818112693,132.81585066655043L161.32371651331584,132.87686352558103L162.52762484550476,132.99101866968522L163.73153317769368,132.90906711390107L164.9354415098826,132.81186234335928L166.1393498420715,132.8572189124161L167.34325817426048,133.03752082093524L168.5471665064494,132.86428333594085L169.75107483863832,133.00523237467496L170.95498317082723,132.9360095099264L172.15889150301615,133.01518196816778L173.36279983520507,133.22259598859273L174.56670816739398,133.12409713446232L175.7706164995829,133.22522658474008L176.97452483177187,133.1289552515409L178.1784331639608,133.20010863442985L179.3823414961497,133.1853857817987L180.58624982833862,133.20214522499555L181.79015816052754,133.23148485783258L182.99406649271646,133.29334629626555L184.19797482490537,133.34580971781725L185.40188315709435,133.3437519127665L186.60579148928326,133.2332032311224L187.80969982147218,133.42549132370004L189.0136081536611,133.3870294622875L190.21751648585,133.3311292941562L191.42142481803893,133.53510656800154L192.62533315022785,133.38418672128955L193.82924148241676,133.47360577581458L195.03314981460574,133.50820660094632L196.23705814679465,133.40156138455313L197.44096647898357,133.65131951715648L198.64487481117249,133.54705032308993L199.8487831433614,133.3147092827203L201.05269147555032,133.59972588949222L202.25659980773924,133.5961830704873L203.4605081399282,133.46278638843432L204.66441647211713,133.76833861674368L205.86832480430604,133.63585415754824L207.07223313649496,133.7007492673447L208.27614146868387,133.74247815945637L209.4800498008728,133.7270764433033L210.6839581330617,133.71564183585633L211.88786646525062,133.7203514515395L213.0917747974396,133.92691689256208L214.29568312962851,133.85251769345905L215.49959146181743,133.77016306245878L216.70349979400635,133.9264289594057L217.90740812619526,133.976601216571L219.11131645838418,134.07700937435675L220.3152247905731,133.78106730777927L221.51913312276207,134.0893349901762L222.723041454951,133.96009634719485L223.9269497871399,134.15357245093583L225.13085811932882,133.9964155456164L226.33476645151774,134.13503099099398L227.53867478370665,134.21959192844042L228.74258311589557,134.1095736089228L229.9464914480845,134.21316393946745L231.15039978027346,134.09756621037923L232.35430811246238,134.29441541724464L233.5582164446513,134.2012413988641L234.7621247768402,134.32038194695724L235.96603310902913,134.15938521984208L237.16994144121804,134.19067658530457L238.37384977340696,134.22067386717845L239.57775810559593,134.29341833644685L240.78166643778485,134.50248708670642L241.98557476997377,134.32309740104483L243.18948310216268,134.48827338171668L244.3933914343516,134.51124866903592L245.59729976654052,134.42600886806758L246.80120809872943,134.50471460763765L248.00511643091835,134.61963347320398L249.20902476310732,134.45386348695047L250.41293309529624,134.58276269817088L251.61684142748516,134.45957018343142L252.82074975967407,134.67129074432341L254.024658091863,134.6859499534994L255.2285664240519,134.58683587930227L256.4324747562408,134.5441099063928L257.6363830884298,134.79026157653607L258.8402914206187,134.5813413276719L260.04419975280763,134.6728606162178L261.24810808499655,134.7809696320801L262.45201641718546,134.6177453840337L263.6559247493744,134.79965959341735" fill="none"></path></g><g><path style="fill: none;" stroke="rgb(0, 119, 187)" stroke-width="2px" d="M26.485983308156328,-0.2682783780601312L27.68989164034526,10.637748959174132L28.893799972534183,19.198981691772133L30.097708304723106,26.871221427959426L31.30161663691203,33.506072844746086L32.505524969100954,38.724136091331275L33.70943330128988,44.29185648066414L34.9133416334788,48.50083153091782L36.117249965667725,52.17439540724445L37.321158297856655,56.1450257178567L38.52506663004557,58.90547572826017L39.7289749622345,62.71767626444944L40.93288329442342,64.14986615080397L42.13679162661235,66.36412802887025L43.34069995880127,68.59069430827094L44.5446082909902,70.90434604884013L45.748516623179114,72.82107477394948L46.952424955368045,74.06666204972225L48.15633328755696,76.50051506263753L49.36024161974589,77.91607279270556L50.56414995193481,79.60360022123405L51.76805828412374,80.77404579092672L52.971966616312656,81.57966586105431L54.17587494850159,82.96492930645763L55.37978328069052,84.9666008297445L56.583691612879434,85.83927988714458L57.787599945068365,87.14299485197989L58.99150827725728,88.87568791919966L60.19541660944621,88.7440520394066L61.39932494163513,90.51295823262262L62.60323327382406,91.23972406178473L63.807141606012976,92.73753035042773L65.01104993820191,93.13184398422527L66.21495827039082,94.00702635086236L67.41886660257975,95.41857454325418L68.62277493476867,95.83779398251136L69.8266832669576,96.33569794685354L71.03059159914652,97.34306776989524L72.23449993133545,98.5014210831041L73.43840826352437,98.83221854863405L74.64231659571331,100.11032763000276L75.84622492790223,100.23653260162064L77.05013326009114,101.85702225736168L78.25404159228006,102.2289758239067L79.457949924469,101.87810945551064L80.66185825665792,103.01951239515711L81.86576658884684,103.92541333616009L83.06967492103576,104.10671232547702L84.2735832532247,105.87048461330869L85.47749158541362,105.22677349315381L86.68139991760253,106.47420642912675L87.88530824979145,106.5977171611421L89.0892165819804,108.000355269809L90.29312491416931,108.15348142296716L91.49703324635823,106.8824367651232L92.70094157854717,109.16655794248982L93.90484991073609,109.22508870676847L95.108758242925,109.8981818887305L96.31266657511392,111.31709150743791L97.51657490730287,111.34662207064048L98.72048323949178,111.68745398760348L99.9243915716807,111.48763475282976L101.12829990386962,111.58386365705883L102.33220823605856,111.70938976515481L103.53611656824748,112.06971779388732L104.7400249004364,111.96406965829192L105.94393323262531,111.8408559290674L107.14784156481426,112.6896474762907L108.35174989700317,111.80914027390372L109.55565822919209,111.90106263766575L110.75956656138104,112.06954807800685L111.96347489356995,113.02725479152468L113.16738322575887,111.83077904866423L114.37129155794779,112.88136277777176L115.57519989013673,112.73294624029677L116.77910822232565,112.18298192961902L117.98301655451456,112.87404378042629L119.18692488670348,111.91355796936568L120.39083321889242,112.20559657069225L121.59474155108134,112.08221312558726L122.79864988327026,112.82206829203096L124.00255821545917,112.73124908149202L125.20646654764812,113.15089281045039L126.41037487983704,112.09572675257004L127.61428321202595,112.48573384590054L128.8181915442149,112.79391667035725L130.02209987640381,113.56975160346155L131.22600820859273,112.68621072971109L132.42991654078165,113.4315392333001L133.6338248729706,113.09223475926137L134.8377332051595,113.36808670848768L136.04164153734843,113.74116464274084L137.24554986953734,113.25306177049606L138.4494582017263,112.74096531564919L139.6533665339152,113.03448893092991L140.85727486610412,113.37487534370666L142.06118319829304,113.78692428701379L143.26509153048198,113.59883666247788L144.4689998626709,113.99007419594182L145.67290819485982,113.88508370938325L146.87681652704873,114.10374140688964L148.08072485923765,113.5501706337518L149.28463319142662,114.08036304435427L150.48854152361554,114.36849818042992L151.69244985580445,113.84131822670588L152.89635818799337,114.30884304844312L154.1002665201823,113.5000620200417L155.3041748523712,114.53199821678209L156.50808318456012,114.20949561491034L157.71199151674904,113.80465959652338L158.915899848938,113.93712284123376L160.11980818112693,115.06978541303579L161.32371651331584,114.02507809628969L162.52762484550476,114.99474977938098L163.73153317769368,114.61484078093872L164.9354415098826,113.46745535650552L166.1393498420715,113.87852843349992L167.34325817426048,114.86133188284293L168.5471665064494,114.07151660408454L169.75107483863832,114.55395520881848L170.95498317082723,114.05008997417463L172.15889150301615,113.96605939885467L173.36279983520507,114.93246405124682L174.56670816739398,114.22502461797376L175.7706164995829,115.09464878952531L176.97452483177187,114.7098604595194L178.1784331639608,114.05446015809684L179.3823414961497,114.38203302189777L180.58624982833862,113.4052544863116L181.79015816052754,114.54850308615823L182.99406649271646,114.7697277363568L184.19797482490537,115.07294637130963L185.40188315709435,114.51383861757131L186.60579148928326,114.56051048470181L187.80969982147218,114.00114815714278L189.0136081536611,114.4859415697183L190.21751648585,114.5067529795615L191.42142481803893,114.67808116090055L192.62533315022785,115.02708065461138L193.82924148241676,114.48464748612969L195.03314981460574,114.3922371892113L196.23705814679465,114.04752302148245L197.44096647898357,115.13086191552156L198.64487481117249,115.13419258967588L199.8487831433614,113.9259428076075L201.05269147555032,114.54646649559254L202.25659980773924,115.60617245327558L203.4605081399282,115.02935060451273L204.66441647211713,115.09409721291377L205.86832480430604,114.40002290522807L207.07223313649496,115.31315798563628L208.27614146868387,114.7263441144105L209.4800498008728,114.95225716580717L210.6839581330617,115.19261728152924L211.88786646525062,115.31407020849383L213.0917747974396,115.30199916649508L214.29568312962851,114.72023434271341L215.49959146181743,114.58711344896619L216.70349979400635,115.81899616739065L217.90740812619526,114.51216267325162L219.11131645838418,116.05914413826213L220.3152247905731,115.0505863040571L221.51913312276207,115.24732943849722L222.723041454951,114.54345403871412L223.9269497871399,115.47080282411207L225.13085811932882,114.78392022686148L226.33476645151774,114.19091172599838L227.53867478370665,115.54626274746806L228.74258311589557,116.2469347600072L229.9464914480845,115.060917758281L231.15039978027346,115.66767324546254L232.35430811246238,115.21385298107361L233.5582164446513,115.19662681920545L234.7621247768402,115.39827049969426L235.96603310902913,115.39578840494232L237.16994144121804,115.52562105350535L238.37384977340696,115.51471680818486L239.57775810559593,115.3407368162134L240.78166643778485,116.1134956489841L241.98557476997377,115.96393352931591L243.18948310216268,116.0480489625761L244.3933914343516,115.2582336838177L245.59729976654052,115.87928773392923L246.80120809872943,116.54279196864445L248.00511643091835,115.45860449520296L249.20902476310732,115.5446292321185L250.41293309529624,116.20316927732983L251.61684142748516,115.89159213526364L252.82074975967407,116.17298106509043L254.024658091863,115.85578208448351L255.2285664240519,115.39167279484082L256.4324747562408,116.18560368370072L257.6363830884298,116.71407772101338L258.8402914206187,116.33177148575942L260.04419975280763,116.11977513656166L261.24810808499655,115.9544506544944L262.45201641718546,115.72603429386072L263.6559247493744,115.51938399489791" fill="none"></path></g></g></g></g></g></g><g transform="translate(41, 177)" clip-path="url(#clip_1)"><clipPath id="clip_1"><rect width="288" height="22"></rect></clipPath><g><g><line x1="0" y1="0" x2="0" y2="5" style="visibility: inherit;" fill="rgb(0, 0, 0)" stroke="rgb(204, 204, 204)" stroke-width="1px"></line><line x1="24.07816664377848" y1="0" x2="24.07816664377848" y2="5" style="visibility: inherit;" fill="rgb(0, 0, 0)" stroke="rgb(204, 204, 204)" stroke-width="1px"></line><line x1="48.15633328755696" y1="0" x2="48.15633328755696" y2="5" style="visibility: inherit;" fill="rgb(0, 0, 0)" stroke="rgb(204, 204, 204)" stroke-width="1px"></line><line x1="72.23449993133545" y1="0" x2="72.23449993133545" y2="5" style="visibility: inherit;" fill="rgb(0, 0, 0)" stroke="rgb(204, 204, 204)" stroke-width="1px"></line><line x1="96.31266657511392" y1="0" x2="96.31266657511392" y2="5" style="visibility: inherit;" fill="rgb(0, 0, 0)" stroke="rgb(204, 204, 204)" stroke-width="1px"></line><line x1="120.39083321889242" y1="0" x2="120.39083321889242" y2="5" style="visibility: inherit;" fill="rgb(0, 0, 0)" stroke="rgb(204, 204, 204)" stroke-width="1px"></line><line x1="144.4689998626709" y1="0" x2="144.4689998626709" y2="5" style="visibility: inherit;" fill="rgb(0, 0, 0)" stroke="rgb(204, 204, 204)" stroke-width="1px"></line><line x1="168.5471665064494" y1="0" x2="168.5471665064494" y2="5" style="visibility: inherit;" fill="rgb(0, 0, 0)" stroke="rgb(204, 204, 204)" stroke-width="1px"></line><line x1="192.62533315022785" y1="0" x2="192.62533315022785" y2="5" style="visibility: inherit;" fill="rgb(0, 0, 0)" stroke="rgb(204, 204, 204)" stroke-width="1px"></line><line x1="216.70349979400635" y1="0" x2="216.70349979400635" y2="5" style="visibility: inherit;" fill="rgb(0, 0, 0)" stroke="rgb(204, 204, 204)" stroke-width="1px"></line><line x1="240.78166643778485" y1="0" x2="240.78166643778485" y2="5" style="visibility: inherit;" fill="rgb(0, 0, 0)" stroke="rgb(204, 204, 204)" stroke-width="1px"></line><line x1="264.8598330815633" y1="0" x2="264.8598330815633" y2="5" style="visibility: inherit;" fill="rgb(0, 0, 0)" stroke="rgb(204, 204, 204)" stroke-width="1px"></line><line x1="288.9379997253418" y1="0" x2="288.9379997253418" y2="5" style="visibility: inherit;" fill="rgb(0, 0, 0)" stroke="rgb(204, 204, 204)" stroke-width="1px"></line></g><g transform="translate(0, 8)"><text style="text-anchor: middle; visibility: hidden; font-family: &quot;Helvetica Neue&quot;, sans-serif; font-size: 12px; font-weight: 200;" x="0" y="0" dx="0em" dy="0.95em" fill="rgb(50, 49, 63)" stroke="none" stroke-width="1px">-20</text><text style="text-anchor: middle; visibility: inherit; font-family: &quot;Helvetica Neue&quot;, sans-serif; font-size: 12px; font-weight: 200;" x="24.07816664377848" y="0" dx="0em" dy="0.95em" fill="rgb(50, 49, 63)" stroke="none" stroke-width="1px">0</text><text style="text-anchor: middle; visibility: hidden; font-family: &quot;Helvetica Neue&quot;, sans-serif; font-size: 12px; font-weight: 200;" x="48.15633328755696" y="0" dx="0em" dy="0.95em" fill="rgb(50, 49, 63)" stroke="none" stroke-width="1px">20</text><text style="text-anchor: middle; visibility: inherit; font-family: &quot;Helvetica Neue&quot;, sans-serif; font-size: 12px; font-weight: 200;" x="72.23449993133545" y="0" dx="0em" dy="0.95em" fill="rgb(50, 49, 63)" stroke="none" stroke-width="1px">40</text><text style="text-anchor: middle; visibility: hidden; font-family: &quot;Helvetica Neue&quot;, sans-serif; font-size: 12px; font-weight: 200;" x="96.31266657511392" y="0" dx="0em" dy="0.95em" fill="rgb(50, 49, 63)" stroke="none" stroke-width="1px">60</text><text style="text-anchor: middle; visibility: inherit; font-family: &quot;Helvetica Neue&quot;, sans-serif; font-size: 12px; font-weight: 200;" x="120.39083321889242" y="0" dx="0em" dy="0.95em" fill="rgb(50, 49, 63)" stroke="none" stroke-width="1px">80</text><text style="text-anchor: middle; visibility: hidden; font-family: &quot;Helvetica Neue&quot;, sans-serif; font-size: 12px; font-weight: 200;" x="144.4689998626709" y="0" dx="0em" dy="0.95em" fill="rgb(50, 49, 63)" stroke="none" stroke-width="1px">100</text><text style="text-anchor: middle; visibility: inherit; font-family: &quot;Helvetica Neue&quot;, sans-serif; font-size: 12px; font-weight: 200;" x="168.5471665064494" y="0" dx="0em" dy="0.95em" fill="rgb(50, 49, 63)" stroke="none" stroke-width="1px">120</text><text style="text-anchor: middle; visibility: hidden; font-family: &quot;Helvetica Neue&quot;, sans-serif; font-size: 12px; font-weight: 200;" x="192.62533315022785" y="0" dx="0em" dy="0.95em" fill="rgb(50, 49, 63)" stroke="none" stroke-width="1px">140</text><text style="text-anchor: middle; visibility: inherit; font-family: &quot;Helvetica Neue&quot;, sans-serif; font-size: 12px; font-weight: 200;" x="216.70349979400635" y="0" dx="0em" dy="0.95em" fill="rgb(50, 49, 63)" stroke="none" stroke-width="1px">160</text><text style="text-anchor: middle; visibility: hidden; font-family: &quot;Helvetica Neue&quot;, sans-serif; font-size: 12px; font-weight: 200;" x="240.78166643778485" y="0" dx="0em" dy="0.95em" fill="rgb(50, 49, 63)" stroke="none" stroke-width="1px">180</text><text style="text-anchor: middle; visibility: inherit; font-family: &quot;Helvetica Neue&quot;, sans-serif; font-size: 12px; font-weight: 200;" x="264.8598330815633" y="0" dx="0em" dy="0.95em" fill="rgb(50, 49, 63)" stroke="none" stroke-width="1px">200</text><text style="text-anchor: middle; visibility: hidden; font-family: &quot;Helvetica Neue&quot;, sans-serif; font-size: 12px; font-weight: 200;" x="288.9379997253418" y="0" dx="0em" dy="0.95em" fill="rgb(50, 49, 63)" stroke="none" stroke-width="1px">220</text></g><line x1="0" y1="0" x2="288.9379997253418" y2="0" fill="rgb(0, 0, 0)" stroke="rgb(204, 204, 204)" stroke-width="1px"></line></g></g></g></g></svg>